<svg width="20" height="25" viewBox="0 0 20 25" fill="none" xmlns="http://www.w3.org/2000/svg">
<path d="M19.9907 1.41708C19.9907 1.36963 19.9907 1.32481 19.98 1.28526C19.972 1.20337 19.9573 1.12225 19.936 1.04271V1.02557C19.936 1.00975 19.9267 0.989983 19.9227 0.975482C19.9139 0.947295 19.9037 0.919575 19.892 0.892434C19.8725 0.850613 19.8503 0.810101 19.8254 0.771158C19.8254 0.761931 19.8121 0.754021 19.8067 0.743475C19.8014 0.732929 19.7961 0.726338 19.7894 0.717111C19.7827 0.707883 19.7601 0.678883 19.7454 0.660428L19.7268 0.636699C19.5301 0.421819 19.2802 0.261422 19.0017 0.171369C18.8755 0.12292 18.7447 0.0875772 18.6111 0.0659109L18.5418 0.0540474C18.4832 0.0448199 18.4219 0.0369115 18.3539 0.0303205C18.2859 0.0237294 18.2206 0.0171376 18.138 0.013183C18.0047 0.00395546 17.8914 0 17.7887 0C17.5688 0 17.4235 0.01582 17.4235 0.01582C17.2103 0.0263657 16.9024 0.0435025 16.5265 0.0672304L5.74475 0.827841L5.43019 0.85157L4.57581 0.914843L5.38887 2.65621L1.65678 22.5363L0 25L1.49017 24.358C1.49017 24.358 1.85272 24.217 2.46185 23.985L2.65112 23.9125L3.07897 23.753L3.55082 23.575L4.06798 23.3812C5.14362 22.9858 6.45785 22.498 7.80673 22.0221L8.82373 21.6675C9.17294 21.5586 9.51372 21.454 9.84605 21.3538C10.3432 21.2035 10.8191 21.0638 11.2696 20.9333C12.6238 20.5378 13.7621 20.2241 14.6138 19.9525L14.887 19.8642C14.975 19.8339 15.059 19.8062 15.139 19.7772L15.2856 19.7258L15.3122 19.7153C15.3775 19.6915 15.4455 19.6678 15.5028 19.6428L15.5228 19.6349L15.5828 19.6098C15.6188 19.5953 15.6548 19.5808 15.6881 19.565C15.7854 19.5228 15.876 19.478 15.9653 19.4332C16.0546 19.3883 16.1266 19.3475 16.2013 19.3013C16.2155 19.2947 16.2293 19.2872 16.2426 19.2789C16.3843 19.1964 16.5214 19.1062 16.6531 19.0087C16.7144 18.9626 16.7744 18.9164 16.8304 18.8703C16.9848 18.7424 17.1288 18.6027 17.2609 18.4524C17.3009 18.4063 17.3382 18.3601 17.3729 18.3206C17.4075 18.281 17.4409 18.231 17.4715 18.1888C17.4953 18.1503 17.5171 18.1107 17.5368 18.0701C17.6001 17.9456 17.6549 17.817 17.7008 17.6852C17.7208 17.6312 17.7394 17.5732 17.7594 17.5125C17.7994 17.3899 17.8381 17.2489 17.8767 17.0933C17.9154 16.9378 17.954 16.7598 17.99 16.566C18.01 16.4593 18.0287 16.3459 18.0473 16.2273C18.066 16.1086 18.0846 15.9821 18.1006 15.8502L18.6111 12.5613C18.863 10.9386 18.1553 10.3506 17.6541 10.1371C17.5821 10.112 17.5088 10.087 17.4342 10.0685L17.3875 10.0567C17.2969 10.0369 17.2076 10.0198 17.121 10.004C16.9067 9.96652 16.6894 9.94799 16.4718 9.94859C16.2428 9.94793 16.0141 9.96601 15.7881 10.0026H15.7761H15.7881C16.379 9.90499 16.9474 9.70317 17.4662 9.4068C17.632 9.31229 17.7909 9.20658 17.942 9.09043C18.0127 9.03506 18.0753 8.9797 18.142 8.92302C18.4173 8.67891 18.6501 8.39165 18.8311 8.07276C18.8881 7.97248 18.9393 7.86905 18.9843 7.76299C19.0057 7.71421 19.0243 7.66808 19.0403 7.62326C19.1008 7.46628 19.1454 7.30379 19.1736 7.13815C19.1736 7.12101 19.1803 7.1052 19.1829 7.09201L19.1909 7.03797V7.03137L19.2736 6.47113L19.5641 4.53335L19.8774 2.55603C19.8774 2.55603 19.9773 1.91801 20 1.57263C20 1.52122 20 1.46849 20 1.42104L19.9907 1.41708ZM13.1236 13.9731C13.1243 13.9792 13.1243 13.9854 13.1236 13.9916L13.0663 14.3607L13.0197 14.6573L12.7464 16.2022C12.6955 16.4584 12.6056 16.7056 12.4798 16.9351C12.4492 16.9931 12.4172 17.0511 12.3825 17.1065C12.2174 17.3802 12.0127 17.6285 11.7747 17.8434C11.6316 17.973 11.4783 18.0911 11.3162 18.1967C11.1345 18.3148 10.9432 18.4179 10.7444 18.5051C10.7178 18.517 10.6911 18.5262 10.6644 18.5355L8.50117 19.2157C8.42566 19.239 8.34703 19.251 8.26791 19.2513C8.15566 19.2512 8.04478 19.2268 7.94306 19.1799C7.84134 19.133 7.75124 19.0646 7.67909 18.9795C7.60694 18.8945 7.55449 18.7948 7.52543 18.6876C7.49636 18.5804 7.49138 18.4682 7.51083 18.3588L8.48651 12.8671C8.51258 12.719 8.58246 12.5818 8.68732 12.473C8.79218 12.3641 8.92731 12.2884 9.07564 12.2555L10.7018 11.8969H10.7151L10.7644 11.8877L10.8697 11.8706L11.0243 11.8508L11.2163 11.835C11.2736 11.835 11.3309 11.835 11.3855 11.835C11.9454 11.835 12.3839 11.9839 12.6891 12.2766L12.7264 12.3148C12.7709 12.3615 12.8115 12.4118 12.8477 12.4651C12.8717 12.498 12.8877 12.5257 12.8984 12.5428L12.9117 12.5653C12.9432 12.6195 12.9708 12.6759 12.9943 12.734C13.0349 12.8314 13.0657 12.9325 13.0863 13.0359C13.1036 13.123 13.1156 13.211 13.1223 13.2995C13.1223 13.3074 13.1223 13.3153 13.1223 13.3219C13.1307 13.5376 13.1209 13.7537 13.093 13.9678L13.1236 13.9731ZM14.4672 4.90641C14.4672 4.97232 14.4672 5.03823 14.4552 5.116C14.4552 5.13182 14.4552 5.14896 14.4552 5.16478V5.17664C14.4552 5.25573 14.4392 5.33747 14.4299 5.4192C14.4299 5.46929 14.4165 5.52069 14.4085 5.57211C14.4005 5.62352 14.3925 5.68416 14.3832 5.73952L14.3752 5.78698L14.3645 5.85157L14.3565 5.90562L14.3486 5.95044L14.3286 6.07435V6.10731L14.3166 6.18376L14.3032 6.26285L14.2939 6.32349L14.2859 6.37095L14.2752 6.44345C14.2746 6.45002 14.2746 6.45665 14.2752 6.46322C14.1566 7.14738 14.0806 7.53098 14.0646 7.61139C14.029 7.80115 13.9708 7.9861 13.8914 8.16241C13.8674 8.21514 13.8421 8.26786 13.8154 8.31927C13.6424 8.65465 13.402 8.95159 13.109 9.19193C12.8024 9.44265 12.4492 9.63163 12.0693 9.74822H12.0613L11.9573 9.77854C11.8734 9.80095 11.7721 9.82863 11.6574 9.85104L11.5988 9.86159L10.8271 10.0119L10.7058 10.0356L10.5938 10.0567L10.2819 10.1173L10.1886 10.1345L10.1166 10.149H10.1006L10.0247 10.1635C9.98369 10.1702 9.94224 10.1738 9.9007 10.174C9.78866 10.1737 9.67803 10.1492 9.57653 10.1023C9.47504 10.0553 9.38511 9.98707 9.31304 9.90223C9.24096 9.81739 9.18846 9.71802 9.1592 9.61105C9.12994 9.50409 9.12462 9.3921 9.14362 9.28289L10.1166 3.78065C10.1455 3.61616 10.2284 3.46568 10.3525 3.35249C10.4766 3.2393 10.635 3.16971 10.8031 3.15449L11.9507 3.04904H11.9947C12.1718 3.03084 12.3497 3.0216 12.5278 3.02136C12.769 3.01818 13.0096 3.04295 13.2449 3.09518H13.2649C13.2809 3.09518 13.3049 3.1044 13.3342 3.11363L13.3795 3.12813H13.3875C13.4693 3.15566 13.549 3.18869 13.6261 3.227C13.7921 3.30868 13.9427 3.41792 14.0713 3.54996L14.0873 3.5671C14.1294 3.613 14.1685 3.66143 14.2046 3.7121C14.2153 3.72528 14.2353 3.75297 14.2579 3.78724C14.2806 3.82151 14.3099 3.87688 14.3232 3.90456V3.91247L14.3299 3.92433C14.3655 3.99497 14.3958 4.06811 14.4205 4.14316C14.42 4.14974 14.42 4.15635 14.4205 4.16293C14.4285 4.18798 14.4365 4.21698 14.4432 4.24598C14.4499 4.27498 14.4525 4.2908 14.4578 4.31716C14.4632 4.34353 14.4685 4.38439 14.4725 4.42526C14.4825 4.51896 14.4874 4.61313 14.4872 4.70735C14.4872 4.76404 14.4872 4.82468 14.4872 4.88663" fill="white"/>
</svg>
