<svg width="31" height="37" viewBox="0 0 31 37" fill="none" xmlns="http://www.w3.org/2000/svg">

    <path d="M4.34961 27.4035L8.37645 7.05263L27.0006 4V23.8421L10.8932 33L4.34961 27.4035Z" fill="#CF2A36" />

    <path
        d="M22.464 11.0283C22.464 10.9974 22.464 10.9682 22.457 10.9425C22.4517 10.8891 22.4421 10.8363 22.4282 10.7845V10.7734C22.4282 10.763 22.4221 10.7502 22.4195 10.7407C22.4137 10.7224 22.407 10.7043 22.3994 10.6866C22.3866 10.6594 22.3721 10.633 22.3558 10.6077C22.3558 10.6017 22.3471 10.5965 22.3436 10.5896C22.3401 10.5828 22.3366 10.5785 22.3323 10.5725C22.3279 10.5665 22.3131 10.5476 22.3035 10.5356L22.2913 10.5201C22.1626 10.3802 21.999 10.2757 21.8168 10.2171C21.7343 10.1855 21.6486 10.1625 21.5612 10.1484L21.5159 10.1407C21.4775 10.1347 21.4374 10.1295 21.3929 10.1252C21.3484 10.1209 21.3057 10.1166 21.2516 10.1141C21.1644 10.108 21.0903 10.1055 21.0231 10.1055C20.8792 10.1055 20.7841 10.1158 20.7841 10.1158C20.6446 10.1226 20.4431 10.1338 20.1971 10.1493L13.142 10.6446L12.9361 10.66L12.377 10.7012L12.9091 11.8353L10.4669 24.7817L9.38281 26.3862L10.3579 25.9681C10.3579 25.9681 10.5952 25.8762 10.9938 25.7252L11.1176 25.6779L11.3976 25.5741L11.7063 25.4582L12.0447 25.332C12.7486 25.0744 13.6086 24.7568 14.4912 24.4469L15.1567 24.216C15.3852 24.145 15.6082 24.0769 15.8257 24.0117C16.151 23.9138 16.4624 23.8228 16.7572 23.7378C17.6433 23.4803 18.3882 23.276 18.9455 23.0991L19.1243 23.0416C19.1819 23.0219 19.2368 23.0038 19.2892 22.985L19.3851 22.9515L19.4026 22.9446C19.4453 22.9292 19.4898 22.9137 19.5273 22.8974L19.5404 22.8922L19.5796 22.8759C19.6032 22.8665 19.6267 22.857 19.6485 22.8467C19.7122 22.8193 19.7715 22.7901 19.8299 22.7609C19.8884 22.7317 19.9355 22.7051 19.9843 22.675C19.9936 22.6707 20.0026 22.6658 20.0114 22.6605C20.1041 22.6067 20.1938 22.5479 20.28 22.4845C20.3201 22.4544 20.3594 22.4244 20.396 22.3943C20.497 22.3111 20.5912 22.2201 20.6777 22.1222C20.7039 22.0922 20.7283 22.0621 20.751 22.0364C20.7736 22.0106 20.7955 21.978 20.8155 21.9505C20.8311 21.9255 20.8453 21.8997 20.8583 21.8732C20.8997 21.7921 20.9355 21.7084 20.9655 21.6226C20.9786 21.5874 20.9908 21.5496 21.0039 21.5101C21.0301 21.4303 21.0554 21.3384 21.0807 21.2371C21.106 21.1358 21.1312 21.0199 21.1548 20.8937C21.1679 20.8242 21.1801 20.7504 21.1923 20.6731C21.2045 20.5959 21.2167 20.5134 21.2272 20.4276L21.5612 18.2857C21.7261 17.229 21.2629 16.8461 20.935 16.707C20.8879 16.6907 20.8399 16.6744 20.7911 16.6624L20.7606 16.6547C20.7013 16.6418 20.6428 16.6306 20.5861 16.6203C20.4459 16.5959 20.3038 16.5839 20.1614 16.5843C20.0115 16.5838 19.8618 16.5956 19.7139 16.6195H19.7061H19.7139C20.1006 16.5559 20.4725 16.4244 20.812 16.2314C20.9205 16.1699 21.0245 16.1011 21.1234 16.0254C21.1696 15.9894 21.2106 15.9533 21.2542 15.9164C21.4344 15.7574 21.5867 15.5704 21.7051 15.3627C21.7425 15.2974 21.7759 15.23 21.8055 15.1609C21.8194 15.1292 21.8316 15.0991 21.8421 15.0699C21.8816 14.9677 21.9109 14.8619 21.9293 14.754C21.9293 14.7429 21.9337 14.7326 21.9354 14.724L21.9406 14.6888V14.6845L21.9947 14.3197L22.1849 13.0577L22.3898 11.77C22.3898 11.77 22.4552 11.3545 22.4701 11.1296C22.4701 11.0961 22.4701 11.0618 22.4701 11.0309L22.464 11.0283ZM17.9704 19.2052C17.9708 19.2091 17.9708 19.2132 17.9704 19.2172L17.9329 19.4575L17.9024 19.6507L17.7236 20.6568C17.6903 20.8237 17.6315 20.9846 17.5492 21.1341C17.5291 21.1719 17.5082 21.2097 17.4855 21.2457C17.3774 21.4239 17.2434 21.5856 17.0878 21.7256C16.9941 21.81 16.8938 21.8869 16.7877 21.9557C16.6688 22.0326 16.5436 22.0997 16.4136 22.1565C16.3961 22.1643 16.3787 22.1703 16.3612 22.1763L14.9457 22.6192C14.8962 22.6345 14.8448 22.6423 14.793 22.6424C14.7196 22.6424 14.647 22.6265 14.5805 22.596C14.5139 22.5654 14.4549 22.5208 14.4077 22.4655C14.3605 22.4101 14.3262 22.3452 14.3072 22.2754C14.2881 22.2055 14.2849 22.1324 14.2976 22.0612L14.9361 18.4849C14.9531 18.3884 14.9989 18.2991 15.0675 18.2282C15.1361 18.1573 15.2245 18.108 15.3216 18.0866L16.3856 17.8531H16.3944L16.4266 17.8471L16.4955 17.8359L16.5967 17.823L16.7223 17.8127C16.7598 17.8127 16.7973 17.8127 16.8331 17.8127C17.1994 17.8127 17.4864 17.9097 17.6861 18.1003L17.7105 18.1252C17.7396 18.1556 17.7662 18.1884 17.7899 18.2231C17.8056 18.2445 17.816 18.2626 17.823 18.2737L17.8317 18.2883C17.8523 18.3237 17.8704 18.3604 17.8858 18.3982C17.9124 18.4616 17.9325 18.5275 17.946 18.5948C17.9573 18.6515 17.9652 18.7088 17.9695 18.7665C17.9695 18.7716 17.9695 18.7768 17.9695 18.7811C17.975 18.9216 17.9686 19.0623 17.9504 19.2017L17.9704 19.2052ZM18.8496 13.3007C18.8496 13.3436 18.8496 13.3865 18.8417 13.4372C18.8417 13.4475 18.8417 13.4586 18.8417 13.4689V13.4766C18.8417 13.5281 18.8313 13.5814 18.8252 13.6346C18.8252 13.6672 18.8164 13.7007 18.8112 13.7342C18.806 13.7677 18.8007 13.8072 18.7946 13.8432L18.7894 13.8741L18.7824 13.9162L18.7772 13.9514L18.772 13.9806L18.7589 14.0613V14.0827L18.751 14.1325L18.7423 14.184L18.7362 14.2235L18.731 14.2544L18.724 14.3016C18.7236 14.3059 18.7236 14.3102 18.724 14.3145C18.6464 14.76 18.5967 15.0099 18.5862 15.0622C18.5628 15.1858 18.5248 15.3062 18.4728 15.4211C18.4571 15.4554 18.4405 15.4897 18.4231 15.5232C18.3099 15.7416 18.1526 15.935 17.9608 16.0915C17.7602 16.2548 17.5291 16.3779 17.2805 16.4538H17.2753L17.2073 16.4735C17.1523 16.4881 17.086 16.5062 17.011 16.5207L16.9726 16.5276L16.4676 16.6255L16.3883 16.6409L16.315 16.6547L16.1109 16.6942L16.0499 16.7053L16.0028 16.7148H15.9923L15.9426 16.7242C15.9158 16.7286 15.8886 16.7309 15.8615 16.7311C15.7881 16.7309 15.7158 16.7149 15.6493 16.6844C15.5829 16.6538 15.5241 16.6093 15.4769 16.5541C15.4297 16.4988 15.3954 16.4341 15.3762 16.3645C15.3571 16.2948 15.3536 16.2219 15.3661 16.1507L16.0028 12.5675C16.0217 12.4604 16.0759 12.3624 16.1571 12.2887C16.2383 12.215 16.3419 12.1697 16.4519 12.1598L17.2029 12.0911H17.2317C17.3476 12.0792 17.464 12.0732 17.5805 12.0731C17.7383 12.071 17.8958 12.0871 18.0498 12.1211H18.0629C18.0733 12.1211 18.089 12.1271 18.1082 12.1332L18.1379 12.1426H18.1431C18.1966 12.1605 18.2488 12.182 18.2992 12.207C18.4078 12.2602 18.5064 12.3313 18.5905 12.4173L18.601 12.4285C18.6285 12.4584 18.6542 12.4899 18.6778 12.5229C18.6847 12.5315 18.6978 12.5495 18.7127 12.5718C18.7275 12.5941 18.7467 12.6302 18.7554 12.6482V12.6534L18.7598 12.6611C18.7831 12.7071 18.8029 12.7547 18.8191 12.8036C18.8187 12.8079 18.8187 12.8122 18.8191 12.8165C18.8243 12.8328 18.8295 12.8517 18.8339 12.8706C18.8383 12.8895 18.84 12.8998 18.8435 12.9169C18.847 12.9341 18.8505 12.9607 18.8531 12.9873C18.8596 13.0483 18.8628 13.1097 18.8627 13.171C18.8627 13.2079 18.8627 13.2474 18.8627 13.2878"
        fill="white" />

</svg>