<svg width="931" height="842" viewBox="0 0 931 842" fill="none" xmlns="http://www.w3.org/2000/svg">
<g opacity="0.3" filter="url(#filter0_d_440_5245)">
<path fill-rule="evenodd" clip-rule="evenodd" d="M95.5145 690.746C95.3622 693.851 94.4914 696.879 92.9706 699.591L93.2468 701.657C93.6992 701.878 94.0515 702.075 94.3385 702.235C94.8501 702.521 95.154 702.691 95.4472 702.674C95.8765 702.65 96.2827 702.224 97.2837 701.175L97.3418 701.114C99.477 698.878 101.491 696.634 103.449 694.326C104.742 692.647 106.542 691.429 108.581 690.851C109.863 690.499 111.047 689.856 112.041 688.973C112.86 688.324 113.685 687.673 114.512 687.021L114.514 687.019L114.519 687.015L114.525 687.01L114.536 687.002C117.132 684.955 119.739 682.9 122.192 680.863C125.037 678.466 126.952 675.148 127.606 671.487L128.275 668.216C128.81 665.974 130.008 663.944 131.713 662.392C133.417 660.84 135.549 659.837 137.832 659.513C138.83 659.429 139.821 659.27 140.795 659.036C141.112 658.973 141.411 658.84 141.669 658.645C141.927 658.451 142.138 658.201 142.286 657.914C142.434 657.626 142.515 657.309 142.523 656.986C142.531 656.663 142.466 656.342 142.333 656.048L141.857 654.273C141.201 651.675 141.545 651.186 144.17 650.483C147.424 649.611 147.911 648.767 146.249 645.963C145.919 645.525 145.757 644.983 145.792 644.436C145.827 643.889 146.057 643.372 146.44 642.979C146.814 642.375 147.405 641.935 148.092 641.751C148.779 641.567 149.511 641.652 150.137 641.989C150.231 642.03 150.325 642.076 150.42 642.122L150.42 642.122L150.42 642.123C151.051 642.43 151.692 642.742 152.3 641.924C153.105 640.978 153.958 640.041 154.819 639.094C156.247 637.526 157.698 635.932 158.995 634.226C162.671 629.377 166.765 624.859 171.229 620.723C175.447 617.311 178.369 612.555 179.507 607.25C179.674 606.146 180.123 605.104 180.811 604.226C181.499 603.347 182.403 602.661 183.434 602.235C189.197 599.29 194.248 595.124 198.234 590.026C199.815 588.3 200.811 586.119 201.082 583.794C201.163 583.31 201.233 582.823 201.303 582.335C201.431 581.444 201.56 580.548 201.755 579.651C201.801 579.138 201.951 578.639 202.195 578.185C202.438 577.731 202.771 577.331 203.173 577.008C203.575 576.686 204.038 576.448 204.535 576.309C205.031 576.17 205.55 576.132 206.061 576.199C206.304 576.183 206.554 576.22 206.806 576.258C207.16 576.31 207.518 576.363 207.864 576.271C208.684 576.466 209.537 576.479 210.363 576.31C211.189 576.14 211.968 575.792 212.646 575.29C213.323 574.787 213.882 574.143 214.284 573.401C214.686 572.66 214.92 571.839 214.971 570.998C215.542 568.539 216.814 566.299 218.633 564.548C220.811 562.558 222.847 560.352 224.873 558.156L224.873 558.156L224.88 558.149C225.249 557.748 225.619 557.348 225.989 556.949C230.333 552.85 234.167 548.243 237.411 543.228C239.226 538.88 241.829 534.905 245.088 531.502C245.397 531.226 245.616 530.864 245.716 530.462C245.817 530.06 245.794 529.637 245.652 529.248C245.509 528.859 245.253 528.522 244.916 528.281C244.58 528.039 244.178 527.904 243.764 527.894C243.363 527.881 242.964 527.958 242.596 528.118C242.228 528.279 241.899 528.518 241.635 528.821C239.964 530.445 237.951 531.675 235.744 532.42C233.655 532.883 231.797 534.068 230.498 535.768C229.653 536.907 228.554 537.835 227.288 538.476C226.023 539.118 224.625 539.457 223.206 539.465C222.049 539.546 220.926 539.888 219.921 540.467C218.915 541.045 218.055 541.844 217.403 542.804C216.256 544.129 215.32 545.623 214.627 547.233C214.3 548.245 213.757 549.174 213.036 549.955C212.315 550.737 211.433 551.353 210.451 551.76C209.699 552.071 209.033 552.558 208.51 553.182C207.987 553.805 207.622 554.545 207.447 555.339C206.927 557.539 206.678 557.646 204.377 557.786C204.105 557.791 203.825 557.769 203.543 557.747C203.01 557.705 202.471 557.663 201.963 557.799C201.143 557.794 200.343 558.053 199.68 558.537C199.018 559.021 198.529 559.705 198.285 560.489C197.397 563.825 195.831 566.943 193.685 569.647C193.324 570.25 193.045 570.898 192.854 571.574C191.758 574.856 189.468 577.606 186.437 579.277C184.556 580.431 183.024 582.074 182.005 584.032C180.476 587.154 177.798 589.562 174.532 590.75C173.287 591.134 172.132 591.761 171.13 592.594C170.129 593.426 169.303 594.449 168.698 595.602C167.77 597.468 166.404 599.082 164.717 600.307C163.031 601.532 161.073 602.331 159.011 602.636C157.589 602.691 156.239 603.279 155.231 604.284C154.222 605.288 153.629 606.636 153.569 608.058C153.367 610.743 152.494 613.334 151.03 615.594C146.584 623.068 140.62 629.527 133.521 634.552C132.631 635.059 131.866 635.76 131.282 636.602C130.699 637.444 130.312 638.407 130.149 639.418C129.672 642.519 129.386 642.635 126.101 642.207C125.432 642.022 124.721 642.057 124.075 642.309C123.428 642.561 122.88 643.016 122.513 643.605C121.194 645.759 119.41 647.591 117.292 648.967C116.405 649.577 115.704 650.421 115.268 651.405C114.832 652.389 114.678 653.475 114.823 654.542L115.152 657.545C115.248 658.093 115.224 658.656 115.081 659.194C114.938 659.732 114.679 660.233 114.322 660.66C112.741 662.656 111.868 665.12 111.84 667.666C111.788 668.779 111.478 669.864 110.933 670.835C110.389 671.807 109.625 672.638 108.703 673.262C107.078 674.459 105.745 676.009 104.805 677.794C103.576 679.972 101.819 681.806 99.6948 683.126C98.3504 683.873 97.2445 684.984 96.5049 686.333C95.7652 687.681 95.4219 689.211 95.5145 690.746ZM336.27 749.192C336.719 749.393 337.17 749.596 337.623 749.794L343.666 749.126C343.95 748.721 344.295 748.361 344.688 748.06C347.38 746.465 349.859 744.536 352.066 742.318C353.592 740.847 355.528 739.872 357.618 739.523C358.396 739.374 359.169 739.209 359.942 739.045C361.231 738.771 362.52 738.497 363.828 738.295C365.825 737.868 367.638 736.828 369.015 735.32C370.856 733.597 373.077 732.332 375.498 731.629C377.919 730.925 380.471 730.802 382.949 731.269C386.766 731.686 390.484 732.754 393.94 734.427C399.124 737.341 404.8 739.272 410.685 740.125C411.174 740.248 411.648 740.427 412.096 740.658L418.693 739.842C419.401 739.114 420.274 738.567 421.239 738.248C422.897 737.518 424.424 736.52 425.757 735.294C426.139 734.795 426.626 733.951 425.792 733.501C424.018 732.533 422.574 731.057 421.645 729.263C421.296 728.666 420.626 728.627 419.955 728.588C419.779 728.578 419.602 728.568 419.432 728.548C417.4 728.592 415.423 727.879 413.887 726.547C412.351 725.216 411.365 723.361 411.121 721.343C410.828 720.173 410.998 718.935 411.597 717.889C412.195 716.842 413.175 716.067 414.332 715.727C416.4 715.201 418.57 715.235 420.62 715.825C422.312 716.207 424.004 716.662 425.717 717.122L425.722 717.123C426.528 717.34 427.338 717.557 428.155 717.769C429.234 718.221 430.446 718.238 431.536 717.814C431.33 717.39 431.125 716.975 430.922 716.567L430.922 716.567L430.922 716.567C430.339 715.391 429.782 714.268 429.321 713.098C428.977 712.471 428.792 711.77 428.782 711.056C428.772 710.342 428.938 709.636 429.265 709.001C429.591 708.365 430.069 707.82 430.656 707.412C431.242 707.005 431.92 706.747 432.63 706.663C434.879 706.057 437.222 705.873 439.538 706.12C441.488 706.37 443.433 706.641 445.378 706.913C447.323 707.184 449.268 707.455 451.218 707.706C452.901 708.065 454.634 708.124 456.337 707.88C457.45 707.582 458.586 707.243 459.743 706.899C462.123 706.19 464.592 705.454 467.134 704.987C468.532 704.731 468.649 703.986 467.701 702.814C466.706 701.643 465.551 700.618 464.27 699.77C462.135 698.163 461.971 697.255 463.194 694.867C464.615 692.311 466.388 689.968 468.462 687.907C469.747 686.466 471.53 685.564 473.452 685.381C476.455 685.039 479.422 684.429 482.317 683.561C483.219 683.386 484.041 682.929 484.666 682.256C485.291 681.583 485.685 680.728 485.792 679.816C485.933 678.814 486.158 677.825 486.466 676.861C486.879 675.443 487.448 675.053 488.611 676.287C489.271 676.988 489.853 677.774 490.433 678.559L490.433 678.56L490.434 678.56C490.874 679.156 491.315 679.752 491.789 680.309C491.928 680.466 492.059 680.636 492.191 680.808C492.708 681.48 493.247 682.179 494.356 682.197L494.817 680.37C494.828 680.324 494.838 680.277 494.849 680.23L494.858 680.19C494.971 679.672 495.101 679.078 495.723 679.017C496.418 678.95 496.865 679.583 497.014 680.138C497.384 680.83 497.73 681.564 498.076 682.298L498.077 682.299L498.078 682.301C498.251 682.668 498.425 683.036 498.601 683.398C499.988 686.355 501.675 686.736 504.318 684.918C508.009 682.09 512.434 680.381 517.068 679.995L517.127 679.992C517.5 679.969 517.9 679.945 518.024 679.422C517.98 679.176 517.886 678.942 517.749 678.734C517.611 678.525 517.432 678.347 517.224 678.21C516.569 677.74 516.08 677.076 515.826 676.311C515.571 675.547 515.564 674.722 515.806 673.953C515.937 673.094 515.797 672.215 515.404 671.439C515.011 670.663 514.386 670.029 513.616 669.626C511.967 668.479 510.13 667.629 508.188 667.118L505.864 666.432C505.287 666.349 505.208 666.053 505.089 665.61C505.072 665.511 505.076 665.41 505.1 665.314C505.124 665.217 505.167 665.126 505.228 665.046C505.288 664.967 505.364 664.901 505.451 664.852C505.538 664.803 505.635 664.773 505.734 664.763C506.998 664.357 508.054 663.477 508.683 662.309C509.075 661.751 509.597 661.295 510.202 660.981C510.808 660.667 511.48 660.504 512.162 660.505C514.38 660.377 516.603 660.654 518.722 661.323C520.68 661.848 522.744 661.83 524.692 661.269C526.692 660.553 528.811 660.227 530.934 660.309C531.54 660.408 532.162 660.301 532.7 660.006C533.238 659.711 533.662 659.245 533.906 658.681C534.5 657.055 535.628 657.268 536.858 657.573C539.94 658.225 542.746 659.812 544.893 662.117C545.07 662.3 545.244 662.502 545.421 662.706L545.421 662.707L545.421 662.707C546.005 663.385 546.611 664.087 547.425 664.173C549.694 664.386 550.714 665.93 551.756 667.509L551.758 667.51L551.759 667.512L551.76 667.514C551.874 667.687 551.988 667.86 552.105 668.032C552.466 668.517 552.855 668.982 553.27 669.423C554.677 670.83 555.592 670.545 556.006 668.69C556.247 666.981 556.17 665.241 555.781 663.559C555.646 662.793 555.69 662.006 555.91 661.26C556.129 660.514 556.518 659.829 557.045 659.257C558.4 657.623 559.616 655.879 560.681 654.043C561.977 651.648 563.722 649.525 565.822 647.791C567.803 646.309 567.238 645.826 565.752 644.719C564.662 643.906 563.556 643.269 562.466 642.641C562.07 642.413 561.676 642.186 561.286 641.952C561.067 641.826 560.837 641.71 560.604 641.593C560.288 641.434 559.967 641.272 559.664 641.079C559.43 640.987 559.225 640.834 559.07 640.637C558.915 640.439 558.814 640.204 558.78 639.955C558.746 639.706 558.778 639.452 558.874 639.22C558.97 638.988 559.126 638.785 559.326 638.633C559.654 638.242 560.072 637.936 560.544 637.74C561.016 637.545 561.528 637.466 562.037 637.511C563.244 637.551 564.448 637.651 565.645 637.812C566.875 638.153 568.188 638.027 569.331 637.457C570.473 636.887 571.365 635.915 571.833 634.727C572.116 633.913 572.652 633.21 573.361 632.721C574.071 632.232 574.918 631.981 575.78 632.005C576.848 631.997 578.031 631.68 578.207 630.562C578.686 627.891 580.382 627.666 582.375 627.402L582.545 627.379C584.569 627.085 586.607 627.055 588.648 627.024C590.84 626.991 593.034 626.958 595.216 626.599C598.216 626.143 601.275 626.265 604.229 626.958C607.798 627.706 608.387 627.39 610.348 624.209C610.651 623.674 610.99 623.159 611.362 622.669C611.534 622.484 611.655 622.258 611.716 622.014C611.776 621.769 611.774 621.512 611.709 621.269C611.643 621.025 611.517 620.802 611.342 620.62C611.168 620.438 610.949 620.304 610.708 620.229L610.703 620.226C608.783 619.117 606.862 618.008 604.915 616.946C603.898 616.169 602.615 615.824 601.345 615.986C600.076 616.148 598.921 616.804 598.132 617.813C597.744 618.278 597.244 618.637 596.68 618.858C596.115 619.078 595.504 619.153 594.904 619.074C594.85 619.069 594.797 619.064 594.745 619.06C594.152 619.007 593.601 618.959 593.376 618.255C593.131 617.488 593.764 617.041 594.319 616.893C595.111 616.414 595.899 615.958 596.679 615.508L596.68 615.508C598.218 614.619 599.72 613.752 601.139 612.767C602.882 611.553 604.867 610.733 606.959 610.364C609.05 609.996 611.196 610.087 613.249 610.632C614.914 611.06 616.603 611.388 618.307 611.614C621.955 612.064 623.086 611.404 624.068 607.97C624.298 606.981 624.838 606.091 625.608 605.429C626.378 604.766 627.339 604.366 628.351 604.286C628.891 604.208 629.436 604.152 629.98 604.095L629.981 604.095C631.051 603.983 632.117 603.872 633.122 603.603C635.012 603.27 636.835 602.634 638.522 601.72C639.185 601.383 639.889 600.759 639.117 600.094C638.764 599.779 638.416 599.45 638.067 599.12L638.066 599.119C636.254 597.405 634.404 595.655 631.539 595.625C631.345 595.622 631.146 595.627 630.947 595.632C630.002 595.656 629.026 595.681 628.276 594.835C628.923 593.974 629.81 593.322 630.826 592.963C632.089 592.29 633.36 591.646 634.631 591.002L634.633 591.002C636.223 590.196 637.812 589.391 639.387 588.529C642.241 587.183 644.653 585.052 646.34 582.386C646.645 581.655 647.112 581.003 647.707 580.479C648.301 579.956 649.007 579.575 649.771 579.366C651.287 578.623 652.984 578.334 654.66 578.532C656.144 578.809 657.651 578.936 659.16 578.911C659.409 578.97 659.671 578.94 659.901 578.828C660.131 578.716 660.315 578.528 660.422 578.296C660.572 577.794 660.4 577.633 659.942 577.206L659.86 577.129C659.831 577.101 659.801 577.073 659.77 577.044C659.523 576.809 659.266 576.585 659.009 576.361C658.656 576.054 658.305 575.749 657.988 575.421C656.711 574.059 656.878 573.499 658.653 573.023C661.335 572.558 663.898 571.562 666.19 570.092C667.79 569.214 669.63 568.873 671.438 569.122C671.573 569.143 671.709 569.178 671.847 569.214C672.383 569.353 672.947 569.499 673.615 568.816C672.055 566.885 670.677 564.813 669.5 562.627C669.157 562.132 669.009 561.529 669.082 560.932C669.156 560.334 669.448 559.785 669.9 559.389C670.41 558.873 670.862 558.379 671.322 557.877C672.016 557.119 672.727 556.343 673.678 555.444C675.259 553.951 675.276 553.272 674.018 551.39C673.432 550.444 672.66 549.627 671.749 548.986C671.397 548.693 670.963 548.515 670.506 548.474C670.049 548.434 669.591 548.534 669.192 548.76C668.608 549.104 667.951 549.306 667.274 549.35C666.598 549.394 665.92 549.278 665.297 549.011C664.526 548.67 663.693 548.494 662.85 548.494C662.008 548.494 661.175 548.67 660.404 549.011C659.633 549.352 658.942 549.85 658.376 550.473C657.809 551.097 657.378 551.831 657.112 552.631C656.959 552.918 656.824 553.221 656.689 553.525L656.688 553.525L656.688 553.527C656.497 553.955 656.305 554.385 656.062 554.775C655.351 556.207 654.336 557.466 653.088 558.465C652.886 557.885 652.678 557.35 652.48 556.839C652.17 556.041 651.884 555.305 651.685 554.561C651.645 554.36 651.542 554.177 651.391 554.04C651.24 553.902 651.049 553.816 650.845 553.795C650.346 553.776 650.213 554.172 650.085 554.551L650.07 554.597L649.783 555.744C649.847 557.126 649.375 558.479 648.465 559.52C647.555 560.562 646.277 561.211 644.9 561.332C644.029 561.375 643.199 561.713 642.547 562.292C641.895 562.87 641.46 563.653 641.313 564.513C641.101 565.638 640.61 566.692 639.885 567.578C639.16 568.465 638.225 569.155 637.164 569.587C635.66 570.445 634.19 571.355 632.713 572.269L632.705 572.274C632.125 572.633 631.545 572.993 630.96 573.35C630.483 573.714 629.927 573.962 629.337 574.072C628.747 574.181 628.139 574.151 627.563 573.983C626.728 573.738 625.835 573.785 625.03 574.116C624.226 574.447 623.558 575.042 623.137 575.803C622.842 576.203 622.598 576.601 622.342 577.017C622.093 577.421 621.834 577.842 621.507 578.3C620.845 579.231 620.174 579.093 619.638 578.127C619.253 577.476 619.023 576.746 618.965 575.992C618.908 575.237 619.024 574.48 619.305 573.778C619.546 573.22 619.673 572.621 619.681 572.013C619.688 571.406 619.575 570.803 619.348 570.24C618.86 568.864 617.992 568.582 616.79 569.419C615.622 570.242 614.781 571.449 614.414 572.83C613.995 574.369 613.668 575.962 613.342 577.555C613.084 579.202 612.462 580.771 611.522 582.147C610.581 583.524 609.346 584.673 607.905 585.512C606.122 586.484 604.657 587.95 603.686 589.733C603.591 590.019 603.44 590.284 603.241 590.511C603.043 590.738 602.8 590.922 602.529 591.054C602.258 591.186 601.963 591.262 601.662 591.278C601.361 591.294 601.059 591.249 600.776 591.147C600.008 590.881 599.179 590.851 598.395 591.061C597.61 591.271 596.907 591.712 596.376 592.326C595.953 592.754 595.482 593.133 594.974 593.455C594.038 594.102 593.364 593.807 592.589 592.984C591.814 592.161 592.314 591.512 592.954 590.944C593.884 590.146 594.514 589.055 594.74 587.85C595.049 586.94 595.081 585.96 594.832 585.032C594.583 584.104 594.065 583.271 593.343 582.637C591.54 581.376 589.818 582.789 588.463 583.945C586.002 585.834 583.94 588.191 582.395 590.881C582.136 591.657 581.611 592.316 580.913 592.744C578.267 594.372 576.147 596.729 574.806 599.532C573.9 601.108 572.673 602.476 571.206 603.548C570.516 604.073 569.682 604.376 568.816 604.417C567.949 604.458 567.091 604.236 566.354 603.779C565.54 603.487 564.85 602.928 564.394 602.194C563.938 601.46 563.744 600.594 563.844 599.735C564.018 597.918 563.719 596.087 562.974 594.42C562.914 594.199 562.798 593.997 562.638 593.833C562.477 593.67 562.277 593.55 562.057 593.486C561.837 593.421 561.605 593.414 561.381 593.466C561.158 593.517 560.951 593.625 560.782 593.779C559.498 594.606 558.505 595.815 557.943 597.235C557.678 597.824 557.422 598.416 557.165 599.006L557.165 599.007C556.58 600.355 555.997 601.699 555.328 603.008C553.747 606.126 552.768 606.468 549.391 605.55C547.721 605.086 546.837 606.075 546.644 607.276C546.527 608.004 546.498 608.737 546.47 609.472C546.451 609.951 546.433 610.431 546.389 610.911C546.137 614.11 545.462 614.845 542.37 614.842C540.861 614.859 539.369 615.164 537.975 615.742C537.66 615.871 537.387 615.996 537.117 616.119L537.117 616.119C536.438 616.428 535.789 616.724 534.598 617.043C532.934 617.489 532.362 617.127 531.936 615.537L529.954 608.142C528.779 604.921 528.437 601.455 528.958 598.066C529.211 596.456 529.03 594.808 528.432 593.293C528.081 592.277 527.262 592.179 526.627 593.063C525.983 594.312 525.526 595.649 525.273 597.032C524.256 600.832 522.523 604.404 520.167 607.555C518.8 609.167 517.667 610.965 516.803 612.895C515.807 615.384 515.024 617.954 514.462 620.576C513.684 624.034 512.4 624.418 509.826 622.056C509.367 621.651 508.943 621.208 508.559 620.731L503.191 614.6C502.018 613.208 500.628 612.015 499.074 611.067C497.611 610.19 496.795 610.845 496.615 612.241C496.513 613.026 496.502 613.774 496.49 614.516L496.49 614.517C496.482 615.095 496.473 615.669 496.422 616.255C496.305 617.594 496.162 618.98 494.836 619.653C493.394 620.526 492.125 621.659 491.094 622.993C488.912 625.908 486.177 628.365 483.045 630.223C480.329 631.624 479.796 631.41 478.683 628.736C477.628 626.429 477.365 623.838 477.937 621.367C478.469 619.624 478.612 617.787 478.358 615.983C477.978 613.826 477.358 613.437 475.293 614.308C473.674 614.922 472.28 616.013 471.295 617.438C470.311 618.862 469.783 620.552 469.782 622.284C469.534 625.405 469.813 628.545 470.607 631.574C471.097 633.424 471.342 635.33 471.333 637.244C471.303 642.603 471.039 642.951 465.928 644.875L465.077 645.103C464.003 645.418 463.044 646.042 462.322 646.898C461.6 647.754 461.146 648.804 461.017 649.916C461.005 649.983 460.996 650.05 460.987 650.117C460.924 650.594 460.861 651.067 459.889 651.328C458.516 649.754 457.097 648.153 455.566 646.581L455.561 646.576C454.731 645.691 453.842 644.745 452.44 645.12C449.329 645.637 448.927 645.467 447.627 642.685C445.938 638.901 445.044 634.811 445.001 630.668C444.999 629.479 444.951 628.264 444.866 627.058C444.859 626.994 444.854 626.93 444.849 626.866C444.815 626.436 444.783 626.038 444.149 625.863C443.422 625.662 443.05 626.197 442.752 626.713C441.935 628.232 441.438 629.903 441.293 631.621C440.949 634.56 439.485 637.252 437.204 639.137C436.67 639.584 436.163 640.064 435.687 640.574C434.507 641.681 433.574 643.024 432.95 644.516C432.325 646.009 432.023 647.616 432.063 649.233C432.086 650.144 432.13 651.049 432.173 651.955C432.232 653.162 432.29 654.369 432.3 655.59C432.545 658.575 431.742 659.425 429.075 660.417C427.963 660.597 426.927 661.095 426.091 661.85C424.412 663.68 422.185 664.917 419.744 665.374C416.943 666.164 416.006 667.842 416.093 670.83C416.092 671.065 416.127 671.304 416.161 671.545L416.161 671.545C416.256 672.202 416.353 672.873 415.739 673.501C413.235 672.48 411.964 674.114 410.678 675.768L410.561 675.919C409.234 677.622 409.133 677.689 407.696 676.171C405.148 673.578 403.015 670.607 401.373 667.364C401.294 667.197 401.228 667.006 401.16 666.813L401.16 666.812C400.913 666.108 400.651 665.361 399.736 665.543C398.768 665.737 398.734 666.664 398.702 667.554C398.695 667.735 398.689 667.915 398.674 668.087C398.653 668.39 398.655 668.694 398.68 668.997C398.629 671.916 398.815 674.835 399.236 677.725C399.36 679.079 398.884 680.554 397.861 681.026C396.838 681.498 396.706 682.485 396.944 683.372C396.968 686.417 396.95 686.501 394.089 687.506C393.082 687.834 392.172 688.41 391.444 689.179C390.716 689.949 390.192 690.888 389.92 691.912C389.503 693.052 389.209 694.234 389.041 695.437C388.904 696.512 388.491 697.534 387.841 698.403C387.192 699.271 386.329 699.957 385.336 700.392C385.159 700.536 384.951 700.634 384.729 700.68C384.506 700.726 384.276 700.718 384.057 700.656C383.839 700.594 383.638 700.48 383.472 700.325C383.307 700.169 383.181 699.976 383.106 699.761C380.726 696.03 378.836 692.008 377.482 687.794C376.447 684.2 375.75 680.775 375.057 677.373L375.057 677.373L375.057 677.372L375.057 677.372L375.057 677.372L375.057 677.371L375.057 677.371C374.984 677.013 374.911 676.655 374.838 676.297C374.811 676.173 374.79 676.043 374.769 675.911C374.657 675.206 374.534 674.43 373.37 674.075C373.036 678.521 372.435 682.944 371.569 687.318C370.054 694.118 369.364 701.075 369.512 708.04C369.607 708.83 369.453 709.631 369.072 710.329C368.691 711.028 368.102 711.591 367.387 711.939C366.777 712.259 366.193 712.623 365.607 712.988L365.607 712.989C365.157 713.269 364.706 713.55 364.242 713.812C364.096 713.851 363.903 713.928 363.709 714.007C363.315 714.165 362.914 714.327 362.874 714.178C362.115 713.678 361.21 713.445 360.304 713.516C359.397 713.587 358.54 713.957 357.867 714.569C357.49 714.749 357.06 714.78 356.661 714.654C356.179 714.462 355.679 714.3 355.178 714.138C353.334 713.54 351.487 712.941 350.487 710.84C349.765 709.329 349.038 709.128 348.194 710.86C347.351 712.592 346.5 714.444 345.676 716.25C344.485 718.907 343.342 721.592 342.199 724.276C341.486 725.686 340.491 726.934 339.274 727.942C338.058 728.949 336.647 729.695 335.129 730.133C334.606 730.337 334.035 730.38 333.488 730.259C332.94 730.138 332.441 729.856 332.053 729.451C331.775 729.206 331.631 729.04 331.422 728.796L331.422 728.796L331.422 728.795L331.421 728.794L331.421 728.794C331.241 728.585 331.012 728.318 330.606 727.897C329.728 726.983 328.857 727.137 328.225 728.178C328.044 728.477 327.887 728.794 327.731 729.111C327.343 729.899 326.958 730.681 326.204 731.137C323.566 732.806 321.041 734.648 318.646 736.65C317.791 737.16 316.86 737.53 315.888 737.746C314.109 738.418 312.279 738.787 310.451 739.155L310.451 739.155C309.321 739.382 308.191 739.61 307.075 739.909C305.111 740.713 304.358 742.341 304.66 744.796C304.961 747.252 305.642 748.02 308.059 748.166C313.27 748.613 318.518 748.237 323.612 747.05C328.405 745.658 332.275 747.397 336.27 749.192ZM1174.1 2.27855C1174.62 1.31105 1175.14 0.34027 1176.17 -0.223054L1176.39 -2.81729C1175.56 -3.54962 1174.69 -4.22955 1173.78 -4.8533C1173.42 -5.17914 1173 -5.41985 1172.53 -5.55715C1172.07 -5.69448 1171.58 -5.72491 1171.1 -5.64639C1170.62 -5.56779 1170.17 -5.38213 1169.77 -5.10331C1169.37 -4.82443 1169.05 -4.45968 1168.81 -4.03613C1168.34 -3.45672 1167.75 -2.98118 1167.08 -2.63924C1166.42 -2.29733 1165.69 -2.09642 1164.94 -2.0491C1162.87 -1.86611 1160.89 -1.07719 1159.26 0.219645C1157.62 1.51654 1156.41 3.26426 1155.76 5.24582C1155.36 6.18069 1155.07 7.12151 1154.76 8.09809L1154.66 8.39349C1153.64 11.2554 1152.25 13.9725 1150.53 16.4764C1150.38 15.7371 1150.19 15.0083 1149.94 14.2948C1149.8 14.0169 1149.67 13.689 1149.54 13.3523C1149.1 12.2504 1148.62 11.0549 1147.69 11.2128C1146.78 11.3672 1146.77 12.5492 1146.76 13.6488C1146.76 14.0167 1146.76 14.3754 1146.72 14.6833C1146.71 15.9012 1146.44 17.1026 1145.93 18.2088C1145.42 19.315 1144.68 20.3012 1143.76 21.1029C1142.81 21.8457 1141.82 22.535 1140.79 23.1678C1139.53 23.822 1138.47 24.7886 1137.7 25.9743C1136.93 27.1599 1136.47 28.5247 1136.38 29.9367C1136.32 30.6928 1136.11 31.429 1135.76 32.1017C1135.41 32.7743 1134.92 33.3696 1134.34 33.8523C1132.48 35.5367 1130.63 37.237 1128.78 38.9374L1128.77 38.9508L1128.76 38.9579C1126.91 40.6604 1125.06 42.3629 1123.2 44.0494C1123.13 44.1143 1123.06 44.1806 1122.98 44.2474L1122.92 44.3102L1122.84 44.3816C1122.14 45.0337 1121.44 45.6862 1120.37 45.6013C1119 45.5366 1117.64 45.8888 1116.48 46.6113C1115.31 47.3338 1114.39 48.3926 1113.84 49.648C1113.77 49.7683 1113.7 49.8892 1113.63 50.0106L1113.44 50.3247L1113.44 50.3263C1112.77 51.4396 1112.1 52.5684 1111.43 53.5049C1110.62 54.6327 1109.85 54.5621 1109.1 53.377C1108.64 52.758 1108.38 52.0149 1108.35 51.2451C1108.32 50.4752 1108.52 49.7144 1108.93 49.0621C1109.28 48.4462 1109.51 47.7667 1109.6 47.0626C1109.69 46.3584 1109.64 45.6433 1109.46 44.9583C1108.89 43.1294 1108.04 42.8 1106.67 44.0395C1104.78 45.5756 1103.38 47.647 1102.68 49.9843C1102.46 50.773 1102.27 51.5611 1102.09 52.3453C1101.89 53.2214 1101.68 54.0927 1101.43 54.9544C1100.44 59.3222 1097.88 63.171 1094.22 65.7631C1091.49 67.5191 1089.22 69.9079 1087.61 72.727C1087.35 73.4016 1086.88 73.9726 1086.26 74.352C1085.65 74.7315 1084.93 74.8984 1084.21 74.827C1082.99 74.7594 1081.77 74.9842 1080.66 75.4827C1079.55 75.9812 1078.57 76.7388 1077.8 77.6925C1076.93 78.7669 1075.77 79.572 1074.46 80.0143C1074.08 80.1437 1073.65 80.1367 1073.27 79.9947C1072.89 79.8526 1072.56 79.5837 1072.35 79.2327C1071.86 78.5034 1072.38 77.9979 1072.86 77.5296L1072.94 77.4493C1073.13 77.2641 1073.33 77.0827 1073.53 76.9003L1073.53 76.8986C1073.85 76.5977 1074.18 76.2939 1074.49 75.9654C1075.35 75.0374 1075.95 73.903 1076.24 72.6727C1076.53 71.4425 1076.49 70.1584 1076.13 68.9459C1075.75 67.3461 1075.09 66.9672 1073.5 67.3932C1071.93 67.8356 1070.49 68.6568 1069.31 69.785C1065.45 72.757 1062.1 76.3313 1059.38 80.3702C1058.91 81.2775 1058.16 82.0164 1057.25 82.4859C1054.12 84.312 1051.43 86.8197 1049.39 89.8236C1047.62 92.2253 1045.53 94.3726 1043.17 96.2051C1042.13 97.0638 1040.88 97.6311 1039.55 97.8492C1038.21 98.0674 1036.84 97.9285 1035.58 97.447C1033.61 96.7466 1033.19 95.9088 1033.33 93.7708C1033.49 92.374 1033.55 90.9671 1033.51 89.5615C1033.32 86.9184 1032.29 86.3599 1030.02 87.8001C1028.8 88.6562 1027.74 89.7318 1026.91 90.9724C1026.19 91.9882 1025.54 92.9449 1024.89 93.917L1024.88 93.9239L1024.88 93.9356L1024.87 93.9425L1024.86 93.9542L1024.86 93.9611L1024.86 93.963L1024.86 93.9646C1023.88 95.4143 1022.88 96.9001 1021.56 98.6671C1019.35 101.639 1017 103.814 1012.62 102.253C1010.84 101.54 1009.89 102.271 1009.16 104.131C1008.81 105.192 1008.53 106.272 1008.32 107.367C1007.28 111.61 1006.35 112.573 1001.92 113.046C999.217 113.373 996.578 114.08 994.077 115.147C992.567 115.71 991.007 116.128 989.418 116.395C987.53 116.743 987.236 116.385 986.965 114.635C986.756 113.264 986.577 111.886 986.397 110.507C986.173 108.784 985.948 107.061 985.667 105.353C985.094 102.629 985.357 99.7964 986.421 97.2248C987.125 95.6526 987.36 93.911 987.098 92.2086C987.075 92.0582 987.068 91.9 987.06 91.7418C987.032 91.1787 987.004 90.6149 986.297 90.4021C985.392 90.1295 984.963 90.601 984.338 91.5215C983.974 92.0574 983.67 92.6176 983.366 93.1791L983.366 93.1796L983.365 93.1807C983.147 93.583 982.928 93.986 982.687 94.3813C979.904 99.7564 976.03 104.492 971.314 108.287C969.653 109.603 968.215 111.18 967.057 112.955C965.09 115.984 963.283 119.114 961.643 122.331C960.022 125.302 958.419 125.533 955.776 123.507C954.82 122.762 953.924 121.941 953.098 121.054L947.528 115.057C946.32 113.697 944.864 112.581 943.238 111.768C941.563 110.988 940.55 111.497 939.956 113.123C939.435 114.544 939.015 116 938.601 117.434L938.601 117.435L938.601 117.436L938.601 117.436L938.6 117.437L938.6 117.438C938.541 117.643 938.482 117.847 938.423 118.051C938.283 118.695 937.98 119.291 937.543 119.783C937.106 120.276 936.549 120.647 935.926 120.86C933.414 121.785 931.097 123.172 929.096 124.95C924.984 128.298 920.312 130.891 915.297 132.61C912.277 133.617 911.376 133.066 910.904 129.824C910.549 127.309 911.117 124.75 912.501 122.62C913.59 121.028 914.282 119.198 914.519 117.284C914.627 115.471 913.936 114.666 912.198 115.131C909.737 115.472 907.415 116.475 905.48 118.034C903.546 119.592 902.071 121.647 901.214 123.979C900.439 126.488 899.989 129.086 899.877 131.709C899.692 134.617 899.259 137.504 898.583 140.338C898.253 141.779 897.514 143.093 896.453 144.122C895.393 145.152 894.057 145.853 892.608 146.14L888.245 147.309C886.481 147.482 884.793 148.11 883.344 149.13C881.895 150.15 880.734 151.529 879.977 153.131C879.322 154.534 878.972 154.707 877.78 153.362C876.587 152.018 875.449 150.579 874.347 149.13C873.806 148.211 872.955 147.516 871.946 147.168C870.938 146.821 869.839 146.845 868.846 147.236C866.362 148.02 865.432 147.358 864.287 145.01C863.901 144.087 863.641 143.117 863.514 142.126C863.23 138.195 863.647 134.245 864.748 130.461C865.034 129.503 865.262 128.529 865.432 127.543C865.609 126.426 865.026 126.027 864.003 126.5C862.553 127.248 861.399 128.465 860.728 129.953C858.338 135.135 854.158 139.281 848.956 141.628C848.686 141.75 848.436 141.911 848.212 142.105C845.241 143.894 843.046 146.729 842.059 150.054C841.988 150.297 841.914 150.539 841.84 150.781C841.741 151.102 841.641 151.422 841.541 151.742C841.17 152.923 840.801 154.096 840.532 155.298C840.259 157.009 839.384 158.567 838.065 159.691C836.746 160.814 835.069 161.43 833.337 161.427C831.219 161.587 829.182 162.31 827.438 163.523C825.766 164.683 823.794 165.335 821.76 165.401C816.831 165.493 812.996 167.155 811.806 172.625C811.539 173.846 810.551 174.151 809.428 173.659C808.868 173.447 808.266 173.369 807.67 173.433C807.074 173.496 806.502 173.698 805.999 174.023C804.427 174.729 802.985 175.692 801.729 176.871C800.397 178.258 800.202 178.271 798.997 176.731C796.811 174.214 795.193 171.254 794.255 168.055C794.159 167.697 794.069 167.347 793.98 166.997C793.801 166.296 793.622 165.596 793.393 164.838C793.049 163.702 792.333 163.695 791.612 164.404C790.424 165.697 789.604 167.285 789.238 169.003L786.597 177.636C785.946 179.198 785.03 180.513 783.445 180.661C781.859 180.808 781.281 181.756 781.019 183.292C780.572 186.503 780.079 187.031 777.207 187.405C774.834 187.619 772.559 188.453 770.61 189.824C768.661 191.194 767.107 193.054 766.103 195.215C764.387 198.329 761.531 200.657 758.134 201.709C756.668 202.3 755.706 201.964 755.319 200.522C753.83 196.976 752.83 193.244 752.347 189.429C752.168 184.901 752.372 180.366 752.955 175.872C753.179 174.7 753.127 173.493 752.803 172.346C752.046 172.823 751.766 173.501 751.5 174.143C751.421 174.335 751.343 174.523 751.254 174.702C749.621 178.073 747.884 181.352 745.979 184.596C740.645 192.807 736.665 201.822 734.191 211.295C734.056 212.041 733.74 212.743 733.271 213.338C732.802 213.934 732.193 214.405 731.5 214.711C729.821 215.547 728.16 216.446 726.498 217.344C725.944 217.644 725.391 217.943 724.836 218.24C723.897 218.729 723.013 219.125 721.989 218.409C721.479 218.064 720.869 217.9 720.256 217.943C719.642 217.985 719.061 218.231 718.603 218.642C715.863 220.83 713.007 220.232 710.139 219.631C709.488 219.494 708.837 219.358 708.186 219.254C707.605 219.078 707.116 218.683 706.821 218.153C705.223 215.887 705.056 215.852 703.28 217.953C702.024 219.404 700.874 220.944 699.839 222.56C698.04 225.46 696.334 228.413 694.639 231.404C692.243 235.98 688.661 239.827 684.269 242.545C681.354 244.237 678.838 245.347 675.681 243.181C674.188 242.194 673.292 242.989 672.581 244.329C672.36 244.745 672.176 245.185 671.993 245.624C671.587 246.599 671.183 247.568 670.381 248.247C666.58 251.695 663.033 255.413 659.769 259.373C659.113 260.003 658.405 260.577 657.653 261.089C653.874 263.846 650.154 266.824 646.435 269.802C644.19 271.632 643.911 272.658 645.625 275.21C647.339 277.763 648.607 278.057 651.431 276.469C656.01 273.919 660.567 271.344 665.127 268.766L665.13 268.765L665.132 268.763L665.135 268.762L665.137 268.76L665.14 268.759L665.142 268.758L665.166 268.744L665.17 268.742L665.175 268.739L665.18 268.736L665.184 268.734L665.189 268.731C667.716 267.302 670.245 265.873 672.78 264.447C673.78 263.767 674.922 263.326 676.119 263.156C676.986 263.131 677.85 263.074 678.713 263.016C680.16 262.92 681.605 262.824 683.06 262.881C688.25 263.086 693.318 261.274 697.201 257.824C699.039 256.392 700.781 254.84 702.415 253.177C705.915 249.345 710.538 246.719 715.622 245.675C720.383 244.729 724.827 242.598 728.546 239.478C732.672 236.36 737.704 234.678 742.876 234.687C749.563 234.5 756.195 235.947 762.195 238.903C767.371 241.435 772.952 243.039 778.682 243.64C785.639 244.32 792.642 242.94 798.821 239.67C800.661 238.702 800.698 238.097 798.97 236.975C797.738 236.243 796.829 235.07 796.427 233.694C796.31 233.15 795.999 232.667 795.553 232.334C795.107 232.002 794.555 231.843 794.001 231.887C793.939 231.884 793.877 231.881 793.815 231.878C793.719 231.874 793.623 231.87 793.527 231.866L793.297 231.858L792.999 231.847C792.332 231.823 791.665 231.799 790.99 231.742C789.998 231.774 789.019 231.513 788.175 230.993C787.331 230.472 786.659 229.714 786.242 228.814C784.021 223.187 785.115 220.318 789.945 218.231C792.605 217.22 795.514 217.064 798.267 217.785C800.586 218.238 802.721 218.915 804.958 219.623C806.431 220.09 807.949 220.571 809.593 221.011C813.735 222.121 813.826 222.017 813.098 217.972C812.203 213.298 813.768 210.857 818.412 209.851C821.068 209.244 823.797 209.02 826.517 209.185C831.636 209.699 836.726 210.478 841.765 211.519C844.905 212.224 848.119 212.548 851.336 212.482C856.741 211.979 862.132 210.991 867.539 210C868.475 209.828 869.411 209.657 870.349 209.487C872.052 209.19 872.244 208.425 871.041 207.043C870.292 206.236 869.426 205.546 868.472 204.997C867.763 204.614 867.087 204.172 866.453 203.675C865.125 202.565 865.115 201.934 866.282 200.67C867.001 199.959 867.762 199.292 868.56 198.672C871.762 196.137 875.098 193.774 878.553 191.596C880.491 190.306 882.731 189.542 885.053 189.379C889.88 189.191 894.685 188.632 899.426 187.707C900.573 187.537 901.667 187.108 902.624 186.453C903.582 185.799 904.378 184.935 904.952 183.928C905.494 182.99 906.062 182.006 906.697 181.122C908.014 179.382 909.514 179.654 910.613 180.945C911.322 181.779 911.956 182.699 912.585 183.612C912.929 184.112 913.273 184.611 913.626 185.091C915.599 187.574 915.831 187.552 917.541 184.914C917.629 184.735 917.728 184.563 917.839 184.398C918.994 182.939 920.249 183.039 921.067 184.762C921.536 185.871 921.933 187.008 922.257 188.168C922.343 188.653 922.529 189.115 922.804 189.524C923.08 189.932 923.438 190.278 923.855 190.54C924.273 190.802 924.74 190.973 925.228 191.042C925.716 191.112 926.213 191.078 926.687 190.944C927.661 190.709 928.606 190.363 929.501 189.912C935.919 186.726 942.908 184.853 950.059 184.404C950.257 184.438 950.461 184.411 950.644 184.326C950.826 184.242 950.979 184.104 951.082 183.932C951.198 183.286 950.733 182.929 950.307 182.602C950.266 182.57 950.225 182.539 950.185 182.508C949.812 182.307 949.489 182.025 949.239 181.683C948.989 181.341 948.819 180.947 948.742 180.53C948.665 180.114 948.681 179.685 948.792 179.276C948.902 178.867 949.102 178.488 949.379 178.166C950.228 176.75 949.686 175.468 948.319 174.21C947.252 173.281 945.999 172.59 944.645 172.183C942.449 171.424 940.189 170.862 937.894 170.504C937.845 170.493 937.796 170.482 937.745 170.47C937.221 170.354 936.621 170.221 936.744 169.465C936.78 169.21 936.908 168.976 937.103 168.808C937.298 168.639 937.547 168.546 937.805 168.546C939.436 168.442 940.97 167.734 942.108 166.561C944.169 164.745 946.848 163.786 949.593 163.882C951.912 163.772 954.235 163.948 956.511 164.406C960.083 165.143 963.784 164.956 967.263 163.863C969.588 163.197 971.997 162.872 974.415 162.898C975.422 163.023 976.444 162.865 977.366 162.443C978.289 162.021 979.076 161.351 979.64 160.507C979.866 160.107 980.205 159.783 980.614 159.574C981.023 159.366 981.485 159.283 981.941 159.336C986.414 159.312 990.753 160.855 994.207 163.698C994.268 163.756 994.33 163.815 994.393 163.875C994.432 163.914 994.472 163.953 994.512 163.992L994.653 164.13C995.486 164.948 996.397 165.842 997.417 165.77C1000.39 165.519 1001.64 167.413 1002.94 169.395L1003.01 169.502L1003.63 170.169C1005.55 172.031 1007.12 171.652 1008.07 168.98C1008.49 167.647 1008.69 166.255 1008.66 164.857C1008.61 163.816 1008.8 162.776 1009.24 161.829C1009.68 160.883 1010.34 160.058 1011.17 159.429C1013.88 157.165 1016.39 154.689 1018.7 152.023C1021.53 148.58 1025.1 145.821 1029.14 143.954C1029.21 143.935 1029.25 143.794 1029.3 143.613L1029.32 143.538L1029.34 143.48C1029.34 143.459 1029.35 143.438 1029.36 143.416L1029.36 143.39L1029.37 143.358L1029.38 143.327C1029.39 143.315 1029.39 143.303 1029.4 143.291C1028.27 142.328 1026.95 141.627 1025.52 141.239C1023.57 140.455 1021.56 139.764 1019.55 139.074C1018.33 138.649 1018.26 137.953 1019 137.04C1019.68 136.286 1020.5 135.686 1021.43 135.281C1022.35 134.876 1023.35 134.676 1024.36 134.694C1025.98 134.532 1027.6 134.467 1029.22 134.5C1030.99 134.559 1032.75 134.154 1034.31 133.325C1035.88 132.495 1037.2 131.271 1038.14 129.773C1038.76 128.783 1039.61 127.961 1040.63 127.379C1041.64 126.797 1042.78 126.473 1043.94 126.435C1044.86 126.466 1045.77 126.182 1046.51 125.632C1047.24 125.081 1047.77 124.295 1048.01 123.404C1048.2 122.666 1048.6 122.001 1049.17 121.495C1049.74 120.989 1050.45 120.665 1051.21 120.565L1054.13 119.782C1058.03 118.823 1061.98 118.068 1065.97 117.522C1072.2 115.514 1078.67 114.341 1085.2 114.032C1086.53 114.061 1087.85 113.729 1089 113.07C1090.16 112.411 1091.12 111.45 1091.77 110.291C1092.54 108.991 1093.45 107.777 1094.49 106.67C1095.39 105.754 1095.13 105.071 1093.96 104.71L1093.3 104.52C1090.6 103.741 1087.93 102.969 1085.17 102.388C1083.95 102.053 1082.67 102.049 1081.45 102.377C1080.22 102.704 1079.11 103.351 1078.22 104.251C1077.23 105.386 1076.05 106.356 1074.75 107.123C1074.06 107.608 1073.24 107.869 1072.39 107.868C1071.55 107.867 1070.73 107.605 1070.04 107.119C1070.56 106.19 1071.39 105.466 1072.38 105.064C1072.7 104.854 1073.02 104.646 1073.34 104.44C1073.51 104.324 1073.69 104.21 1073.87 104.095L1074.35 103.786C1074.59 103.632 1074.82 103.478 1075.06 103.325L1075.07 103.323C1077.67 101.645 1080.2 100.021 1082.65 98.1501C1086.86 95.0477 1091.89 93.246 1097.11 92.9671C1100.21 92.6921 1103.33 92.3333 1106.41 91.8635C1107.73 91.7693 1108.99 91.2662 1110.02 90.4238C1111.04 89.5814 1111.78 88.4414 1112.12 87.1618C1112.55 85.4481 1113.44 83.8833 1114.69 82.6342C1115.94 81.3851 1117.51 80.4986 1119.22 80.0692C1123.29 78.5668 1127.18 76.6074 1130.81 74.2287C1131.49 73.796 1132.13 73.3069 1132.72 72.7667C1133.23 72.3124 1133.47 71.7326 1132.72 71.2995C1131.26 70.1289 1129.53 69.3342 1127.69 68.9848C1125.85 68.6354 1123.95 68.7419 1122.16 69.2952C1121.63 69.5922 1121.05 69.7727 1120.45 69.8245C1119.85 69.8763 1119.24 69.7981 1118.67 69.5953C1119.84 68.2535 1121.17 67.0698 1122.64 66.0743C1127.91 62.3675 1132.91 58.2866 1137.6 53.8631C1140.1 51.5971 1142.06 48.7967 1143.33 45.6699C1143.52 44.8703 1143.99 44.1666 1144.66 43.6883C1147.5 41.14 1150.91 39.3036 1154.6 38.3306C1156.27 37.9615 1157.89 37.4079 1159.43 36.6801C1159.73 36.6254 1160 36.4624 1160.19 36.2217C1160.39 35.9809 1160.48 35.6789 1160.47 35.3721C1158.57 34.6106 1156.79 33.6109 1155.15 32.3973C1155.87 31.2634 1156.92 30.3845 1158.16 29.8859C1161.31 28.2693 1164.08 26.0154 1166.3 23.268C1168.11 21.0616 1170.63 19.5366 1173.42 18.9419C1173.5 18.9198 1173.59 18.9022 1173.68 18.8867C1173.76 18.8728 1173.84 18.8605 1173.92 18.8482C1174.52 18.7581 1175.14 18.6635 1175.39 17.8595C1175.11 17.2573 1174.64 16.9424 1174.14 16.6095C1173.82 16.3974 1173.49 16.1779 1173.19 15.8722C1173.05 15.7266 1172.91 15.5814 1172.76 15.4359L1172.74 15.4157C1172.12 14.7819 1171.49 14.1403 1170.91 13.4314C1168.94 10.9483 1168.91 10.8373 1170.52 8.10822C1170.82 7.64523 1171.15 7.13188 1171.47 6.60673C1171.72 6.21147 1171.96 5.80956 1172.2 5.41734L1172.2 5.40944C1172.67 4.64536 1173.11 3.91864 1173.48 3.35066C1173.6 3.17692 1173.7 2.99741 1173.81 2.81499C1173.85 2.74552 1173.88 2.67561 1173.92 2.60537C1173.98 2.49686 1174.04 2.38773 1174.1 2.27855ZM429.311 55.8053C430.291 56.6524 430.63 57.4731 429.759 58.6577C428.656 60.2104 427.412 61.6581 426.043 62.9822C420.821 67.382 416.88 73.1059 414.632 79.5535C414.273 81.2317 413.521 82.8008 412.438 84.1315C411.354 85.4621 409.97 86.5164 408.4 87.2074C406.297 88.0877 406.155 89.0373 406.728 91.6183C407.6 94.8721 407.334 95.0622 404.017 94.3659C403.458 94.2515 402.899 94.1237 402.341 93.9959C401.225 93.7402 400.108 93.4845 398.985 93.3363C396.667 92.9667 395.644 93.4389 395.077 95.6119C394.711 97.343 393.918 98.9548 392.77 100.301C391.622 101.647 390.155 102.684 388.503 103.318C387.713 103.722 387.038 104.32 386.542 105.056C386.046 105.792 385.746 106.642 385.667 107.525C385.283 109.491 384.945 111.484 384.691 113.494C384.64 115.009 384.163 116.48 383.316 117.737C382.468 118.994 381.284 119.988 379.898 120.604C378.126 121.585 376.538 122.868 375.208 124.397C374.385 125.282 373.363 125.959 372.228 126.374C371.092 126.788 369.874 126.928 368.674 126.781C367.446 126.635 366.238 126.562 365.039 126.527C363.764 126.387 362.481 126.723 361.438 127.47C360.395 128.218 359.665 129.324 359.388 130.577L359.27 130.944C359.214 131.116 359.159 131.288 359.103 131.461L358.907 132.065L358.907 132.066L358.905 132.071L358.905 132.072C358.231 134.15 357.549 136.255 356.993 138.352C356.049 142.523 353.702 146.243 350.345 148.892C344.018 153.626 339.199 160.093 336.47 167.51C335.742 169.46 334.568 171.213 333.04 172.627C331.513 174.041 329.675 175.077 327.675 175.653C327.096 175.808 326.525 176.047 325.956 176.286L325.956 176.286C325.581 176.443 325.207 176.6 324.833 176.731C321.476 177.846 318.568 180.015 316.543 182.916C315.929 183.825 315.259 184.703 314.588 185.584L314.587 185.585C313.615 186.86 312.639 188.14 311.817 189.532C311.434 190.358 310.849 191.074 310.116 191.613C307.904 193.37 306.049 195.535 304.652 197.991C304.303 198.424 304.078 198.944 304.002 199.495C303.927 200.046 304.002 200.607 304.221 201.118C304.725 202.551 305.007 204.052 305.058 205.57C305.195 207.372 304.689 209.165 303.632 210.631C302.574 212.097 301.031 213.141 299.278 213.578C297.266 213.755 295.379 214.624 293.937 216.037C292.494 217.449 291.586 219.318 291.367 221.325C290.89 223.539 289.802 225.575 288.225 227.2C286.688 229.221 285.021 231.128 283.356 233.033C281.371 235.304 279.389 237.572 277.633 240.025C276.65 241.181 275.452 242.134 274.105 242.833C272.224 243.925 270.852 245.718 270.289 247.818C269.621 250.165 268.262 252.255 266.388 253.817C265.278 254.701 264.427 255.868 263.924 257.196C263.422 258.523 263.287 259.961 263.534 261.359C263.676 262.966 263.724 264.581 263.681 266.194C263.76 266.908 263.614 267.629 263.263 268.256C262.912 268.883 262.374 269.384 261.725 269.69C257.473 272.171 253.356 274.875 249.39 277.79C249.144 277.856 248.924 278.021 248.704 278.186L248.703 278.186L248.654 278.223L248.6 278.263C248.561 278.292 248.521 278.32 248.482 278.347C248.445 278.373 248.408 278.397 248.37 278.42C248.123 278.596 247.827 278.692 247.524 278.695C247.22 278.699 246.923 278.609 246.672 278.44C246.516 278.352 246.38 278.234 246.271 278.094C246.161 277.953 246.082 277.791 246.035 277.619C245.989 277.447 245.978 277.267 246.002 277.091C246.026 276.914 246.085 276.744 246.176 276.591C246.912 275.046 247.684 273.492 248.513 272.002C250.051 269.742 251.068 267.169 251.488 264.468C252.028 262.203 253.111 260.104 254.644 258.351C256.591 255.412 258.632 252.527 260.786 249.77C262.163 248.025 263.108 245.979 263.545 243.8C263.811 242.596 264.066 241.396 264.32 240.196C264.955 237.195 265.591 234.194 266.415 231.142C267.61 227.071 269.633 223.291 272.357 220.039C276.499 214.71 281.349 209.97 286.772 205.952C287.652 205.342 288.38 204.538 288.898 203.602C289.417 202.666 289.714 201.622 289.764 200.553C290.327 195.815 292.679 191.471 296.338 188.409C297.474 187.296 298.632 186.204 299.791 185.111L299.797 185.105C302.669 182.396 305.543 179.685 308.091 176.66C311.673 172.748 314.189 167.979 315.397 162.813C315.737 161.027 316.445 159.331 317.477 157.833C318.508 156.335 319.841 155.069 321.389 154.114C323.736 152.57 325.733 150.55 327.25 148.185C329.69 144.718 332.586 141.597 335.859 138.903C338.758 136.392 341.144 133.344 342.886 129.926C343.547 128.804 344.135 127.64 344.647 126.443C348.4 117.925 354.885 110.902 363.077 106.485C363.223 106.4 363.369 106.312 363.516 106.222L363.603 106.17L363.758 106.074L363.76 106.073C364.297 105.745 364.845 105.409 365.413 105.146C370.477 102.584 374.816 98.7914 378.032 94.1159C381.351 89.3773 385.739 85.4864 390.841 82.758C394.343 80.9447 397.349 78.3026 399.597 75.0617C403.302 69.8918 408.325 65.809 414.143 63.2381C415.664 62.6382 416.91 61.5002 417.646 60.0408C417.971 59.4062 418.377 58.8186 418.793 58.2181C419.009 57.9057 419.227 57.5899 419.438 57.2622L429.311 55.8053ZM408.726 471.923C410.382 472.855 411.93 473.969 413.341 475.243C415.137 476.726 417.189 477.868 419.396 478.614C420.698 479.127 422.139 479.169 423.469 478.733C424.799 478.297 425.935 477.41 426.682 476.226C428.202 473.974 429.399 471.518 430.236 468.933C431.403 465.716 432.835 462.602 434.518 459.622C435.602 457.652 437.296 456.086 439.345 455.158C440.942 454.537 442.394 453.594 443.612 452.388C444.829 451.183 445.786 449.74 446.424 448.149C446.623 447.487 446.956 446.872 447.402 446.344C447.849 445.815 448.399 445.384 449.018 445.076C449.638 444.769 450.315 444.592 451.006 444.557C451.697 444.522 452.388 444.629 453.035 444.872C455.489 445.447 457.841 446.394 460.01 447.679C460.637 448 461.259 448.331 461.88 448.662C463.123 449.324 464.366 449.986 465.657 450.565C467.467 451.502 469.531 451.828 471.542 451.497C473.552 451.165 475.402 450.193 476.815 448.724C477.853 447.779 478.826 446.763 479.726 445.686C482.08 442.645 484.926 440.021 488.147 437.921C490.59 436.455 492.373 434.103 493.125 431.356C493.816 428.91 495.148 426.692 496.982 424.933C498.817 423.173 501.088 421.935 503.561 421.347C505.999 420.562 508.509 420.022 511.055 419.735C515.177 419.3 519.314 418.791 523.421 418.286L524.232 418.186C526.248 417.963 528.218 417.435 530.074 416.62C532.125 415.753 533.835 414.237 534.942 412.304C535.422 411.492 535.938 410.687 536.455 409.882C537.315 408.54 538.175 407.198 538.872 405.822C541.081 401.823 544.56 398.674 548.758 396.872C549.399 396.7 549.995 396.413 550.593 396.125C550.996 395.931 551.4 395.736 551.82 395.576C552.558 395.4 553.198 394.942 553.604 394.3C554.009 393.659 554.148 392.884 553.99 392.141C553.836 391.495 553.827 390.824 553.962 390.174C554.098 389.524 554.375 388.912 554.774 388.381C555.173 387.85 555.684 387.414 556.27 387.103C556.857 386.793 557.505 386.615 558.168 386.583C559.842 386.234 561.547 386.056 563.257 386.052C563.806 386.136 564.367 386.004 564.82 385.683C565.274 385.362 565.585 384.877 565.688 384.33C565.974 383.414 566.449 382.568 567.081 381.846C567.713 381.124 568.489 380.541 569.36 380.137C570.065 379.701 570.797 379.297 571.534 378.889L571.537 378.888L571.537 378.887L571.538 378.887C571.866 378.705 572.195 378.523 572.524 378.338C573.29 377.949 573.967 377.405 574.512 376.74C575.058 376.076 575.459 375.305 575.69 374.478C576.071 372.957 576.78 371.538 577.769 370.321C578.758 369.105 580.002 368.12 581.412 367.436C582.388 366.937 583.391 366.39 584.31 365.827C586.859 364.132 589.898 363.328 592.953 363.542C596.007 363.756 598.904 364.976 601.192 367.01C603.718 369.101 606.368 371.038 609.127 372.81C610.758 373.986 612.601 374.838 614.554 375.319C614.635 374.987 614.631 374.641 614.543 374.311C614.455 373.981 614.285 373.679 614.049 373.433L614.02 373.375C612.75 370.807 612.715 370.735 615.45 369.491C622.744 366.269 629.634 362.201 635.98 357.372C637.439 356.288 639.125 355.552 640.911 355.218C641.626 355.027 642.347 354.864 643.069 354.702L643.071 354.701C644.516 354.375 645.962 354.05 647.345 353.494C650.821 352.563 651.855 351.097 651.853 347.689C651.75 346.772 651.983 345.848 652.508 345.089C653.032 344.329 653.814 343.785 654.708 343.556C657.608 342.499 660.036 340.443 661.556 337.758C664.922 333.626 668.583 329.744 672.513 326.143C673.278 325.39 674.245 324.872 675.297 324.654C676.349 324.435 677.441 324.524 678.444 324.911C680.983 325.619 683.263 327.044 685.013 329.016C685.549 329.636 686.076 330.262 686.603 330.889L686.608 330.895L686.613 330.901L686.618 330.907C687.836 332.355 689.056 333.804 690.39 335.184C691.808 336.794 693.737 337.864 695.853 338.214C697.969 338.565 700.141 338.173 702.002 337.105C703.242 336.638 704.309 335.801 705.057 334.707C705.806 333.613 706.201 332.316 706.188 330.99C706.104 328.754 707.28 327.963 708.968 327.313C709.807 326.935 710.747 326.845 711.642 327.056C712.537 327.268 713.337 327.77 713.918 328.483C714.991 329.824 715.87 331.31 716.527 332.896C717.98 335.718 717.996 335.715 720.836 335.026L721.047 334.974L728.442 332.993C729.218 332.788 729.936 332.404 730.536 331.871C731.137 331.339 731.604 330.672 731.9 329.926C734.232 325.102 737.644 320.879 741.87 317.585C742.752 316.684 743.814 315.978 744.986 315.514C746.159 315.049 747.416 314.837 748.677 314.89C749.484 315.007 750.307 314.813 750.976 314.346C751.646 313.88 752.114 313.176 752.284 312.378C752.416 311.527 752.716 310.711 753.164 309.976C753.613 309.241 754.202 308.601 754.899 308.095C755.595 307.588 756.384 307.223 757.222 307.022C758.059 306.821 758.928 306.787 759.778 306.922C762.506 306.965 765.21 307.43 767.796 308.3C768.017 308.363 768.238 308.424 768.459 308.485L768.46 308.485L768.461 308.486L768.462 308.486C769.608 308.803 770.744 309.118 771.856 309.551C777.001 311.274 782.565 311.284 787.716 309.581C791.754 308.298 795.929 307.498 800.155 307.199C800.356 307.187 800.561 307.169 800.767 307.15C802.124 307.027 803.556 306.898 804.487 308.575C804.689 309.329 805.413 309.073 805.993 308.867L806 308.864C806.039 308.85 806.078 308.837 806.116 308.823L806.163 308.807C806.231 308.784 806.296 308.764 806.356 308.747L825.029 303.744L834.975 301.079C837.637 300.366 839.349 301.135 840.165 303.295C840.451 303.811 840.613 304.387 840.639 304.977C840.665 305.567 840.554 306.155 840.315 306.695C840.076 307.235 839.715 307.712 839.261 308.09C838.806 308.467 838.271 308.734 837.697 308.87C833.822 310.384 829.955 311.777 826.031 313.106C822.468 314.214 819.102 315.878 816.058 318.037C811.608 321.192 806.588 323.452 801.276 324.692C799.243 325.237 797.209 325.782 795.274 326.697C791.764 328.009 788.653 330.208 786.245 333.079C786.05 333.308 785.855 333.537 785.66 333.766L785.655 333.772L785.649 333.779L785.583 333.856L785.583 333.857L785.582 333.857L785.582 333.858C783.97 335.752 782.369 337.632 780.66 339.45C779.233 341.236 777.304 342.556 775.122 343.239C772.94 343.923 770.604 343.939 768.412 343.287C764.405 342.16 760.153 342.251 756.197 343.548C750.998 345.179 745.641 346.255 740.215 346.76C738.007 346.995 735.849 347.573 733.819 348.474C726.13 351.723 718.421 354.951 710.694 358.158C710.02 358.348 709.411 358.719 708.933 359.232C708.455 359.744 708.128 360.377 707.985 361.063C707.468 363.025 706.469 364.827 705.08 366.306C703.692 367.785 701.956 368.895 700.031 369.535C694.757 371.595 689.131 372.605 683.469 372.507C679.733 372.355 676.02 373.159 672.682 374.842C671.623 375.417 670.527 375.923 669.402 376.355C665.666 377.66 662.337 379.918 659.744 382.906C658.798 383.961 657.71 384.879 656.512 385.635C656.289 385.745 656.091 385.9 655.931 386.09C655.771 386.28 655.653 386.502 655.582 386.74C655.512 386.979 655.492 387.229 655.524 387.476C655.555 387.722 655.638 387.96 655.765 388.173C656.569 390.137 657.326 392.074 658.019 394.068C658.405 395.51 658.024 396.009 656.588 395.68C655.783 395.496 654.968 395.227 654.159 394.96C653.525 394.751 652.895 394.543 652.276 394.378C649.405 393.721 648.705 394.067 647.87 396.867C647.413 398.093 646.508 399.101 645.336 399.686C644.178 400.199 643.155 400.976 642.351 401.956C641.547 402.935 640.983 404.089 640.705 405.325C640.616 405.779 640.377 406.19 640.027 406.492C639.677 406.794 639.236 406.97 638.774 406.992C636.279 407.558 633.833 408.32 631.458 409.269C628.74 410.371 625.77 410.701 622.876 410.222C621.823 409.989 621.12 410.177 620.796 411.334C620.639 411.876 620.357 412.374 619.972 412.787C619.587 413.2 619.11 413.516 618.58 413.711C615.059 415.437 611.117 416.122 607.22 415.685C605.035 415.26 602.812 414.877 600.593 414.495L600.592 414.495L600.591 414.495L600.591 414.494C599.329 414.277 598.069 414.06 596.817 413.836C595.115 413.539 593.362 413.827 591.845 414.653C587.584 416.944 583.304 419.161 578.986 421.387C577.669 422.115 576.586 423.202 575.863 424.523C572.882 429.921 569.113 434.845 564.679 439.131C562.519 441.416 559.646 442.899 556.532 443.335C556.418 443.366 556.284 443.386 556.15 443.406C555.718 443.47 555.269 443.538 555.354 443.968C555.819 445.701 554.702 446.044 553.533 446.404C553.33 446.466 553.126 446.529 552.928 446.599C552.351 446.824 551.884 447.266 551.628 447.831C551.372 448.396 551.347 449.038 551.559 449.621C551.777 450.32 551.827 451.061 551.703 451.783C551.58 452.505 551.287 453.188 550.849 453.775C550.162 455.242 549.766 456.828 549.683 458.446C549.021 461.596 547.775 463.158 544.73 463.181C542.587 463.202 540.466 463.437 538.348 463.671L538.347 463.671C535.466 463.99 532.59 464.309 529.675 464.085C527.044 463.878 524.459 463.699 521.838 463.529C519.133 463.155 516.378 463.403 513.783 464.256C511.189 465.11 508.824 466.545 506.869 468.452C505.531 469.947 503.861 471.108 501.993 471.842C500.126 472.577 498.112 472.864 496.114 472.681C494.494 472.644 492.876 472.824 491.304 473.217C487.791 474.158 486.876 476.068 488.527 479.271C488.641 479.698 488.918 480.064 489.198 480.434C489.355 480.642 489.513 480.851 489.644 481.072C490.867 483.123 490.397 483.883 488.185 484.356C487.099 484.574 485.991 484.658 484.884 484.607C483.275 484.633 481.667 484.521 480.078 484.27C474.78 483.43 471.352 486.608 467.96 489.775C467.607 490.132 467.316 490.545 467.099 490.997C466.898 491.262 466.761 491.569 466.697 491.895C466.633 492.222 466.645 492.558 466.731 492.879C466.817 493.2 466.975 493.497 467.193 493.748C467.411 493.998 467.684 494.196 467.99 494.325C468.47 494.629 468.973 494.905 469.476 495.181L469.477 495.181L469.477 495.181L469.477 495.181L469.477 495.182C470.125 495.537 470.773 495.892 471.376 496.311C472.488 496.874 473.464 497.674 474.235 498.654C475.006 499.633 475.555 500.769 475.842 501.982C476.13 503.196 476.149 504.457 475.899 505.679C475.649 506.9 475.135 508.052 474.394 509.055C472.094 512.642 468.937 515.599 465.207 517.659C464.102 518.378 462.814 518.765 461.496 518.774C460.178 518.783 458.885 518.414 457.77 517.71C456.831 517.153 455.92 516.572 455.011 515.993C453.96 515.323 452.912 514.655 451.831 514.031C449.761 512.431 447.177 511.645 444.566 511.818C441.956 511.992 439.499 513.115 437.659 514.975C437.089 515.378 436.545 515.815 436.028 516.284C431.83 520.68 426.569 523.919 420.754 525.687C419.132 526.235 417.57 526.945 416.091 527.808C414.165 528.815 412.481 530.23 411.157 531.953C409.832 533.677 408.899 535.668 408.422 537.789L407.001 543.282C406.567 545.039 405.818 546.704 404.79 548.194C404.26 549.057 403.535 549.785 402.673 550.318C401.812 550.852 400.837 551.177 399.828 551.267C398.243 551.415 396.64 551.646 395.048 551.914C389.457 552.92 384.29 555.559 380.198 559.499C377.984 561.753 376.501 564.623 375.945 567.733C375.755 568.473 375.58 569.231 375.406 569.986C375.1 571.314 374.795 572.636 374.413 573.85C374.017 575.7 373.004 577.362 371.539 578.561C370.074 579.76 368.246 580.425 366.353 580.448C363.642 580.645 360.916 580.441 358.264 579.841C357.307 579.492 356.282 579.366 355.268 579.473C354.254 579.579 353.278 579.916 352.414 580.457C351.55 580.998 350.821 581.729 350.282 582.595C349.744 583.46 349.41 584.437 349.306 585.452C348.563 588.626 346.593 591.377 343.826 593.102C342.911 593.715 341.917 594.335 340.961 594.932C340.268 595.365 339.595 595.786 338.985 596.183C336.862 597.361 334.923 598.841 333.227 600.579C330.665 603.448 327.455 605.667 323.865 607.05C316.541 609.965 310.007 614.567 304.796 620.482C303.207 622.173 301.496 623.744 299.675 625.183C296.746 627.708 293.1 629.253 289.248 629.602C288.531 629.668 287.815 629.767 287.095 629.867C286.221 629.987 285.342 630.109 284.448 630.175C282.839 630.305 281.289 630.839 279.94 631.726C278.592 632.614 277.489 633.827 276.733 635.253C276.302 635.94 276.062 636.729 276.038 637.54C275.933 638.496 275.568 639.406 274.984 640.17C274.399 640.934 273.617 641.524 272.722 641.876C270.916 642.774 269.006 643.446 267.036 643.875C265.674 644.135 264.378 644.663 263.222 645.429C262.067 646.194 261.075 647.182 260.305 648.334C259.051 650.162 257.98 652.108 257.106 654.145C254.917 659.427 250.895 663.742 245.778 666.295C244.898 666.724 244.06 667.239 243.216 667.757L243.215 667.758L243.213 667.759C242.847 667.983 242.481 668.208 242.109 668.427C239.26 669.99 236.983 672.419 235.605 675.362C234.894 677.26 233.62 678.896 231.954 680.051C230.287 681.206 228.308 681.824 226.28 681.823C224.966 681.912 223.694 682.328 222.582 683.035C221.47 683.741 220.552 684.715 219.913 685.867C218.703 687.856 217.539 689.872 216.422 691.915C214.449 695.689 211.381 698.776 207.62 700.773C207.113 701.042 206.618 701.308 206.127 701.573C204.868 702.25 203.63 702.915 202.272 703.593C199.461 704.968 196.817 706.66 194.39 708.637C191.308 711.298 187.94 713.609 184.348 715.529C178.604 718.881 173.317 722.962 168.619 727.669C166.269 729.845 163.882 732.03 161.429 734.114C161.07 734.47 160.643 734.752 160.175 734.943C159.706 735.134 159.204 735.23 158.698 735.225C158.192 735.221 157.691 735.116 157.226 734.917C156.761 734.718 156.34 734.429 155.987 734.066C155.574 733.741 155.232 733.334 154.983 732.872C154.734 732.409 154.583 731.9 154.54 731.376C154.496 730.853 154.561 730.326 154.73 729.828C154.898 729.33 155.168 728.873 155.521 728.484C157.27 726.43 159.102 724.394 160.991 722.422C163.359 720.085 165.199 717.268 166.386 714.16C168.783 707.522 172.565 701.47 177.48 696.405C178.242 695.599 178.954 694.747 179.61 693.853C185.088 686.639 190.763 679.57 196.947 672.92C199.615 670.019 201.749 666.67 203.252 663.027C205.661 657.23 209.558 655.948 214.777 659.305C215.23 659.63 215.765 659.82 216.321 659.853C216.877 659.887 217.431 659.762 217.919 659.493C220.368 658.363 222.642 656.887 224.67 655.108C230.308 649.349 235.168 642.878 239.129 635.858C239.563 635.176 239.997 634.495 240.431 633.813C243.949 628.281 247.457 622.766 251.411 617.508C253.16 615.155 254.491 612.52 255.347 609.716C257.254 603.236 260.816 597.365 265.683 592.68C267.51 590.654 268.978 588.33 270.024 585.81C270.424 585.04 270.829 584.268 271.236 583.495L271.237 583.493L271.238 583.491L271.238 583.49C272.24 581.586 273.244 579.674 274.169 577.764C274.286 577.42 274.473 577.103 274.718 576.833C274.963 576.564 275.261 576.349 275.593 576.2C275.925 576.051 276.285 575.973 276.649 575.97C277.013 575.967 277.373 576.039 277.708 576.182C280.755 576.923 283.856 577.417 286.981 577.66C289.253 577.86 291.54 577.528 293.661 576.692C295.782 575.855 297.68 574.536 299.203 572.84C300.526 571.416 301.644 570.561 303.529 571.681C303.924 571.909 304.387 571.992 304.837 571.915C305.287 571.838 305.696 571.606 305.992 571.259C307.721 569.725 309.507 568.256 311.33 566.777C312.1 566.12 312.706 565.293 313.1 564.361C314.43 561.544 316.548 559.174 319.197 557.536C319.291 557.493 319.391 557.466 319.493 557.456C325.184 554.326 329.789 549.54 332.698 543.733C334.595 540.272 337.321 537.335 340.633 535.187C343.576 533.413 346.2 531.156 348.394 528.51C349.303 527.316 350.198 527.552 351.239 528.184C352.027 528.686 352.82 529.17 353.612 529.652L353.613 529.652L353.613 529.652L353.615 529.653C354.889 530.429 356.158 531.202 357.386 532.045C357.887 532.462 358.515 532.696 359.167 532.709C359.818 532.722 360.455 532.512 360.972 532.115C363.273 530.554 365.686 529.144 368.072 527.749L368.072 527.748L368.425 527.542C372.138 525.257 375.237 522.1 377.454 518.346C377.726 517.893 378.007 517.442 378.289 516.989C378.86 516.073 379.435 515.15 379.946 514.191C382.736 509.263 386.697 505.098 391.479 502.065C396.037 499.275 400.342 496.093 404.347 492.554C406.711 490.268 408.396 487.372 409.214 484.187C410.033 481.001 409.953 477.651 408.983 474.509C408.627 473.695 408.537 472.79 408.726 471.923ZM624.057 514.606C623.635 515.971 623.666 517.437 624.146 518.783C625.275 518.59 625.89 517.832 626.512 517.066C626.788 516.726 627.064 516.385 627.388 516.091C628.092 515.109 629.001 514.291 630.052 513.695C631.103 513.098 632.272 512.737 633.476 512.637C634.332 512.725 635.108 512.517 635.885 512.309C637.295 512.217 638.667 511.813 639.902 511.125C641.136 510.438 642.202 509.485 643.023 508.335C643.743 507.331 644.823 506.644 646.037 506.418L660.546 502.293C661.596 501.917 662.745 501.917 663.795 502.294C664.759 502.618 665.782 502.727 666.792 502.614C667.802 502.5 668.776 502.168 669.644 501.638C670.451 501.22 671.234 500.757 672.019 500.294C672.62 499.939 673.223 499.583 673.837 499.246L673.884 499.22L673.936 499.189C674.425 498.904 674.958 498.593 675.497 499.079C675.695 499.31 675.84 499.583 675.919 499.878C675.997 500.172 676.009 500.48 675.952 500.78C675.898 501.177 675.763 501.559 675.555 501.901C675.346 502.243 675.069 502.539 674.742 502.769C674.172 503.19 673.634 503.653 673.131 504.152C672.32 505.122 671.53 506.166 672.267 507.435C672.843 508.428 673.76 508.067 674.593 507.74C674.824 507.649 675.049 507.561 675.258 507.505C677.91 506.583 680.217 504.872 681.87 502.603C684.92 498.788 689.203 496.156 693.983 495.156C697.056 494.553 699.997 493.403 702.663 491.76C703.214 491.372 703.853 491.125 704.522 491.043C705.191 490.96 705.87 491.044 706.499 491.287C708.523 491.985 710.733 491.915 712.708 491.09C713.723 490.659 714.793 490.372 715.888 490.238L715.931 490.235L716.02 490.23C716.711 490.189 717.336 490.152 717.657 491.072C717.998 492.05 717.148 492.278 716.482 492.456C714.609 492.932 712.936 493.991 711.705 495.48L711.657 495.546L711.617 495.601L711.553 495.688C710.815 496.7 710.066 497.728 710.688 499.081C711.293 500.397 712.626 500.272 713.825 500.159C713.945 500.148 714.063 500.137 714.178 500.128C715.177 500.053 716.167 499.881 717.132 499.614C719.292 499.075 721.412 498.388 723.476 497.557C728.282 495.319 733.26 493.468 738.361 492.023C740.789 491.116 743.147 490.033 745.419 488.785C747.522 487.785 749.79 487.177 752.111 486.991C753.013 486.904 753.923 486.994 754.789 487.259C755.655 487.523 756.461 487.955 757.16 488.531C758.535 489.669 758.63 490.317 757.709 491.911C757.048 492.921 756.514 494.009 756.12 495.151C755.378 497.41 756.062 498.337 758.392 497.713C760.553 497.186 762.605 496.288 764.457 495.057C765.133 494.666 765.802 494.263 766.47 493.861L766.472 493.861L766.473 493.86C768.076 492.895 769.673 491.934 771.337 491.153C772.421 490.499 773.657 490.141 774.923 490.115C776.188 490.089 777.439 490.395 778.549 491.004C781.204 492.63 781.907 492.442 783.854 490.097C784.26 489.641 784.633 489.157 784.972 488.649C785.698 487.454 786.811 486.544 788.125 486.069C789.44 485.595 790.877 485.584 792.199 486.039C794.526 486.665 796.935 486.928 799.343 486.819C801.102 486.771 803.251 486.919 804.667 487.016L804.787 487.025C806.2 487.121 806.871 487.259 806.319 489.19C805.766 491.122 805.345 493.097 804.923 495.073C804.501 498.096 803.029 500.875 800.765 502.924C799.669 503.994 798.919 505.368 798.612 506.869C798.648 507.001 798.645 507.146 798.643 507.296L798.643 507.297C798.637 507.61 798.632 507.942 798.969 508.2C799.197 508.309 799.45 508.356 799.702 508.337C799.954 508.318 800.197 508.234 800.406 508.092C801.745 507.387 803.007 506.544 804.171 505.578C807.755 502.788 811.784 500.623 816.088 499.175C821.395 497.579 826.318 494.911 830.553 491.336C834.792 487.783 836.777 488.241 839.387 493.249L842.213 498.912C842.934 500.479 843.933 501.903 845.162 503.115C846.542 504.568 847.674 504.502 849.067 502.9C849.657 502.241 850.204 501.557 850.752 500.873C851.026 500.531 851.3 500.189 851.579 499.85C851.964 499.284 852.493 498.833 853.112 498.541C853.731 498.25 854.417 498.13 855.098 498.193C857.324 498.276 859.542 497.871 861.596 497.007C866.57 495.369 871.749 494.435 876.982 494.232C880.443 494.137 881.311 495.45 880.242 498.708C879.551 500.507 878.313 502.044 876.704 503.104C875.388 503.913 874.326 505.077 873.64 506.461C872.925 508.08 873.251 508.706 875.009 508.908C877.855 509.471 880.805 509.122 883.441 507.911C886.076 506.7 888.262 504.688 889.688 502.161C890.339 501.08 890.888 499.94 891.446 498.785C891.545 498.577 891.646 498.37 891.747 498.162C892.501 496.429 893.376 494.752 894.364 493.141C895.052 491.931 896.058 490.931 897.272 490.25C898.486 489.569 899.862 489.231 901.254 489.274C903.241 489.296 905.258 489.429 907.275 489.562L907.276 489.562C909.712 489.762 912.143 489.111 914.153 487.72C917.077 485.47 917.077 485.47 918.807 488.969L919.373 490.046C919.748 491.186 920.504 492.161 921.515 492.808C922.526 493.454 923.729 493.731 924.921 493.593C927.09 493.408 927.772 494.176 928.152 496.333C928.453 498.441 928.087 500.59 927.104 502.479C925.928 504.825 924.535 507.055 922.944 509.142C922.924 509.17 922.904 509.199 922.883 509.227C922.857 509.262 922.832 509.297 922.806 509.331C922.48 509.769 922.126 510.245 922.508 510.765C922.945 511.361 923.758 511.143 924.424 510.965C926.411 510.226 928.209 509.054 929.686 507.533C932.338 505.023 935.637 503.302 939.213 502.563L942.726 501.622C944.619 501.169 946.4 500.337 947.962 499.176C949.524 498.015 950.834 496.549 951.814 494.867C952.112 494.35 952.451 493.846 952.791 493.34L952.792 493.339L952.792 493.338C953.069 492.927 953.347 492.513 953.606 492.089C954.3 490.73 955.415 489.632 956.784 488.958C958.153 488.284 959.703 488.071 961.203 488.349C963.021 488.583 964.868 488.36 966.578 487.701C969.235 486.733 972.073 486.365 974.889 486.624C976.641 486.954 978.453 486.704 980.05 485.912C981.647 485.119 982.942 483.827 983.738 482.231C984.314 481.126 985.176 480.499 986.459 481.146C987.089 481.383 987.762 481.489 988.435 481.459C989.108 481.428 989.768 481.261 990.374 480.968C991.834 480.572 993.217 479.933 994.465 479.08C995.419 478.349 996.129 478.634 996.729 479.543C997.354 480.449 997.913 481.398 998.402 482.384C999.457 484.563 1000.09 486.921 1000.26 489.335C1000.3 490.793 1000.98 491.125 1002.18 490.287C1003.15 489.559 1003.94 488.63 1004.51 487.565C1005.94 485.08 1007.26 482.625 1008.58 480.133C1008.87 479.374 1009.38 478.717 1010.04 478.238C1010.7 477.759 1011.48 477.48 1012.29 477.433C1012.86 477.464 1013.42 477.277 1013.85 476.91C1014.28 476.544 1014.56 476.026 1014.62 475.463C1014.78 474.517 1015.29 473.667 1016.06 473.082C1016.82 472.496 1017.77 472.218 1018.73 472.302C1021.06 472.261 1023.34 471.651 1025.38 470.524C1027.42 469.397 1029.15 467.788 1030.43 465.837C1032.64 463.189 1035.7 461.389 1039.09 460.742C1039.85 460.46 1040.5 460.524 1040.74 461.448C1042.06 464.716 1042.75 468.199 1042.78 471.721C1042.3 475.222 1041.6 478.692 1040.69 482.109C1040.26 483.089 1040.13 484.171 1040.3 485.226C1040.51 485.293 1040.75 485.276 1040.95 485.178C1041.15 485.079 1041.31 484.907 1041.39 484.697C1043.24 481.988 1045.25 479.399 1047.26 476.806C1048.71 474.94 1050.15 473.071 1051.55 471.155C1054.61 467.288 1057.27 463.111 1059.46 458.691C1059.85 457.842 1060.14 456.923 1060.43 456.008C1061.02 454.151 1061.6 452.31 1062.98 451.092C1065.36 449.422 1067.96 448.062 1070.69 447.044C1070.98 446.947 1071.28 446.868 1071.58 446.807C1071.83 446.639 1072.11 446.531 1072.41 446.492C1072.71 446.453 1073.01 446.484 1073.3 446.583C1074.1 446.909 1074.97 447.013 1075.82 446.883C1076.67 446.752 1077.47 446.393 1078.13 445.842C1080.43 444.448 1082.73 444.935 1085.02 445.424L1085.03 445.424C1085.66 445.558 1086.29 445.692 1086.92 445.787C1087.18 445.841 1087.43 446.121 1087.66 446.375C1087.7 446.417 1087.73 446.457 1087.77 446.496C1087.79 446.522 1087.82 446.546 1087.84 446.57L1087.91 446.638C1088.67 447.416 1089.06 447.811 1089.46 447.818C1089.86 447.825 1090.28 447.418 1091.12 446.592L1091.16 446.551C1094.19 443.432 1096.81 439.947 1098.97 436.178C1101.87 431.083 1106.01 426.799 1111 423.719C1111.92 423.028 1113.01 422.595 1114.15 422.463C1115.29 422.331 1116.45 422.506 1117.5 422.969C1119.37 423.894 1119.98 423.652 1120.86 421.752C1122.15 419.233 1124.01 417.043 1126.28 415.347C1127.74 414.106 1129.04 412.68 1130.13 411.104C1131.5 409.243 1133.13 407.582 1134.95 406.166C1138.5 403.274 1141.97 400.403 1145.42 397.457C1147.17 395.997 1147.29 394.816 1146.42 393.224C1146.26 392.717 1145.96 392.259 1145.58 391.893C1145.19 391.527 1144.71 391.263 1144.2 391.126C1143.68 390.989 1143.14 390.983 1142.62 391.109C1142.1 391.234 1141.62 391.487 1141.22 391.845C1140.24 392.462 1139.26 393.074 1138.27 393.686L1138.27 393.688L1138.27 393.69C1134.63 395.955 1130.99 398.219 1127.51 400.711C1122.5 404.509 1116.44 406.647 1110.16 406.825C1107.12 407.008 1104.2 408.067 1101.74 409.872C1098.92 411.607 1096.29 413.64 1093.9 415.938C1090.37 419.589 1085.82 422.092 1080.84 423.122C1076.89 423.985 1073.17 425.684 1069.93 428.106C1063.98 432.223 1056.66 433.858 1049.52 432.665C1044.86 431.87 1040.35 430.411 1036.11 428.331C1026.88 423.975 1016.32 423.393 1006.67 426.709C1006.48 426.775 1006.28 426.831 1006.08 426.888L1006.08 426.888C1005.22 427.135 1004.33 427.392 1003.81 428.466C1004.02 428.658 1004.24 428.845 1004.46 429.034C1005.66 430.046 1006.87 431.079 1007.05 432.868C1007.13 433.6 1007.74 433.832 1008.66 433.983C1009.09 434.055 1009.52 434.1 1009.95 434.144C1010.43 434.194 1010.9 434.243 1011.36 434.328C1012.59 434.416 1013.74 434.952 1014.6 435.832C1015.45 436.713 1015.96 437.878 1016.01 439.106C1016.19 440.311 1015.95 441.541 1015.33 442.589C1014.71 443.637 1013.74 444.438 1012.6 444.855C1010.99 445.607 1009.25 446.021 1007.48 446.073C1005.71 446.125 1003.94 445.814 1002.3 445.158C1000.37 444.521 998.471 443.798 996.58 443.077C995.745 442.758 994.911 442.441 994.076 442.13C992.762 441.456 991.309 441.099 989.833 441.088C989.363 441.848 989.562 442.587 989.74 443.253C989.957 444.014 990.003 444.815 989.874 445.596C989.745 446.378 989.444 447.121 988.993 447.772C988.542 448.424 987.953 448.967 987.267 449.363C986.581 449.76 985.815 449.999 985.026 450.064C984.144 450.219 983.251 450.299 982.356 450.304C977.007 450.172 971.718 449.137 966.714 447.243C962.322 445.443 957.708 444.24 952.995 443.666C950.71 443.513 948.415 443.469 946.12 443.426C943.186 443.37 940.251 443.314 937.329 443.029C936.696 442.882 935.998 442.792 935.703 443.465C935.606 443.756 935.598 444.068 935.677 444.364C935.756 444.659 935.92 444.926 936.148 445.129L938.825 448.018C940.272 449.572 940.188 450.15 938.34 451.239C937.805 451.53 937.251 451.784 936.682 452.001C933.28 453.506 929.788 454.799 926.227 455.872C923.924 456.636 921.459 456.777 919.084 456.28C916.472 455.746 913.826 455.42 911.188 455.096C909.929 454.941 908.672 454.787 907.421 454.61C906.12 454.323 904.769 454.353 903.482 454.698C902.195 455.043 901.01 455.692 900.026 456.591C899.434 457.145 898.778 457.627 898.073 458.026C896.427 458.983 895.484 458.72 894.612 457.091C894.207 456.535 894.039 455.997 893.848 455.389C893.743 455.054 893.631 454.699 893.47 454.306C893.355 454.028 893.261 453.723 893.166 453.414C892.882 452.494 892.591 451.549 891.737 451.243C891.053 450.998 890.618 451.472 890.188 451.942C889.902 452.254 889.618 452.564 889.263 452.659C889.169 452.698 889.069 452.725 888.967 452.738C887.743 453.344 887.079 453.086 886.722 451.755C886.53 450.668 886.433 449.567 886.435 448.463C886.449 447.852 886.264 447.253 885.91 446.755C885.555 446.257 885.049 445.888 884.467 445.701C883.342 445.24 882.111 445.104 880.913 445.306C874.255 446.241 867.485 446.003 860.91 444.603C860.665 444.614 860.425 444.678 860.207 444.791C859.907 445.149 859.986 445.445 860.055 445.704C860.972 447.202 860.703 448.859 859.493 449.817C858.284 450.775 858.576 452.163 859.45 453.356C860.593 454.772 862.025 455.928 863.649 456.748C864.408 457.168 865.173 457.556 865.934 457.943C866.433 458.196 866.931 458.449 867.424 458.709C867.9 458.859 867.989 459.192 868.098 459.598C868.067 459.72 868.01 459.834 867.931 459.932C867.852 460.03 867.752 460.11 867.64 460.167C867.527 460.223 867.404 460.255 867.278 460.26C867.152 460.264 867.027 460.242 866.91 460.194C865.509 459.925 864.061 460.052 862.729 460.562C860.079 461.611 857.134 461.637 854.466 460.636C852.538 460.036 850.657 459.295 848.839 458.418C846.324 457.128 843.571 456.369 840.751 456.186C837.941 456.051 835.156 455.587 832.455 454.803C831.617 454.448 830.699 454.325 829.797 454.448C828.895 454.571 828.043 454.935 827.331 455.502C826.637 456.164 825.805 455.871 825.058 455.596C821.151 454.434 817.782 451.925 815.551 448.514C815.014 447.293 814.031 446.324 812.804 445.802C812.191 445.575 811.646 445.195 811.222 444.699C810.798 444.202 810.507 443.605 810.379 442.964C810.167 442.192 809.861 441.449 809.469 440.751C808.56 439.132 807.442 438.956 806.004 440.094C804.929 441.031 804.117 442.232 803.648 443.579C803.319 444.479 802.774 445.284 802.061 445.924C801.348 446.564 800.489 447.02 799.559 447.25C796.854 448.074 794.215 449.099 791.663 450.317C787.715 452.352 783.429 453.648 779.015 454.142C778.7 454.147 778.353 454.478 778.481 454.959C780.205 456.857 782.147 458.545 784.267 459.987C784.422 460.1 784.603 460.196 784.785 460.292C785.351 460.592 785.921 460.894 785.717 461.699C785.506 462.528 784.771 462.654 784.054 462.778C783.851 462.813 783.649 462.848 783.462 462.898C782.264 463.089 781.038 463.011 779.874 462.67C779.314 462.499 778.733 462.347 778.147 462.193L778.147 462.193C777.286 461.967 776.415 461.738 775.582 461.443C774.131 460.845 772.557 460.607 770.994 460.75C769.431 460.892 767.926 461.411 766.607 462.262C765.591 462.929 764.443 463.37 763.242 463.555C762.04 463.74 760.813 463.665 759.643 463.336C758.886 463.043 758.055 462.998 757.27 463.208C756.486 463.418 755.789 463.872 755.28 464.505C754.805 464.98 754.213 465.321 753.564 465.495C752.915 465.669 752.231 465.669 751.582 465.495C751.011 465.419 750.425 465.386 749.843 465.354L749.84 465.354C749.418 465.331 748.999 465.307 748.588 465.267C745.956 464.95 743.347 464.498 740.74 464.045L740.739 464.045C737.385 463.463 734.033 462.881 730.632 462.589C727.111 462.363 723.642 461.624 720.335 460.394C718.745 459.706 716.962 459.607 715.307 460.117C712.717 461.065 710.264 462.349 708.008 463.935C710.943 466.647 714.341 468.811 718.041 470.322C719.213 470.681 720.471 470.637 721.614 470.197C722.728 469.621 723.985 469.284 725.242 468.947C726.048 468.685 726.911 468.647 727.737 468.837C728.563 469.028 729.321 469.44 729.931 470.029C729.394 470.5 728.716 470.779 728.004 470.823C726.955 471.016 725.902 471.194 724.85 471.373L724.849 471.373C722.111 471.838 719.374 472.303 716.703 473.018C711.327 474.474 705.64 474.302 700.362 472.523C698.521 471.866 696.312 471.309 694.279 470.824C692.825 470.358 691.267 470.321 689.792 470.716C688.317 471.111 686.987 471.922 685.96 473.053C685.246 473.837 684.376 474.464 683.407 474.894C682.437 475.324 681.389 475.548 680.328 475.552C680.172 475.555 680.014 475.558 679.856 475.561C678.901 475.578 677.929 475.595 677.005 475.571C672.874 475.351 668.731 475.636 664.669 476.419C662.912 476.811 662.853 477.183 663.834 478.625C664.63 479.977 665.771 481.094 667.139 481.862C668.507 482.63 670.054 483.021 671.623 482.997C672.049 482.93 672.485 483.006 672.863 483.213C673.241 483.42 673.54 483.747 673.713 484.141C672.131 484.487 670.567 484.807 669.02 485.124C665.844 485.773 662.737 486.409 659.679 487.228C653.675 488.184 647.98 490.538 643.053 494.1C642.616 494.531 642.05 494.807 641.442 494.889C638.248 495.79 634.886 495.917 631.633 495.258C630.772 494.96 629.863 494.827 628.953 494.867C628.832 494.846 628.712 494.823 628.591 494.8C627.547 494.603 626.497 494.405 625.422 495.297L627.29 498.126C627.863 499.082 627.538 499.645 626.503 499.922C625.82 500.051 625.13 500.144 624.437 500.198C621.607 500.298 618.809 500.821 616.134 501.749C613.066 503.125 609.612 503.377 606.378 502.461C606.324 502.443 606.27 502.418 606.216 502.391C606.189 502.378 606.161 502.363 606.133 502.349C605.822 502.187 605.522 502.031 605.305 502.748C605.125 503.349 605.358 503.803 605.596 504.268L605.597 504.268C605.717 504.504 605.84 504.742 605.91 505.004L606.534 507.333C606.937 510.316 606.58 510.61 604.197 511.922C603.175 512.485 602.149 513.027 601.122 513.569L601.121 513.569C599.752 514.292 598.384 515.014 597.028 515.785C595.208 516.828 594.804 517.689 595.28 519.464C595.973 522.052 597.343 522.874 599.968 522.17C600.975 521.686 602.129 521.604 603.195 521.94C605.288 522.872 607.616 523.143 609.867 522.716C612.118 522.29 614.185 521.187 615.793 519.555C617.797 517.866 619.958 516.372 622.245 515.092C622.264 515.074 622.282 515.057 622.301 515.039L622.363 514.98C622.815 514.547 623.356 514.029 624.057 514.606ZM190.863 448.029C191.532 448.04 192.238 448.049 192.974 448.06L192.975 448.06C195.305 448.092 197.92 448.129 200.505 448.219C202.326 448.272 204.148 448.13 205.939 447.794C207.263 447.653 208.493 447.042 209.404 446.07C210.315 445.099 210.846 443.832 210.901 442.501C210.983 441.88 211.058 441.256 211.134 440.629L211.134 440.628C211.264 439.556 211.394 438.48 211.558 437.411C211.776 435.137 212.529 432.948 213.755 431.021C214.982 429.095 216.647 427.486 218.614 426.326C221.229 424.902 223.371 422.747 224.78 420.124C226.189 417.502 226.803 414.525 226.546 411.559C226.557 408.559 226.681 405.582 226.804 402.615L226.804 402.614C226.831 401.972 226.858 401.331 226.883 400.689C226.982 398.57 227.381 396.474 228.069 394.467C228.766 391.897 230.438 389.7 232.73 388.344C236.437 386.119 239.692 383.217 242.326 379.788C242.435 379.659 242.553 379.527 242.673 379.392C242.886 379.155 243.106 378.91 243.291 378.658C244.936 376.407 247.138 374.623 249.682 373.483C252.226 372.343 255.023 371.885 257.797 372.155C261.02 372.347 264.253 372.302 267.47 372.02C268.261 371.928 269.025 371.675 269.716 371.279C270.406 370.883 271.009 370.351 271.489 369.715C273.561 367.25 274.966 364.295 275.57 361.132C277.316 353.986 279.48 346.949 282.049 340.056C283.904 335.567 286.762 331.561 290.404 328.346C294.241 324.623 298.315 321.194 302.446 317.828C309 312.568 314.243 305.859 317.762 298.229C319.719 294.027 321.969 289.968 324.494 286.082C327.606 281.059 332.4 277.303 338.021 275.482C342.214 274.121 346.453 272.787 350.713 271.527C355.944 270.002 360.642 267.04 364.274 262.979C366.148 260.834 368.154 258.83 370.158 256.829C372.988 254.004 375.812 251.185 378.247 247.98C379.108 246.705 380.38 245.762 381.851 245.31C383.773 244.676 385.494 243.545 386.838 242.032C387.618 241.295 388.392 240.55 389.166 239.806C390.713 238.317 392.26 236.828 393.858 235.396C394.607 234.811 395.184 234.033 395.525 233.146C395.867 232.259 395.961 231.295 395.797 230.358C395.359 226.66 395.436 222.918 396.028 219.24C396.522 215.546 398.38 212.171 401.237 209.778C404.094 207.384 407.742 206.146 411.465 206.306C413.992 206.285 416.516 206.124 419.025 205.826C420.284 205.704 421.501 205.305 422.589 204.658C423.676 204.01 424.606 203.13 425.313 202.08C426.372 200.714 427.307 199.256 428.109 197.725C431.006 191.809 435.507 186.827 441.099 183.346C442.186 182.636 443.269 181.925 444.351 181.214C447.063 179.432 449.768 177.655 452.506 175.93C455.551 174.147 458.457 172.137 461.198 169.916C464.99 166.716 469.532 164.531 474.398 163.565C476.635 163.168 478.77 162.329 480.679 161.096C482.587 159.863 484.23 158.262 485.512 156.386C488.016 152.669 491.703 149.907 495.975 148.55C496.616 148.378 497.221 148.075 497.827 147.772C498.13 147.62 498.433 147.469 498.74 147.333C500.693 146.508 502.449 145.278 503.891 143.723C505.332 142.169 506.427 140.325 507.103 138.316C508.147 135.493 509.072 132.663 510.039 129.707L510.076 129.593C510.564 128.157 511.204 126.776 511.985 125.476C512.558 124.519 513.345 123.708 514.283 123.106C515.222 122.504 516.287 122.127 517.395 122.005C519.087 121.751 520.797 121.651 522.507 121.705C526.232 121.959 529.973 121.547 533.554 120.489C537.905 119.188 542.429 118.564 546.968 118.638C547.772 118.69 548.577 118.569 549.33 118.283C550.861 117.635 551.821 118.408 552.52 119.687C553.219 120.966 553.115 121.905 551.545 122.999C546.948 126.252 542.294 129.441 537.62 132.556C535.644 133.792 534.004 135.497 532.847 137.521C531.173 140.41 528.821 142.85 525.993 144.628C518.026 150.092 509.801 155.188 501.443 160.083C499.347 161.265 497.578 162.951 496.298 164.989C494.05 168.496 491.987 172.077 489.918 175.668L489.917 175.668C487.922 179.131 485.921 182.603 483.745 186.027C480.579 191.427 476.786 196.434 472.445 200.944C470.828 202.618 469.06 204.14 467.164 205.489C465.791 206.416 464.419 207.348 463.047 208.281C456.434 212.774 449.798 217.283 442.86 221.275C439.038 223.546 435.014 225.46 430.839 226.993C429.034 227.635 427.391 228.665 426.026 230.009C424.661 231.354 423.607 232.981 422.938 234.777C422.586 235.655 422.245 236.547 421.9 237.448C421.477 238.551 421.05 239.669 420.588 240.796C419.135 245.224 416.423 249.132 412.783 252.042C408.592 255.455 404.129 258.5 399.667 261.543L399.667 261.544L399.663 261.546C397.719 262.873 395.775 264.198 393.854 265.555C386.749 270.354 380.153 275.866 374.167 282.005C368.368 288.089 364.136 295.493 361.837 303.578C360.503 308.542 357.449 312.871 353.222 315.794C350.31 317.784 347.297 319.623 344.196 321.304C343.146 321.888 342.24 322.7 341.543 323.679C335.125 332.868 327.384 341.059 318.572 347.985C314.937 351.159 311.845 354.906 309.417 359.077C306.796 363.28 304.562 367.712 302.741 372.319C297.223 386.295 287.859 398.422 275.733 407.296C274.777 408.025 273.825 408.758 272.875 409.49C269.446 412.133 266.04 414.758 262.509 417.101C255.821 421.477 250.312 427.43 246.467 434.437C245.829 435.604 245.163 436.75 244.496 437.898C243.384 439.811 242.269 441.729 241.276 443.754C237.362 451.062 232.118 457.574 225.814 462.956C223.188 465.285 220.639 467.751 218.174 470.235C215.332 473.111 213.094 476.527 211.592 480.281C208.661 487.909 204.914 495.197 200.416 502.02C197.054 506.803 193.166 511.195 188.825 515.112C187.84 515.969 187.037 517.016 186.467 518.19C185.896 519.365 185.569 520.642 185.505 521.947C185.375 523.452 185.168 524.949 184.884 526.433C184.718 527.69 184.207 528.876 183.407 529.86C182.607 530.844 181.55 531.587 180.353 532.006C178.479 532.736 176.656 533.595 174.9 534.577C173.924 535.113 172.833 535.406 171.72 535.429C170.712 535.472 169.761 535.912 169.076 536.652C168.879 536.942 168.621 537.186 168.32 537.366C168.019 537.546 167.683 537.658 167.335 537.695C166.986 537.731 166.634 537.692 166.302 537.579C165.971 537.465 165.668 537.281 165.414 537.039C165.144 536.896 164.907 536.699 164.716 536.46C164.526 536.222 164.387 535.946 164.308 535.651C164.229 535.356 164.212 535.048 164.257 534.746C164.303 534.444 164.41 534.155 164.572 533.896C165.235 532.594 165.556 531.144 165.504 529.683C165.523 528.126 166.015 526.612 166.917 525.342C169.759 520.12 172.113 514.647 173.949 508.993C174.221 508.349 174.445 507.696 174.67 507.037L174.67 507.037C174.868 506.462 175.066 505.882 175.299 505.302C178.12 498.167 179.591 490.571 179.639 482.898C179.707 480.379 179.976 477.869 180.441 475.391C180.999 471.742 182.963 468.456 185.914 466.237C186.175 466.037 186.438 465.84 186.701 465.642C187.566 464.992 188.428 464.345 189.185 463.656C190.131 462.961 190.804 461.956 191.085 460.816C191.366 459.676 191.238 458.474 190.724 457.418C190.14 455.566 189.357 453.783 188.387 452.1C186.389 449.227 186.842 448.551 190.863 448.029ZM608.533 214.632C608.974 214.64 609.384 214.648 609.74 214.642C613.794 214.388 615.241 212.098 613.984 208.591L613.222 206.932C613.023 206.64 612.888 206.309 612.824 205.961C612.761 205.613 612.771 205.256 612.855 204.912C612.938 204.569 613.093 204.246 613.309 203.966C613.525 203.686 613.797 203.455 614.108 203.287L615.776 201.968C616.202 201.499 616.718 201.121 617.293 200.855C617.868 200.589 618.49 200.44 619.123 200.418C619.756 200.396 620.387 200.501 620.979 200.727C621.57 200.953 622.111 201.295 622.569 201.733C622.741 201.832 622.755 201.84 622.82 201.881C622.897 201.929 623.046 202.023 623.61 202.365C624.652 202.998 625.655 203.046 626.05 201.711C626.235 201.192 626.541 200.724 626.943 200.347C627.346 199.97 627.833 199.696 628.363 199.546C630.346 198.561 632.183 197.309 633.825 195.824C644.79 186.01 656.39 176.932 668.55 168.646C669.48 168.025 670.327 167.47 671.104 166.96C677.946 162.473 679.452 161.485 685.226 149.832C686.221 147.67 687.706 145.769 689.563 144.28C691.421 142.792 693.6 141.757 695.927 141.258C699.827 140.227 703.57 138.678 707.057 136.651C712.534 133.441 717.823 129.92 722.897 126.106C727.272 123.316 730.515 119.062 732.045 114.104C732.672 111.862 733.588 109.712 734.77 107.707C735.486 106.303 736.641 105.171 738.059 104.483C739.477 103.796 741.081 103.59 742.626 103.897C743.799 104.096 744.961 104.353 746.118 104.61C746.927 104.789 747.735 104.968 748.543 105.126C750.565 105.807 752.767 105.726 754.734 104.9C756.701 104.074 758.3 102.558 759.229 100.638C760.132 99.2367 760.955 97.7901 761.779 96.3435C762.053 95.8612 762.328 95.3789 762.606 94.8982C763.578 93.1186 765.017 91.6371 766.768 90.6126L790.88 75.5918C798.494 71.0536 805.73 65.9076 812.516 60.2042C814.742 58.4662 816.687 56.3945 818.281 54.0624C819.409 52.2715 821.011 50.8275 822.909 49.8897C823.471 49.588 824.033 49.2876 824.595 48.9874C826.978 47.7138 829.357 46.4424 831.686 45.0808C832.066 44.9331 832.408 44.7006 832.684 44.4011C832.961 44.1015 833.166 43.7427 833.283 43.3521C833.4 42.9615 833.426 42.5493 833.359 42.147C833.293 41.7447 833.136 41.3629 832.9 41.0306C832.796 40.6353 832.606 40.2681 832.342 39.9555C832.079 39.6429 831.75 39.3927 831.378 39.223C831.007 39.0533 830.602 38.9683 830.194 38.9742C829.785 38.9801 829.383 39.0769 829.016 39.2573C827.668 39.6979 826.33 40.1755 825.048 40.717C821.531 42.3809 817.665 43.1722 813.777 43.0236C810.919 42.7578 808.059 43.5239 805.717 45.1834C803.424 47.0185 800.739 48.3012 797.871 48.9323C795.003 49.5634 792.027 49.5261 789.176 48.823C788.794 48.7272 788.327 48.6144 787.995 48.7035C785.462 48.4508 782.925 49.1306 780.859 50.6156C776.672 53.2743 772.96 56.6131 769.873 60.4944C768.455 62.4718 766.354 63.8536 763.977 64.3727C762.396 64.6775 760.839 65.0946 759.318 65.6211C758.364 65.9583 757.5 66.511 756.794 67.2363C756.088 67.9616 755.559 68.8399 755.247 69.8029C753.854 73.6241 753.403 73.8638 749.23 73.0797C748.734 72.9987 748.242 72.8923 747.757 72.761C741.736 70.8474 738.421 71.9337 735.058 78.4622C734.654 79.2699 734.202 80.0527 733.705 80.8063C732.842 82.2921 731.674 83.5777 730.277 84.5781C726.61 87.1265 723.605 90.5132 721.51 94.4567C721.047 95.459 720.34 96.3296 719.455 96.989C718.353 97.7447 717.263 98.503 716.176 99.2597C714.456 100.457 712.741 101.65 710.991 102.823C710.436 103.263 709.781 103.561 709.084 103.691C704.967 104.49 701.334 106.888 698.982 110.361C695.26 115.314 689.818 118.695 683.728 119.838C681.374 120.11 679.099 120.851 677.036 122.016C674.973 123.182 673.164 124.748 671.715 126.623C669.503 129.522 666.684 131.902 663.454 133.595C660.225 135.289 656.664 136.255 653.022 136.427C651.797 136.47 650.597 136.608 649.398 136.745C649.098 136.78 648.798 136.814 648.498 136.847C647.234 136.968 646.025 137.419 644.991 138.155C643.957 138.891 643.135 139.887 642.607 141.041C641.872 142.585 641.23 144.184 640.625 145.773C639.383 148.857 637.647 151.718 635.484 154.244C629.983 160.26 624.016 165.834 617.64 170.914C612.639 175.33 607.032 179.008 600.989 181.835C600.292 182.15 599.632 182.47 598.985 182.784C597.829 183.344 596.717 183.883 595.516 184.332C594.019 184.802 592.667 185.644 591.585 186.78C590.503 187.915 589.727 189.307 589.329 190.825C589.052 191.801 588.682 192.75 588.226 193.657C588.066 194.219 587.78 194.737 587.389 195.171C586.998 195.606 586.513 195.945 585.971 196.163C585.429 196.381 584.844 196.472 584.261 196.429C583.678 196.386 583.113 196.21 582.609 195.915C582.146 195.741 581.686 195.538 581.225 195.334C580.764 195.131 580.303 194.927 579.841 194.754C578.991 194.403 578.058 194.304 577.154 194.469C576.249 194.634 575.411 195.056 574.74 195.685C574.031 196.245 573.376 196.872 572.785 197.556C571.067 199.537 568.931 201.111 566.53 202.165L561.916 204.471C560.589 205.103 559.445 206.064 558.594 207.263C557.743 208.463 557.213 209.86 557.055 211.322C556.941 212.081 556.84 212.837 556.738 213.594C556.585 214.728 556.433 215.863 556.24 217.009C556.191 217.981 555.93 218.93 555.476 219.79C555.022 220.651 554.386 221.403 553.613 221.993C549.761 224.653 546.97 228.586 545.731 233.101C545.13 235.081 544.054 236.884 542.596 238.352C541.138 239.821 539.343 240.91 537.367 241.524C534.401 242.576 531.73 244.325 529.579 246.623C526.01 250.494 521.444 253.308 516.382 254.756C514.131 255.279 512.064 256.402 510.4 258.006C508.736 259.61 507.538 261.635 506.934 263.866C506.613 264.817 506.241 265.75 505.821 266.661C505.305 268.417 504.377 270.024 503.114 271.349C501.641 272.42 500.578 273.818 499.53 275.196C498.737 276.239 497.952 277.269 497.007 278.137C496.533 278.533 496.218 279.085 496.12 279.694C496.021 280.303 496.145 280.927 496.468 281.452C497.583 283.69 498.984 284.186 501.34 282.921C507.734 279.424 513.959 275.735 520.086 271.834C521.601 270.853 523.387 270.374 525.189 270.467C528.727 270.6 532.245 269.875 535.441 268.354C541.551 265.422 547.701 262.638 553.89 260.003C557.983 258.259 561.689 255.72 564.795 252.535C567.9 249.349 570.343 245.579 571.982 241.443C572.683 239.552 573.699 237.792 574.986 236.239C578.246 232.927 582.071 230.225 586.282 228.259C587.384 227.773 588.599 227.598 589.793 227.754C590.551 227.803 591.309 227.865 592.067 227.927C593.93 228.08 595.79 228.233 597.637 228.188C601.562 228.048 602.798 226.449 602.51 222.563C602.271 221.173 602.185 219.761 602.253 218.352C602.285 217.342 602.716 216.385 603.45 215.691C604.185 214.996 605.164 214.621 606.174 214.646C606.979 214.604 607.8 214.619 608.533 214.632Z" fill="url(#paint0_linear_440_5245)"/>
</g>
<defs>
<filter id="filter0_d_440_5245" x="0.96875" y="-97.6889" width="1267.42" height="939.483" filterUnits="userSpaceOnUse" color-interpolation-filters="sRGB">
<feFlood flood-opacity="0" result="BackgroundImageFix"/>
<feColorMatrix in="SourceAlpha" type="matrix" values="0 0 0 0 0 0 0 0 0 0 0 0 0 0 0 0 0 0 127 0" result="hardAlpha"/>
<feOffset/>
<feGaussianBlur stdDeviation="46"/>
<feComposite in2="hardAlpha" operator="out"/>
<feColorMatrix type="matrix" values="0 0 0 0 0.917647 0 0 0 0 0.129412 0 0 0 0 0.133333 0 0 0 1 0"/>
<feBlend mode="normal" in2="BackgroundImageFix" result="effect1_dropShadow_440_5245"/>
<feBlend mode="normal" in="SourceGraphic" in2="effect1_dropShadow_440_5245" result="shape"/>
</filter>
<linearGradient id="paint0_linear_440_5245" x1="-306.337" y1="1062.13" x2="1201.86" y2="15.1949" gradientUnits="userSpaceOnUse">
<stop stop-color="#D5191B"/>
<stop offset="1" stop-color="#D5191B"/>
</linearGradient>
</defs>
</svg>
