<svg width="143" height="47" xmlns="http://www.w3.org/2000/svg" fill="none">

    <g>
        <title>Layer 1</title>
        <g stroke="null" id="svg_1">
            <path stroke="null" id="svg_2" fill="white"
                d="m56.39958,31.0861l-2.40115,-1.71293l-3.10171,-8.01666c0.18629,-0.04684 0.37257,-0.10124 0.54957,-0.15948c0.177,-0.05811 0.30358,-0.11437 0.44143,-0.17633c0.47235,-0.20672 0.89733,-0.5095 1.24814,-0.88924c0.14011,-0.14967 0.26483,-0.31313 0.37257,-0.48774c0.25953,-0.4137 0.40773,-0.88831 0.43029,-1.37711l0.40428,-7.43126c0,-0.0544 0,-0.11066 0,-0.17076c0,-0.05997 0,-0.12193 0.013,-0.18761c0.01247,-0.13029 0.01685,-0.26125 0.013,-0.39208c-0.00305,-0.11756 -0.01433,-0.23485 -0.03344,-0.35081l0,-0.03755c-0.03609,-0.19955 -0.09872,-0.39327 -0.18629,-0.57597c-0.028,-0.0544 -0.05772,-0.1088 -0.08757,-0.15948c-0.22198,-0.35174 -0.54028,-0.6313 -0.91657,-0.80485l-0.11358,-0.05254c-0.07642,-0.03184 -0.14714,-0.05626 -0.21057,-0.07881l-0.09314,-0.02813c-0.53099,-0.12207 -1.07128,-0.19982 -1.61501,-0.23259c-0.354,-0.02627 -0.71343,-0.04126 -1.06371,-0.04883c-0.21043,0 -0.41543,0 -0.61472,0l-2.03614,0.06196l-15.08517,0.44648l1.36543,2.10686l-3.25615,22.52651l-2.11071,2.5065l12.7493,-2.53091l-1.70072,-1.78046l1.00029,-8.53067c0.16267,-0.01804 0.32627,-0.02747 0.48986,-0.02813c0.19743,-0.0008 0.39433,0.01605 0.58871,0.05068c0.35041,0.06355 0.67482,0.22874 0.93329,0.4754c0.25846,0.24666 0.43971,0.5639 0.52157,0.91285l0.88671,3.45955l0.74514,2.92113l-1.49957,2.15011l13.3733,-1.37711zm-13.09573,-11.84573c-0.24214,0.03556 -0.421,0.04869 -0.47314,0.05241l-1.86286,0.14078l-0.082,0c-0.15152,-0.00027 -0.30132,-0.03291 -0.43958,-0.09553c-0.13825,-0.06263 -0.26178,-0.15404 -0.36249,-0.26802c-0.10084,-0.11411 -0.17647,-0.24825 -0.22224,-0.3938c-0.04564,-0.14555 -0.06037,-0.2992 -0.04312,-0.45085l0.74514,-6.37883c0.03025,-0.2574 0.15126,-0.49544 0.34099,-0.67071c0.18974,-0.17527 0.4356,-0.27611 0.69287,-0.28421l2.37143,-0.07311l0.054,0c0.35997,0.00332 0.71728,0.06156 1.06,0.17249c0.66062,0.19624 1.21802,0.64643 1.55172,1.25332c0.01672,0.03184 0.03171,0.06568 0.04657,0.09938c0.16771,0.4072 0.218,0.93806 0.15643,1.6304l-0.21043,2.34701l0,0.06939l0,0.04498c-0.00929,0.08266 -0.02428,0.15391 -0.03357,0.19889l0,0.0207c-0.0207,0.08969 -0.04684,0.17806 -0.07815,0.26457c-0.10535,0.31618 -0.26483,0.61153 -0.47142,0.87239c-0.05785,0.07842 -0.12008,0.15351 -0.18629,0.22503c-0.21375,0.23551 -0.45881,0.44011 -0.72829,0.60795c-0.55899,0.33157 -1.181,0.54121 -1.82557,0.61538z" />
            <path stroke="null" id="svg_3" fill="white"
                d="m29.01437,10.44514c0,-0.06754 0,-0.13136 -0.01486,-0.18761c-0.01115,-0.11649 -0.03171,-0.23193 -0.06143,-0.34524l0,-0.02428c0,-0.02256 -0.01314,-0.05068 -0.01871,-0.07138c-0.01221,-0.04007 -0.02654,-0.07948 -0.04286,-0.11822c-0.0272,-0.05944 -0.05838,-0.11716 -0.09314,-0.17249c0,-0.01314 -0.01858,-0.02441 -0.02601,-0.03941c-0.00743,-0.01513 -0.01499,-0.02441 -0.02428,-0.03755c-0.00929,-0.01314 -0.041,-0.0544 -0.06143,-0.08067l-0.02614,-0.03383c-0.27478,-0.30583 -0.62414,-0.53405 -1.01329,-0.66222c-0.17633,-0.06899 -0.3593,-0.11928 -0.54585,-0.15006l-0.09686,-0.01698c-0.082,-0.01314 -0.16771,-0.02428 -0.26271,-0.0337c-0.095,-0.00942 -0.18629,-0.01871 -0.30172,-0.02441c-0.18629,-0.01314 -0.34471,-0.01871 -0.48814,-0.01871c-0.30729,0 -0.5103,0.02242 -0.5103,0.02242c-0.29814,0.01513 -0.72843,0.03941 -1.25371,0.07324l-15.06845,1.08255l-0.43971,0.0337l-1.19401,0.09009l1.13629,2.47837l-5.216,28.29354l-2.31544,3.50652l2.08271,-0.91365c0,0 0.50658,-0.20075 1.358,-0.53099l0.26444,-0.10323l0.598,-0.22689l0.65943,-0.25329l0.72285,-0.27585c1.50329,-0.56284 3.34001,-1.25703 5.22516,-1.93424l1.42142,-0.50472c0.48801,-0.15511 0.96433,-0.30384 1.42872,-0.44648c0.69486,-0.21388 1.35986,-0.41277 1.98957,-0.59853c1.89258,-0.56284 3.48344,-1.00931 4.67386,-1.39582l0.38186,-0.12565c0.12286,-0.04312 0.24029,-0.08253 0.35201,-0.12379l0.20499,-0.07324l0.03715,-0.01499c0.09129,-0.03383 0.18629,-0.06754 0.26643,-0.10323l0.028,-0.01128l0.08386,-0.03556c0.05029,-0.0207 0.10057,-0.04126 0.14714,-0.06382c0.136,-0.05997 0.26258,-0.12379 0.38743,-0.18761c0.12485,-0.06382 0.22543,-0.12193 0.32972,-0.18761c0.0199,-0.00955 0.03914,-0.02017 0.05772,-0.03184c0.19809,-0.11756 0.38969,-0.24586 0.57372,-0.38465c0.08571,-0.06568 0.16957,-0.13136 0.24785,-0.19703c0.21574,-0.18191 0.41702,-0.3808 0.60171,-0.59468c0.05586,-0.06568 0.108,-0.13136 0.15643,-0.18761c0.04843,-0.05626 0.095,-0.12751 0.13786,-0.18761c0.03317,-0.05467 0.06369,-0.11105 0.09129,-0.1689c0.0885,-0.17713 0.16506,-0.36023 0.22914,-0.54771c0.02786,-0.07696 0.054,-0.15948 0.082,-0.24586c0.05586,-0.17448 0.10986,-0.37523 0.16386,-0.59654c0.054,-0.22145 0.108,-0.47474 0.15829,-0.75045c0.028,-0.15205 0.05413,-0.3134 0.08014,-0.48217c0.02614,-0.1689 0.05214,-0.34895 0.07457,-0.53657l0.71343,-4.68089c0.35214,-2.30947 -0.63714,-3.14629 -1.33757,-3.45013c-0.10057,-0.03569 -0.203,-0.07138 -0.30729,-0.09765l-0.06528,-0.01685c-0.12658,-0.02813 -0.25143,-0.05254 -0.37257,-0.0751c-0.29946,-0.05321 -0.60304,-0.07961 -0.90715,-0.07868c-0.32016,-0.00106 -0.63979,0.02468 -0.95558,0.07682l-0.01685,0l0.01685,0c0.82581,-0.13892 1.62018,-0.42618 2.34529,-0.84797c0.23166,-0.13454 0.45391,-0.285 0.665,-0.45032c0.09872,-0.07868 0.18629,-0.15749 0.27943,-0.23816c0.38478,-0.34749 0.71011,-0.75629 0.96314,-1.21019c0.07961,-0.14263 0.15112,-0.28991 0.21415,-0.44077c0.02985,-0.06953 0.05586,-0.13507 0.07828,-0.19889c0.08452,-0.22344 0.14688,-0.4547 0.18629,-0.69048c0,-0.02441 0.00929,-0.04684 0.013,-0.06568l0.01115,-0.07682l0,-0.00942l0.11557,-0.79742l0.40601,-2.7578l0.43785,-2.81419c0,0 0.13971,-0.90808 0.17129,-1.39953c0,-0.07324 0,-0.14821 0,-0.21587l-0.013,-0.00557zm-9.5973,17.87003c0.00093,0.00862 0.00093,0.01751 0,0.02627l-0.08014,0.52529l-0.06515,0.42206l-0.38186,2.19881c-0.07125,0.36474 -0.19677,0.71635 -0.37257,1.04315c-0.04286,0.08253 -0.08757,0.16506 -0.136,0.24387c-0.23073,0.38955 -0.51693,0.74289 -0.84943,1.04872c-0.20008,0.18443 -0.41437,0.35254 -0.64085,0.50287c-0.25409,0.16798 -0.52131,0.31485 -0.79914,0.43905c-0.03728,0.01685 -0.07457,0.02999 -0.11172,0.04312l-3.02343,0.96805c-0.10548,0.0333 -0.21548,0.05042 -0.326,0.05068c-0.15683,-0.00013 -0.3118,-0.03476 -0.45404,-0.10163c-0.1421,-0.06674 -0.26802,-0.16413 -0.36886,-0.28513c-0.10084,-0.12101 -0.17421,-0.26284 -0.21481,-0.41543c-0.0406,-0.15258 -0.04763,-0.31233 -0.02043,-0.46797l1.36371,-7.81591c0.03635,-0.21083 0.13401,-0.40601 0.28062,-0.56098c0.14648,-0.15484 0.33542,-0.26258 0.54267,-0.30955l2.27271,-0.5103l0.01858,0l0.06899,-0.01314l0.14714,-0.02441l0.21601,-0.02813l0.26828,-0.02242c0.08014,0 0.16028,0 0.23657,0c0.78243,0 1.39529,0.21203 1.82186,0.62852l0.05214,0.0544c0.06223,0.06647 0.11888,0.13799 0.16957,0.21388c0.03357,0.04684 0.05586,0.08624 0.07072,0.11066l0.01871,0.03184c0.04392,0.07722 0.08253,0.15749 0.11543,0.24015c0.05679,0.13865 0.09978,0.28248 0.12857,0.42962c0.02415,0.12393 0.041,0.24931 0.05029,0.37523c0,0.01128 0,0.02256 0,0.03184c0.01168,0.30716 -0.00199,0.61458 -0.041,0.91935l0.04286,0.00756zm1.87772,-12.904c0,0.09381 0,0.18761 -0.01672,0.2984c0,0.02242 0,0.04684 0,0.06939l0,0.01685c0,0.11251 -0.02242,0.22888 -0.03543,0.34524c0,0.07125 -0.01858,0.14449 -0.02985,0.2176c-0.01115,0.07311 -0.02229,0.15948 -0.03529,0.2383l-0.01128,0.06754l-0.01486,0.09195l-0.01115,0.07682l-0.01115,0.06382l-0.028,0.17633l0,0.04697l-0.01672,0.1088l-0.01871,0.11251l-0.013,0.08638l-0.01115,0.06754l-0.01499,0.10323c-0.0008,0.00929 -0.0008,0.01871 0,0.02813c-0.16572,0.97362 -0.27187,1.51961 -0.29429,1.63398c-0.04989,0.27014 -0.13109,0.53338 -0.24214,0.78428c-0.03357,0.0751 -0.06886,0.15006 -0.10615,0.2233c-0.24188,0.47726 -0.57783,0.89985 -0.98729,1.24191c-0.42843,0.35692 -0.92214,0.62586 -1.453,0.79171l-0.01128,0l-0.14529,0.04312c-0.11729,0.03198 -0.25886,0.07138 -0.41914,0.10323l-0.08186,0.01499l-1.07871,0.21388l-0.16944,0.03383l-0.15656,0.02999l-0.43586,0.08624l-0.13043,0.02441l-0.10057,0.0207l-0.02229,0l-0.10628,0.02057c-0.05719,0.00969 -0.11517,0.01473 -0.17315,0.01499c-0.15656,-0.0004 -0.31127,-0.03516 -0.45311,-0.10203c-0.14184,-0.06674 -0.26749,-0.164 -0.36819,-0.28474c-0.10084,-0.12074 -0.17421,-0.26218 -0.21508,-0.41437c-0.04087,-0.15219 -0.0483,-0.31167 -0.02176,-0.46704l1.35986,-7.8309c0.04047,-0.23405 0.1563,-0.44833 0.32972,-0.60941c0.17342,-0.16108 0.39473,-0.26006 0.62971,-0.28182l1.60386,-0.15006l0.06143,0c0.24758,-0.02587 0.49623,-0.03901 0.74514,-0.03941c0.33701,-0.00451 0.67336,0.03078 1.00228,0.10508l0.02786,0c0.02242,0 0.05586,0.01314 0.09686,0.02627l0.06342,0.0207l0.01115,0c0.11424,0.03914 0.22556,0.08611 0.33343,0.14064c0.23193,0.11623 0.44236,0.27173 0.62215,0.45961l0.02242,0.02441c0.05878,0.06541 0.11358,0.13427 0.16386,0.20645c0.01499,0.01871 0.04286,0.05811 0.07457,0.10694c0.03171,0.04869 0.07258,0.12751 0.09129,0.16691l0,0.01128l0.00929,0.01685c0.04976,0.10057 0.09208,0.2046 0.12671,0.31141c-0.0008,0.00942 -0.0008,0.01884 0,0.02826c0.01115,0.03556 0.02229,0.07682 0.03158,0.11809c0.00942,0.04126 0.01314,0.06382 0.02057,0.10137c0.00743,0.03755 0.01486,0.09566 0.02043,0.15378c0.01406,0.13335 0.02096,0.26749 0.02057,0.4015c0,0.08067 0,0.16705 0,0.25515" />
            <path stroke="null" id="svg_4" fill="white"
                d="m140.40782,35.36364l-5.77433,0.529l-5.15868,-1.66596l-1.34672,-7.59632l4.65714,1.01674l3.44841,2.17453l-1.37326,-7.96411l-2.86195,0.64908l-2.6072,-0.49902l-2.11097,-0.40521l-1.34672,-7.7371l4.87872,0.56284l6.39263,3.56464l-1.49002,-8.36004c-0.35957,-0.02999 -0.95,-0.07497 -1.70629,-0.12937l-1.24987,-0.08638c-1.35734,-0.09381 -3.01985,-0.20261 -4.76992,-0.31512l-0.4405,-0.02813l-1.78192,-0.1145l-3.52138,-0.22145l-0.8359,-0.05241c-3.43116,-0.21587 -6.10471,-0.37523 -6.10471,-0.37523l1.98891,2.31504l3.75756,23.63905l-1.49002,1.80673c0.20433,0.04126 0.50685,0.11251 0.87305,0.20818l0.28925,0.07696c0.29853,0.07881 0.63024,0.17076 0.97787,0.26828l0.22158,0.06196l0.68729,0.18761l0.23352,0.06554l1.17291,0.34152l0.22954,0.06754l0.45112,0.13321l0.6382,0.18761c1.08667,0.32268 1.88143,0.56284 1.88143,0.56284l0.21229,0.05626c1.44624,0.45218 3.04108,0.97561 4.73808,1.56472l0.42458,0.15378c0.55859,0.20831 1.14505,0.42405 1.71956,0.63979l0.8558,0.32454c1.13709,0.43148 2.23569,0.85925 3.20427,1.24018l0.35824,0.14064c1.89072,0.74289 3.19499,1.2776 3.19499,1.2776l-1.51656,-8.2661z" />
            <path stroke="null" id="svg_5" fill="white"
                d="m107.36333,12.00972l0.0146,0c0.18708,0.01128 0.94602,0.42591 0.94602,0.42591l5.70666,3.0018l-1.11851,-7.12928l-20.58431,-0.70534l0.48827,6.19108l1.3653,-0.53086l0.92081,-0.35652l0.24414,-0.09381c1.21272,-0.47089 2.48646,-0.96619 2.88186,-1.12568l0.41131,-0.16134l0.0146,0c0.04113,-0.01552 0.08226,-0.02561 0.12472,-0.02999l0.05307,0l0.03317,0c0.02654,0.01035 0.04909,0.02654 0.06899,0.04737c0.01858,0.02083 0.03317,0.04564 0.04113,0.07271c0.02388,0.108 0.04113,0.21773 0.05042,0.32826l1.90134,18.60735l-1.63199,1.72792l12.72687,2.30389l-2.11893,-2.54405l-2.64038,-19.78928l0,-0.05626c0,0 -0.05971,-0.18761 0.1088,-0.18761" />
            <path stroke="null" id="svg_6" fill="white"
                d="m70.16694,20.42973l-5.58844,-3.0018c-0.17514,3.53081 4.69615,3.10689 5.58844,3.0018z" />
            <path stroke="null" id="svg_7" fill="white"
                d="m82.00246,20.34535c0.1287,-0.02813 0.26006,-0.05811 0.38876,-0.09381c0.37682,-0.10084 0.73771,-0.25634 1.07075,-0.46147c0.13401,-0.08545 0.26138,-0.18151 0.38212,-0.28699c0.07828,-0.07098 0.15258,-0.14688 0.22158,-0.22702c0.14064,-0.16585 0.2574,-0.35094 0.3463,-0.5497c0.04644,-0.10535 0.08624,-0.21375 0.11676,-0.32467c0.08624,-0.31751 0.11941,-0.64709 0.09951,-0.97548l-5.58884,3.00167c0.9853,0.11968 1.98254,0.09115 2.9604,-0.08439" />
            <path stroke="null" id="svg_8" fill="white"
                d="m91.92576,31.04855l-0.12339,-0.32268l-0.04379,-0.12565l-0.05042,-0.13706c-0.16851,-0.46704 -0.37284,-1.08813 -0.59044,-1.84601c-0.07298,-0.25329 -0.14728,-0.52157 -0.22158,-0.80485c-0.03848,-0.14078 -0.07563,-0.28712 -0.11278,-0.43533c-0.03715,-0.14821 -0.07165,-0.30198 -0.11013,-0.45961c-0.03715,-0.15763 -0.0743,-0.31512 -0.1088,-0.47845c-0.03582,-0.1632 -0.07298,-0.33011 -0.1088,-0.50088c-0.0345,-0.17076 -0.07032,-0.34338 -0.10615,-0.52157c-0.10217,-0.53086 -0.20035,-1.0937 -0.2919,-1.68851c-0.11941,-0.788 -0.22556,-1.62655 -0.30782,-2.51207c-0.0199,-0.22145 -0.03848,-0.44462 -0.05573,-0.67164c-0.01725,-0.22702 -0.03317,-0.45775 -0.04909,-0.69048c-0.04246,-0.69791 -0.06899,-1.42023 -0.07828,-2.16683c0,-0.49716 0,-1.0056 0.01194,-1.52346c0.02388,-1.03558 0.08492,-2.10872 0.18576,-3.2194c0.02654,-0.27571 0.05573,-0.56284 0.09022,-0.83669c0,0 -0.79609,-0.18761 -2.10567,-0.45032l-0.28129,-0.05626c0,-0.05626 0,-0.1145 0,-0.17448c0,-5.06554 -5.77433,-9.15547 -12.87561,-9.15547c-7.10115,0 -12.87787,4.09935 -12.87787,9.15547c0,0.05997 0,0.11822 0,0.17633c-0.92201,0.18761 -1.62244,0.3321 -2.01743,0.4202l-0.08372,0.01884l-0.07271,0.01685l-0.06329,0.01499l-0.09129,0.0207l-0.03914,0l-0.01499,0c0.07709,0.64656 0.13918,1.28264 0.18629,1.90797c0.02242,0.31326 0.04286,0.62281 0.05785,0.93806c0.01486,0.31512 0.02786,0.60967 0.03728,0.90993c0.01858,0.60039 0.02415,1.18565 0.01858,1.75976c0,0.14515 0,0.28765 0,0.42777c0,0.42591 -0.02242,0.8424 -0.041,1.25133c-0.02614,0.54599 -0.06329,1.07698 -0.10615,1.59285c-0.02242,0.25701 -0.04657,0.51215 -0.07085,0.76173c-0.05214,0.50021 -0.11052,0.9849 -0.17514,1.45393c-0.01672,0.11636 -0.03158,0.23272 -0.04843,0.3471c-0.20446,1.40723 -0.48296,2.80251 -0.83444,4.18002c-0.02242,0.08439 -0.04286,0.16506 -0.06342,0.24573c-0.04286,0.1632 -0.08571,0.31897 -0.12844,0.47089c-0.02057,0.0751 -0.041,0.15006 -0.06342,0.2233c-0.272,0.95306 -0.52529,1.68851 -0.70972,2.18382c-0.01486,0.03755 -0.028,0.07497 -0.04286,0.1088l-0.03728,0.10124c-0.02601,0.06382 -0.04843,0.12193 -0.06886,0.17448c-0.02057,0.05254 -0.041,0.09951 -0.05586,0.14078c0.27943,0.15948 0.58672,0.35267 0.90529,0.56284c0.529,0.35081 1.086,0.75045 1.58529,1.12568l0.17143,0.12379l0.16386,0.12193l0.31114,0.23458l0.14343,0.11066c0.27943,0.21574 0.50671,0.39778 0.65572,0.51773l0.18629,0.15948l3.45929,-6.33929l-2.22057,7.37686c0.29562,0.26258 0.59495,0.53909 0.89786,0.82926c0.30305,0.29018 0.60423,0.59402 0.90357,0.91179c0.62613,0.66076 1.21683,1.35455 1.76971,2.07873l0.01858,0.02428c0.462,0.60795 0.90901,1.25517 1.33001,1.93995c0.13971,0.22888 0.27757,0.46147 0.41171,0.69791c0.259,0.42405 0.53099,0.88924 0.80843,1.38454c0.14038,0.25024 0.28076,0.50592 0.421,0.76743c0.06899,0.13308 0.13971,0.26629 0.20871,0.40136c0.06886,0.1352 0.13971,0.27027 0.21043,0.40906l0,-15.20219l0,-6.65826l-6.15844,-2.45396l-1.62443,-5.77473l10.5753,5.77287l0,9.40305l2.28386,2.01491l2.28943,-2.01491l0,-9.39934l3.96614,-2.16697l0.23883,-0.12937l-2.69424,-5.96605l3.75172,5.38637l0.46969,-0.25714l4.8429,-2.64714l-1.62403,5.77473l-1.77131,0.70534l-0.02786,0.01128l3.19101,9.56824l-4.44883,-9.0598l-0.04511,0.01685l-3.05846,1.22134l-0.02229,21.09885l0.01115,0.77287l1.29299,-2.29633l0.07828,-0.13136c0.16718,-0.30013 0.32905,-0.60224 0.49358,-0.90237c0.35692,-0.60596 0.73506,-1.18379 1.12647,-1.73163c0.13268,-0.18761 0.26536,-0.36209 0.39937,-0.53842l0.01061,-0.01698c0.43122,-0.56284 0.87438,-1.09556 1.32417,-1.59457c0.33701,-0.37523 0.67668,-0.73174 1.01767,-1.06942l0.33967,-0.3321l-1.58024,-5.44077l2.39226,4.69974l1.67578,-1.41466l0.2521,-0.19889l0.14462,-0.11251l0.15524,-0.12008l0.34497,-0.26072c0.11809,-0.09009 0.24546,-0.18761 0.37151,-0.27585c0.50021,-0.37523 1.05615,-0.77486 1.58821,-1.12568c0.20964,-0.14263 0.41795,-0.27571 0.61565,-0.39579c0.09951,-0.06011 0.19637,-0.11636 0.28925,-0.1689l-0.09553,-0.23445" />
        </g>
    </g>
</svg>