<svg width="187" height="98" viewBox="0 0 187 98" fill="none" xmlns="http://www.w3.org/2000/svg">
    <g filter="url(#filter0_d_69_840)">
        <path
            d="M81.6966 47.7176L79.8869 46.4266L77.5492 40.3846C77.6896 40.3493 77.83 40.3083 77.9634 40.2644C78.0968 40.2206 78.1922 40.1782 78.2961 40.1315C78.6521 39.9757 78.9724 39.7475 79.2368 39.4613C79.3424 39.3485 79.4364 39.2253 79.5176 39.0937C79.7132 38.7819 79.8249 38.4242 79.8419 38.0558L80.1466 32.455C80.1466 32.414 80.1466 32.3716 80.1466 32.3263C80.1466 32.2811 80.1466 32.2344 80.1564 32.1849C80.1658 32.0867 80.1691 31.988 80.1662 31.8894C80.1639 31.8008 80.1554 31.7124 80.141 31.625V31.5967C80.1138 31.4463 80.0666 31.3003 80.0006 31.1626C79.9795 31.1216 79.9571 31.0806 79.9346 31.0424C79.7673 30.7773 79.5274 30.5666 79.2438 30.4358L79.1582 30.3962C79.1006 30.3722 79.0473 30.3538 78.9995 30.3368L78.9293 30.3156C78.5291 30.2236 78.1219 30.165 77.7121 30.1403C77.4453 30.1205 77.1744 30.1092 76.9104 30.1035C76.7518 30.1035 76.5973 30.1035 76.4471 30.1035L74.9125 30.1502L63.5431 30.4867L64.5722 32.0746L62.1181 49.0524L60.5273 50.9415L70.1362 49.034L68.8544 47.6921L69.6083 41.2627C69.7309 41.2491 69.8542 41.242 69.9775 41.2415C70.1263 41.2409 70.2747 41.2536 70.4212 41.2797C70.6853 41.3276 70.9298 41.4521 71.1246 41.638C71.3194 41.8239 71.456 42.063 71.5177 42.326L72.186 44.9334L72.7476 47.135L71.6174 48.7555L81.6966 47.7176ZM71.8266 38.7897C71.6441 38.8165 71.5093 38.8264 71.47 38.8292L70.066 38.9353H70.0042C69.89 38.9351 69.7771 38.9105 69.6729 38.8633C69.5687 38.8161 69.4756 38.7472 69.3997 38.6613C69.3237 38.5753 69.2667 38.4742 69.2322 38.3645C69.1978 38.2548 69.1867 38.139 69.1997 38.0247L69.7613 33.2171C69.7841 33.0231 69.8753 32.8437 70.0183 32.7116C70.1613 32.5795 70.3466 32.5035 70.5405 32.4974L72.3278 32.4423H72.3685C72.6398 32.4448 72.9091 32.4887 73.1674 32.5723C73.6653 32.7202 74.0854 33.0595 74.3369 33.5169C74.3495 33.5409 74.3608 33.5664 74.372 33.5918C74.4984 33.8987 74.5363 34.2988 74.4899 34.8206L74.3313 36.5895V36.6418V36.6757C74.3243 36.738 74.313 36.7917 74.306 36.8256V36.8412C74.2904 36.9088 74.2707 36.9754 74.2471 37.0406C74.1677 37.2789 74.0475 37.5015 73.8918 37.6981C73.8482 37.7572 73.8013 37.8138 73.7514 37.8677C73.5903 38.0452 73.4056 38.1994 73.2025 38.3259C72.7812 38.5758 72.3124 38.7338 71.8266 38.7897Z"
            fill="white" />
        <path
            d="M61.0569 32.1609C61.0569 32.11 61.0569 32.0619 61.0457 32.0195C61.0373 31.9317 61.0218 31.8447 60.9994 31.7593V31.741C60.9994 31.724 60.9895 31.7028 60.9853 31.6872C60.9761 31.657 60.9653 31.6273 60.953 31.5981C60.9325 31.5533 60.909 31.5098 60.8828 31.4681C60.8828 31.4582 60.8688 31.4497 60.8632 31.4384C60.8576 31.427 60.8519 31.42 60.8449 31.4101C60.8379 31.4002 60.814 31.3691 60.7986 31.3493L60.7789 31.3238C60.5718 31.0933 60.3085 30.9213 60.0152 30.8247C59.8823 30.7727 59.7444 30.7348 59.6038 30.7116L59.5308 30.6988C59.469 30.6889 59.4044 30.6805 59.3328 30.6734C59.2612 30.6663 59.1924 30.6593 59.1054 30.655C58.965 30.6451 58.8456 30.6409 58.7375 30.6409C58.5059 30.6409 58.3529 30.6578 58.3529 30.6578C58.1282 30.6692 57.8039 30.6875 57.408 30.713L46.0512 31.5289L45.7198 31.5543L44.8199 31.6222L45.6763 33.4901L41.7451 54.8144L40 57.4572L41.5697 56.7686C41.5697 56.7686 41.9515 56.6173 42.5932 56.3684L42.7925 56.2906L43.2432 56.1196L43.7402 55.9287L44.285 55.7208C45.418 55.2966 46.8023 54.7734 48.2231 54.263L49.2944 53.8826C49.6622 53.7657 50.0212 53.6536 50.3712 53.5461C50.8949 53.3849 51.3961 53.235 51.8707 53.095C53.2971 52.6708 54.4961 52.3343 55.3933 52.043L55.6811 51.9483C55.7737 51.9158 55.8622 51.8861 55.9464 51.855L56.1009 51.7998L56.1289 51.7885C56.1977 51.763 56.2693 51.7376 56.3297 51.7107L56.3508 51.7022L56.414 51.6754C56.4519 51.6598 56.4898 51.6443 56.5249 51.6273C56.6274 51.5821 56.7228 51.534 56.8169 51.4859C56.911 51.4378 56.9868 51.394 57.0654 51.3445C57.0804 51.3373 57.0949 51.3293 57.1089 51.3205C57.2582 51.2319 57.4026 51.1352 57.5413 51.0306C57.6059 50.9811 57.6691 50.9316 57.7281 50.8821C57.8907 50.745 58.0424 50.5951 58.1816 50.4339C58.2237 50.3844 58.263 50.3349 58.2995 50.2925C58.336 50.2501 58.3711 50.1964 58.4034 50.1511C58.4284 50.1099 58.4514 50.0674 58.4722 50.0238C58.5389 49.8903 58.5966 49.7523 58.6449 49.611C58.6659 49.553 58.6856 49.4908 58.7067 49.4257C58.7488 49.2942 58.7895 49.1429 58.8302 48.9761C58.8709 48.8092 58.9116 48.6183 58.9495 48.4105C58.9706 48.2959 58.9903 48.1743 59.0099 48.0471C59.0296 47.9198 59.0492 47.7841 59.0661 47.6427L59.6038 44.1148C59.8692 42.3742 59.1236 41.7435 58.5957 41.5145C58.5199 41.4876 58.4427 41.4607 58.3641 41.4409L58.3149 41.4282C58.2195 41.407 58.1254 41.3886 58.0341 41.3716C57.8084 41.3315 57.5796 41.3116 57.3504 41.3123C57.1091 41.3115 56.8682 41.3309 56.6302 41.3702H56.6175H56.6302C57.2526 41.2655 57.8513 41.049 58.3978 40.7311C58.5724 40.6297 58.7399 40.5163 58.899 40.3917C58.9734 40.3324 59.0394 40.273 59.1096 40.2122C59.3996 39.9503 59.6448 39.6422 59.8355 39.3001C59.8955 39.1926 59.9494 39.0816 59.9969 38.9679C60.0194 38.9155 60.039 38.8661 60.0559 38.818C60.1196 38.6496 60.1666 38.4753 60.1963 38.2976C60.1963 38.2792 60.2033 38.2623 60.2061 38.2481L60.2145 38.1902V38.1831L60.3016 37.5821L60.6076 35.5036L60.9376 33.3826C60.9376 33.3826 61.0429 32.6982 61.0667 32.3278C61.0667 32.2726 61.0667 32.2161 61.0667 32.1651L61.0569 32.1609ZM53.8236 45.6292C53.8243 45.6357 53.8243 45.6424 53.8236 45.649L53.7632 46.0449L53.7141 46.363L53.4263 48.0202C53.3726 48.2951 53.278 48.5601 53.1455 48.8064C53.1132 48.8686 53.0795 48.9308 53.043 48.9902C52.8691 49.2838 52.6534 49.5501 52.4028 49.7806C52.252 49.9196 52.0905 50.0463 51.9198 50.1596C51.7283 50.2862 51.5269 50.3969 51.3175 50.4905C51.2894 50.5032 51.2613 50.5131 51.2333 50.523L48.9546 51.2526C48.8751 51.2777 48.7922 51.2906 48.7089 51.2908C48.5907 51.2907 48.4739 51.2646 48.3667 51.2142C48.2596 51.1639 48.1647 51.0905 48.0887 50.9993C48.0127 50.9081 47.9574 50.8012 47.9268 50.6862C47.8962 50.5712 47.8909 50.4508 47.9114 50.3335L48.9392 44.4428C48.9666 44.2839 49.0402 44.1368 49.1507 44.02C49.2611 43.9033 49.4035 43.8221 49.5597 43.7867L51.2726 43.4021H51.2866L51.3386 43.3922L51.4495 43.3738L51.6123 43.3526L51.8145 43.3357C51.8749 43.3357 51.9353 43.3357 51.9928 43.3357C52.5825 43.3357 53.0444 43.4955 53.3659 43.8094L53.4052 43.8504C53.4521 43.9005 53.4948 43.9544 53.533 44.0116C53.5583 44.0469 53.5751 44.0766 53.5863 44.095L53.6004 44.119C53.6335 44.1772 53.6626 44.2377 53.6874 44.3C53.7302 44.4045 53.7626 44.5129 53.7843 44.6238C53.8025 44.7172 53.8152 44.8117 53.8222 44.9066C53.8222 44.9151 53.8222 44.9236 53.8222 44.9306C53.831 45.1621 53.8207 45.3938 53.7913 45.6235L53.8236 45.6292ZM55.2388 35.9037C55.2388 35.9744 55.2388 36.0451 55.2262 36.1286C55.2262 36.1455 55.2262 36.1639 55.2262 36.1809V36.1936C55.2262 36.2784 55.2093 36.3661 55.1995 36.4538C55.1995 36.5075 55.1855 36.5627 55.177 36.6178C55.1686 36.6729 55.1602 36.738 55.1504 36.7974L55.1419 36.8483L55.1307 36.9176L55.1223 36.9755L55.1139 37.0236L55.0928 37.1565V37.1919L55.0802 37.2739L55.0661 37.3587L55.0563 37.4238L55.0479 37.4747L55.0366 37.5525C55.036 37.5595 55.036 37.5666 55.0366 37.5737C54.9117 38.3075 54.8317 38.719 54.8148 38.8052C54.7772 39.0088 54.716 39.2072 54.6323 39.3963C54.607 39.4529 54.5804 39.5094 54.5523 39.5646C54.37 39.9243 54.1168 40.2428 53.8082 40.5006C53.4853 40.7696 53.1132 40.9723 52.7131 41.0973H52.7046L52.5951 41.1298C52.5067 41.1539 52.4 41.1836 52.2792 41.2076L52.2175 41.2189L51.4045 41.3801L51.2768 41.4056L51.1588 41.4282L50.8303 41.4932L50.732 41.5116L50.6562 41.5272H50.6394L50.5593 41.5427C50.5162 41.55 50.4725 41.5538 50.4288 41.554C50.3108 41.5537 50.1942 41.5275 50.0873 41.4771C49.9804 41.4268 49.8857 41.3535 49.8098 41.2625C49.7338 41.1715 49.6785 41.0649 49.6477 40.9502C49.6169 40.8355 49.6113 40.7153 49.6313 40.5982L50.6562 34.6962C50.6867 34.5198 50.774 34.3583 50.9047 34.2369C51.0354 34.1155 51.2022 34.0409 51.3793 34.0245L52.5881 33.9114H52.6344C52.821 33.8919 53.0084 33.882 53.196 33.8817C53.45 33.8783 53.7035 33.9049 53.9514 33.9609H53.9724C53.9893 33.9609 54.0145 33.9708 54.0454 33.9807L54.0932 33.9963H54.1016C54.1877 34.0258 54.2716 34.0612 54.3529 34.1023C54.5277 34.1899 54.6863 34.3071 54.8218 34.4487L54.8387 34.4671C54.883 34.5164 54.9243 34.5683 54.9622 34.6227C54.9735 34.6368 54.9945 34.6665 55.0184 34.7033C55.0423 34.74 55.0731 34.7994 55.0872 34.8291V34.8376L55.0942 34.8503C55.1317 34.9261 55.1636 35.0045 55.1897 35.085C55.1891 35.0921 55.1891 35.0992 55.1897 35.1063C55.1981 35.1331 55.2065 35.1642 55.2135 35.1953C55.2206 35.2264 55.2234 35.2434 55.229 35.2717C55.2346 35.3 55.2402 35.3438 55.2444 35.3876C55.255 35.4881 55.2602 35.5892 55.2599 35.6902C55.2599 35.751 55.2599 35.8161 55.2599 35.8825"
            fill="white" />
        <path
            d="M145.012 50.9415L140.66 51.3402L136.772 50.0846L135.757 44.3594L139.267 45.1257L141.866 46.7646L140.831 40.7622L138.674 41.2514L136.709 40.8753L135.118 40.5699L134.103 34.7386L137.78 35.1628L142.598 37.8494L141.475 31.5486C141.204 31.526 140.759 31.4921 140.189 31.4511L139.247 31.386C138.224 31.3153 136.971 31.2333 135.652 31.1485L135.32 31.1273L133.977 31.041L131.323 30.8741L130.693 30.8346C128.107 30.6719 126.092 30.5518 126.092 30.5518L127.591 32.2966L130.423 50.1129L129.3 51.4746C129.454 51.5057 129.682 51.5594 129.958 51.6315L130.176 51.6895C130.401 51.7489 130.651 51.8182 130.913 51.8917L131.08 51.9384L131.598 52.0798L131.774 52.1292L132.658 52.3866L132.831 52.4375L133.171 52.5379L133.652 52.6793C134.471 52.9225 135.07 53.1035 135.07 53.1035L135.23 53.1459C136.32 53.4867 137.522 53.8812 138.801 54.3252L139.121 54.4411C139.542 54.5981 139.984 54.7607 140.417 54.9233L141.062 55.1679C141.919 55.4931 142.747 55.8155 143.477 56.1026L143.747 56.2086C145.172 56.7685 146.155 57.1715 146.155 57.1715L145.012 50.9415Z"
            fill="white" />
        <path
            d="M120.107 33.3401H120.118C120.259 33.3486 120.831 33.6611 120.831 33.6611L125.132 35.9235L124.289 30.5503L108.775 30.0187L109.143 34.6848L110.172 34.2847L110.866 34.016L111.05 33.9453C111.964 33.5904 112.924 33.2171 113.222 33.0969L113.532 32.9753H113.543C113.574 32.9636 113.605 32.956 113.637 32.9527H113.677H113.702C113.722 32.9605 113.739 32.9727 113.754 32.9884C113.768 33.0041 113.779 33.0228 113.785 33.0432C113.803 33.1246 113.816 33.2073 113.823 33.2906L115.256 47.3146L114.026 48.6169L123.618 50.3533L122.021 48.4359L120.031 33.5211V33.4787C120.031 33.4787 119.986 33.3373 120.113 33.3373"
            fill="white" />
        <path d="M92.0728 39.6861L87.8609 37.4237C87.7289 40.0848 91.4003 39.7653 92.0728 39.6861Z" fill="white" />
        <path
            d="M100.993 39.6225C101.09 39.6013 101.189 39.5787 101.286 39.5518C101.57 39.4758 101.842 39.3586 102.093 39.204C102.194 39.1396 102.29 39.0672 102.381 38.9877C102.44 38.9342 102.496 38.877 102.548 38.8166C102.654 38.6916 102.742 38.5521 102.809 38.4023C102.844 38.3229 102.874 38.2412 102.897 38.1576C102.962 37.9183 102.987 37.6699 102.972 37.4224L98.7598 39.6847C99.5024 39.7749 100.254 39.7534 100.991 39.6211"
            fill="white" />
        <path
            d="M108.472 47.6893L108.379 47.4461L108.346 47.3514L108.308 47.2481C108.181 46.8961 108.027 46.428 107.863 45.8568C107.808 45.6659 107.752 45.4637 107.696 45.2502C107.667 45.1441 107.639 45.0338 107.611 44.9221C107.583 44.8104 107.557 44.6945 107.528 44.5757C107.5 44.4569 107.472 44.3382 107.446 44.2151C107.419 44.0921 107.391 43.9663 107.364 43.8376C107.338 43.7089 107.311 43.5788 107.284 43.4445C107.207 43.0444 107.133 42.6202 107.064 42.1719C106.974 41.578 106.894 40.946 106.832 40.2786C106.817 40.1117 106.803 39.9435 106.79 39.7724C106.777 39.6013 106.765 39.4274 106.753 39.252C106.721 38.726 106.701 38.1816 106.694 37.6189C106.694 37.2442 106.694 36.861 106.703 36.4707C106.721 35.6902 106.767 34.8814 106.843 34.0443C106.863 33.8365 106.885 33.6201 106.911 33.4137C106.911 33.4137 106.311 33.2723 105.324 33.0743L105.112 33.0319C105.112 32.9895 105.112 32.9456 105.112 32.9004C105.112 29.0826 100.76 26.0001 95.4079 26.0001C90.0559 26.0001 85.7021 29.0897 85.7021 32.9004C85.7021 32.9456 85.7021 32.9895 85.7021 33.0333C85.0072 33.1747 84.4793 33.2836 84.1816 33.35L84.1185 33.3642L84.0637 33.3769L84.016 33.3882L83.9472 33.4038H83.9177H83.9064C83.9645 33.8911 84.0113 34.3705 84.0468 34.8418C84.0637 35.0779 84.0791 35.3112 84.0904 35.5488C84.1016 35.7863 84.1114 36.0083 84.1185 36.2346C84.1325 36.6871 84.1367 37.1282 84.1325 37.5609C84.1325 37.6703 84.1325 37.7777 84.1325 37.8833C84.1325 38.2043 84.1156 38.5182 84.1016 38.8264C84.0819 39.2379 84.0539 39.6381 84.0216 40.0269C84.0047 40.2206 83.9865 40.4129 83.9682 40.601C83.9289 40.978 83.8849 41.3433 83.8362 41.6968C83.8236 41.7845 83.8124 41.8722 83.7997 41.9584C83.6456 43.019 83.4357 44.0706 83.1708 45.1088C83.1539 45.1724 83.1385 45.2332 83.123 45.294C83.0907 45.417 83.0584 45.5344 83.0262 45.6489C83.0107 45.7055 82.9953 45.762 82.9784 45.8172C82.7734 46.5355 82.5825 47.0898 82.4435 47.4631C82.4323 47.4914 82.4224 47.5196 82.4112 47.5451L82.3831 47.6214C82.3635 47.6695 82.3466 47.7133 82.3312 47.7529C82.3157 47.7925 82.3003 47.8279 82.2891 47.859C82.4997 47.9792 82.7313 48.1248 82.9714 48.2832C83.3701 48.5476 83.7899 48.8488 84.1662 49.1316L84.2954 49.2249L84.4189 49.3168L84.6534 49.4936L84.7615 49.577C84.9721 49.7396 85.1434 49.8768 85.2557 49.9672L85.3961 50.0874L88.0033 45.3096L86.3297 50.8694C86.5525 51.0673 86.7781 51.2757 87.0064 51.4944C87.2348 51.7131 87.4618 51.9421 87.6874 52.1816C88.1593 52.6796 88.6045 53.2025 89.0212 53.7483L89.0352 53.7666C89.3834 54.2248 89.7203 54.7126 90.0376 55.2287C90.1429 55.4012 90.2468 55.5765 90.3479 55.7547C90.5431 56.0743 90.7481 56.4249 90.9572 56.7982C91.063 56.9868 91.1688 57.1795 91.2745 57.3766C91.3265 57.4769 91.3798 57.5773 91.4318 57.6791C91.4837 57.781 91.5371 57.8828 91.5904 57.9874V46.5298V41.5116L86.9489 39.6621L85.7246 35.3098L93.695 39.6607V46.7476L95.4163 48.2662L97.1418 46.7476V39.6635L100.131 38.0303L100.311 37.9328L98.2804 33.4363L101.108 37.4959L101.462 37.3021L105.112 35.307L103.888 39.6593L102.553 40.1909L102.532 40.1994L104.937 47.4108L101.584 40.5826L101.55 40.5953L99.2449 41.5158L99.2281 57.4176L99.2365 58.0001L100.211 56.2694L100.27 56.1704C100.396 55.9442 100.518 55.7165 100.642 55.4903C100.911 55.0336 101.196 54.5981 101.491 54.1852C101.591 54.0438 101.691 53.9123 101.792 53.7794L101.8 53.7666C102.125 53.3424 102.459 52.9409 102.798 52.5648C103.052 52.282 103.308 52.0133 103.565 51.7588L103.821 51.5085L102.63 47.4079L104.433 50.95L105.696 49.8838L105.886 49.7339L105.995 49.6491L106.112 49.5586L106.372 49.3621C106.461 49.2942 106.557 49.2207 106.652 49.1542C107.029 48.8714 107.448 48.5702 107.849 48.3058C108.007 48.1983 108.164 48.098 108.313 48.0075C108.388 47.9622 108.461 47.9198 108.531 47.8802L108.459 47.7035"
            fill="white" />
    </g>
    <defs>
        <filter id="filter0_d_69_840" x="0" y="-13.9999" width="186.154" height="112" filterUnits="userSpaceOnUse"
            color-interpolation-filters="sRGB">
            <feFlood flood-opacity="0" result="BackgroundImageFix" />
            <feColorMatrix in="SourceAlpha" type="matrix" values="0 0 0 0 0 0 0 0 0 0 0 0 0 0 0 0 0 0 127 0"
                result="hardAlpha" />
            <feOffset />
            <feGaussianBlur stdDeviation="20" />
            <feComposite in2="hardAlpha" operator="out" />
            <feColorMatrix type="matrix" values="0 0 0 0 1 0 0 0 0 1 0 0 0 0 1 0 0 0 0.3 0" />
            <feBlend mode="normal" in2="BackgroundImageFix" result="effect1_dropShadow_69_840" />
            <feBlend mode="normal" in="SourceGraphic" in2="effect1_dropShadow_69_840" result="shape" />
        </filter>
    </defs>
</svg>