<svg width="27" height="32" viewBox="0 0 27 32" fill="none" xmlns="http://www.w3.org/2000/svg">
<path d="M10.0748 13.6862L5.86285 11.4238C5.73087 14.085 9.40228 13.7654 10.0748 13.6862Z" fill="white"/>
<path d="M18.9915 13.622C19.0884 13.6008 19.1867 13.5782 19.2836 13.5513C19.5679 13.4753 19.8399 13.3581 20.0909 13.2035C20.1923 13.1391 20.2885 13.0668 20.3787 12.9872C20.4379 12.9337 20.4937 12.8766 20.5458 12.8161C20.6519 12.6911 20.7398 12.5516 20.8069 12.4018C20.842 12.3224 20.8716 12.2407 20.8953 12.1572C20.96 11.9178 20.9851 11.6694 20.9698 11.4219L16.7578 13.6843C17.5005 13.7744 18.2523 13.7529 18.9887 13.6206" fill="white"/>
<path d="M26.4719 21.6892L26.3793 21.446L26.3456 21.3512L26.3077 21.248C26.1813 20.8959 26.0269 20.4279 25.8626 19.8567C25.8078 19.6658 25.7517 19.4636 25.6955 19.2501C25.6674 19.144 25.6394 19.0337 25.6113 18.922C25.5832 18.8103 25.5565 18.6944 25.5284 18.5756C25.5004 18.4568 25.4723 18.338 25.4456 18.215C25.4189 18.092 25.3909 17.9662 25.3642 17.8375C25.3375 17.7088 25.3108 17.5787 25.2842 17.4444C25.2069 17.0442 25.1325 16.62 25.0637 16.1718C24.9739 15.5779 24.8938 14.9459 24.8321 14.2785C24.8166 14.1116 24.8026 13.9434 24.7899 13.7723C24.7773 13.6012 24.7647 13.4272 24.7534 13.2519C24.7207 12.7259 24.701 12.1815 24.6945 11.6188C24.6945 11.244 24.6945 10.8609 24.7029 10.4706C24.7212 9.69007 24.7675 8.88127 24.8433 8.04419C24.863 7.83633 24.8854 7.61999 24.9107 7.41355C24.9107 7.41355 24.3112 7.27215 23.3242 7.07419L23.1122 7.03177C23.1122 6.98935 23.1122 6.94552 23.1122 6.90027C23.1122 3.0825 18.7598 0 13.4079 0C8.05589 0 3.70214 3.08957 3.70214 6.90027C3.70214 6.94552 3.70214 6.98935 3.70214 7.03319C3.00717 7.17459 2.47927 7.28346 2.18163 7.34992L2.11845 7.36406L2.06369 7.37678L2.01596 7.38809L1.94716 7.40365H1.91768H1.90645C1.96448 7.89101 2.01128 8.37035 2.04685 8.84168C2.06369 9.07781 2.07914 9.31112 2.09037 9.54867C2.1016 9.78622 2.11143 10.0082 2.11845 10.2345C2.13249 10.6869 2.1367 11.1281 2.13249 11.5608C2.13249 11.6701 2.13249 11.7776 2.13249 11.8832C2.13249 12.2041 2.11564 12.5181 2.1016 12.8263C2.08195 13.2378 2.05387 13.6379 2.02158 14.0268C2.00473 14.2205 1.98648 14.4128 1.96822 14.6009C1.92891 14.9779 1.88492 15.3432 1.83625 15.6967C1.82361 15.7844 1.81238 15.872 1.79974 15.9583C1.64563 17.0189 1.43568 18.0705 1.17076 19.1087C1.15392 19.1723 1.13847 19.2331 1.12303 19.2939C1.09074 19.4169 1.05844 19.5343 1.02615 19.6488C1.01071 19.7054 0.995266 19.7619 0.978418 19.8171C0.773437 20.5354 0.582496 21.0897 0.443501 21.463C0.43227 21.4912 0.42244 21.5195 0.411208 21.545L0.383127 21.6213C0.363471 21.6694 0.346624 21.7132 0.33118 21.7528C0.315736 21.7924 0.300294 21.8278 0.289062 21.8589C0.49966 21.9791 0.731315 22.1247 0.971396 22.2831C1.37013 22.5475 1.78992 22.8487 2.16619 23.1315L2.29535 23.2248L2.4189 23.3167L2.65337 23.4934L2.76147 23.5769C2.97207 23.7395 3.14336 23.8766 3.25568 23.9671L3.39608 24.0873L6.00327 19.3094L4.32972 24.8693C4.55249 25.0672 4.77806 25.2755 5.00644 25.4942C5.23482 25.7129 5.4618 25.942 5.68737 26.1814C6.15929 26.6794 6.60452 27.2024 7.02115 27.7481V27.7481L7.03519 27.7665C7.38338 28.2247 7.72034 28.7125 8.03764 29.2286C8.14294 29.4011 8.24683 29.5764 8.34792 29.7546C8.54307 30.0742 8.74805 30.4248 8.95725 30.7981C9.06301 30.9866 9.16878 31.1794 9.27455 31.3764C9.32649 31.4768 9.37984 31.5772 9.43179 31.679C9.48374 31.7808 9.53709 31.8826 9.59044 31.9873V20.5297V15.5115L4.94888 13.662L3.72461 9.30971L11.695 13.6606V20.7475L13.4163 22.2661L15.1418 20.7475V13.6634L18.1309 12.0302L18.3106 11.9327L16.2804 7.43617L19.108 11.4957L19.4618 11.302L23.1122 9.30688L21.8879 13.6591L20.5527 14.1908L20.5317 14.1993L22.9367 21.4106L19.584 14.5825L19.5503 14.5952L17.245 15.5157L17.2281 31.4174L17.2365 32L18.2109 30.2693L18.2699 30.1703C18.3962 29.9441 18.5184 29.7164 18.6419 29.4902C18.9115 29.0335 19.1965 28.5979 19.4913 28.1851C19.591 28.0437 19.6907 27.9122 19.7918 27.7792L19.8002 27.7665C20.1245 27.3423 20.4587 26.9407 20.7984 26.5646C21.0521 26.2818 21.3076 26.0132 21.565 25.7587L21.8205 25.5084L20.63 21.4078L22.4327 24.9498L23.6962 23.8837L23.8858 23.7338L23.9953 23.649L24.1118 23.5585L24.3716 23.3619C24.4614 23.2941 24.5569 23.2205 24.6524 23.1541C25.0286 22.8713 25.4484 22.5701 25.8486 22.3057C26.0072 22.1982 26.1645 22.0978 26.3133 22.0073C26.3877 21.9621 26.4607 21.9197 26.5309 21.8801L26.4593 21.7033" fill="white"/>
</svg>
