<svg width="63" height="63" viewBox="0 0 63 63" fill="none" xmlns="http://www.w3.org/2000/svg">
<circle cx="31.5" cy="31.5" r="31.5" fill="#CF2A36"/>
<path d="M27.08 27.692L21.0196 24.4368C20.8298 28.2657 26.1124 27.8059 27.08 27.692Z" fill="white"/>
<path d="M39.9142 27.6005C40.0536 27.57 40.195 27.5375 40.3344 27.4988C40.7436 27.3893 41.1348 27.2208 41.496 26.9983C41.6419 26.9056 41.7804 26.8016 41.9101 26.687C41.9952 26.6101 42.0755 26.5279 42.1505 26.4409C42.3032 26.2611 42.4297 26.0604 42.5262 25.8447C42.5768 25.7306 42.6193 25.613 42.6535 25.4928C42.7465 25.1484 42.7827 24.791 42.7606 24.4348L36.7002 27.6901C37.7688 27.8197 38.8506 27.7889 39.9102 27.5985" fill="white"/>
<path d="M50.6733 39.2076L50.54 38.8577L50.4915 38.7213L50.437 38.5728C50.2552 38.0662 50.0329 37.3928 49.7966 36.5708C49.7178 36.2962 49.637 36.0052 49.5562 35.698C49.5158 35.5454 49.4754 35.3867 49.435 35.226C49.3946 35.0653 49.3562 34.8985 49.3158 34.7276C49.2754 34.5567 49.235 34.3858 49.1966 34.2088C49.1582 34.0318 49.1178 33.8507 49.0794 33.6655C49.0411 33.4804 49.0027 33.2932 48.9643 33.0999C48.8532 32.5242 48.7461 31.9138 48.6471 31.2689C48.5178 30.4144 48.4027 29.5049 48.3138 28.5446C48.2916 28.3046 48.2714 28.0625 48.2532 27.8163C48.235 27.5701 48.2168 27.3199 48.2007 27.0676C48.1535 26.3107 48.1253 25.5274 48.1158 24.7177C48.1158 24.1785 48.1158 23.6272 48.128 23.0657C48.1542 21.9426 48.2209 20.7789 48.33 19.5744C48.3583 19.2753 48.3906 18.9641 48.4269 18.667C48.4269 18.667 47.5644 18.4636 46.1442 18.1787L45.8392 18.1177C45.8392 18.0567 45.8392 17.9936 45.8392 17.9285C45.8392 12.4353 39.5768 8 31.8761 8C24.1753 8 17.9109 12.4454 17.9109 17.9285C17.9109 17.9936 17.9109 18.0567 17.9109 18.1197C16.911 18.3232 16.1514 18.4798 15.7231 18.5755L15.6322 18.5958L15.5534 18.6141L15.4848 18.6304L15.3858 18.6528H15.3433H15.3272C15.4107 19.354 15.478 20.0437 15.5292 20.7219C15.5534 21.0617 15.5757 21.3973 15.5918 21.7391C15.608 22.0809 15.6221 22.4004 15.6322 22.7259C15.6524 23.3769 15.6585 24.0117 15.6524 24.6343C15.6524 24.7916 15.6524 24.9462 15.6524 25.0982C15.6524 25.56 15.6282 26.0117 15.608 26.4552C15.5797 27.0472 15.5393 27.623 15.4928 28.1825C15.4686 28.4612 15.4423 28.7379 15.4161 29.0085C15.3595 29.5511 15.2962 30.0766 15.2262 30.5853C15.208 30.7114 15.1918 30.8376 15.1737 30.9617C14.9519 32.4877 14.6498 34.0008 14.2686 35.4946C14.2444 35.5861 14.2222 35.6736 14.2 35.7611C14.1535 35.9381 14.107 36.107 14.0606 36.2718C14.0383 36.3532 14.0161 36.4345 13.9919 36.5139C13.6969 37.5474 13.4222 38.3449 13.2222 38.8821C13.2061 38.9228 13.1919 38.9634 13.1757 39.0001L13.1353 39.1099C13.1071 39.1791 13.0828 39.2422 13.0606 39.2991C13.0384 39.3561 13.0162 39.407 13 39.4517C13.303 39.6247 13.6363 39.8342 13.9818 40.0621C14.5555 40.4425 15.1595 40.8759 15.7009 41.2828L15.8868 41.4171L16.0645 41.5493L16.4019 41.8036L16.5574 41.9237C16.8605 42.1577 17.1069 42.355 17.2685 42.4852L17.4705 42.6581L21.2219 35.7835L18.8139 43.7832C19.1344 44.0681 19.459 44.3678 19.7876 44.6825C20.1162 44.9972 20.4428 45.3268 20.7674 45.6713C21.4464 46.3878 22.087 47.1403 22.6865 47.9255V47.9255L22.7067 47.952C23.2077 48.6112 23.6925 49.3131 24.1491 50.0557C24.3006 50.3039 24.4501 50.5562 24.5955 50.8125C24.8763 51.2723 25.1713 51.7769 25.4723 52.314C25.6244 52.5853 25.7766 52.8627 25.9288 53.1461C26.0035 53.2906 26.0803 53.435 26.1551 53.5815C26.2298 53.728 26.3066 53.8745 26.3833 54.025V37.5393V30.3187L19.7048 27.6576L17.9432 21.3953L29.4115 27.6556V37.8526L31.8882 40.0377L34.3709 37.8526V27.6596L38.6718 25.3097L38.9303 25.1694L36.0092 18.6996L40.0778 24.5407L40.5868 24.262L45.8392 21.3912L44.0776 27.6535L42.1565 28.4185L42.1262 28.4307L45.5866 38.8068L40.7626 28.9821L40.7141 29.0004L37.3971 30.3248L37.3728 53.2051L37.3849 54.0433L38.7869 51.5531L38.8718 51.4107C39.0536 51.0852 39.2293 50.7576 39.4071 50.4321C39.7949 49.7749 40.205 49.1483 40.6293 48.5542C40.7727 48.3507 40.9161 48.1615 41.0616 47.9703L41.0737 47.952C41.5403 47.3416 42.0211 46.7638 42.51 46.2226C42.875 45.8157 43.2426 45.4292 43.613 45.063L43.9806 44.7028L42.2676 38.8027L44.8614 43.8992L46.6795 42.3652L46.9522 42.1495L47.1098 42.0274L47.2775 41.8972L47.6512 41.6144C47.7805 41.5168 47.9179 41.411 48.0552 41.3154C48.5966 40.9085 49.2007 40.4751 49.7764 40.0946C50.0047 39.94 50.2309 39.7956 50.4451 39.6654C50.5521 39.6003 50.6572 39.5392 50.7582 39.4823L50.6551 39.2279" fill="white"/>
</svg>
