<svg width="32" height="32" viewBox="0 0 32 32" fill="none" xmlns="http://www.w3.org/2000/svg">
<circle cx="16" cy="16" r="16" fill="#D5191B"/>
<path d="M13.4588 14.4308L10.2487 12.7065C10.1482 14.7347 12.9463 14.4911 13.4588 14.4308Z" fill="white"/>
<path d="M20.2561 14.3822C20.33 14.366 20.4049 14.3488 20.4787 14.3283C20.6954 14.2703 20.9027 14.181 21.094 14.0632C21.1713 14.0141 21.2446 13.959 21.3133 13.8983C21.3584 13.8575 21.401 13.814 21.4407 13.7679C21.5215 13.6727 21.5885 13.5664 21.6397 13.4521C21.6665 13.3917 21.689 13.3294 21.7071 13.2657C21.7564 13.0833 21.7755 12.894 21.7638 12.7053L18.5537 14.4296C19.1197 14.4983 19.6927 14.4819 20.254 14.3811" fill="white"/>
<path d="M25.9551 20.5302L25.8844 20.3449L25.8588 20.2727L25.8299 20.194C25.7336 19.9257 25.6159 19.569 25.4907 19.1336C25.4489 18.9881 25.4061 18.834 25.3633 18.6713C25.3419 18.5905 25.3205 18.5064 25.2991 18.4213C25.2777 18.3361 25.2574 18.2478 25.236 18.1572C25.2146 18.0667 25.1932 17.9762 25.1729 17.8824C25.1525 17.7887 25.1311 17.6928 25.1108 17.5947C25.0905 17.4966 25.0701 17.3975 25.0498 17.2951C24.991 16.9901 24.9342 16.6668 24.8818 16.3252C24.8133 15.8726 24.7523 15.3909 24.7053 14.8822C24.6935 14.7551 24.6828 14.6268 24.6732 14.4964C24.6635 14.366 24.6539 14.2335 24.6453 14.0998C24.6204 13.6989 24.6054 13.284 24.6004 12.8551C24.6004 12.5696 24.6004 12.2775 24.6068 11.9801C24.6207 11.3852 24.656 10.7688 24.7138 10.1308C24.7288 9.9724 24.7459 9.80752 24.7652 9.65018C24.7652 9.65018 24.3083 9.54241 23.556 9.39154L23.3945 9.35921C23.3945 9.32688 23.3945 9.29347 23.3945 9.25899C23.3945 6.3493 20.0774 4 15.9984 4C11.9194 4 8.60125 6.35469 8.60125 9.25899C8.60125 9.29347 8.60125 9.32688 8.60125 9.36029C8.07158 9.46805 7.66925 9.55103 7.4424 9.60168L7.39425 9.61246L7.35252 9.62216L7.31614 9.63078L7.26371 9.64263H7.24124H7.23268C7.27691 10.0141 7.31257 10.3794 7.33968 10.7386C7.35252 10.9186 7.36429 11.0964 7.37285 11.2774C7.38141 11.4585 7.3889 11.6277 7.39425 11.8001C7.40495 12.145 7.40816 12.4812 7.40495 12.811C7.40495 12.8943 7.40495 12.9762 7.40495 13.0567C7.40495 13.3013 7.39211 13.5405 7.38141 13.7755C7.36643 14.0891 7.34503 14.394 7.32042 14.6904C7.30758 14.838 7.29367 14.9846 7.27976 15.1279C7.2498 15.4153 7.21627 15.6937 7.17918 15.9631C7.16955 16.0299 7.16098 16.0967 7.15135 16.1625C7.0339 16.9708 6.87389 17.7723 6.67198 18.5635C6.65914 18.612 6.64737 18.6583 6.6356 18.7047C6.61099 18.7984 6.58638 18.8879 6.56177 18.9752C6.55 19.0183 6.53823 19.0614 6.52539 19.1034C6.36916 19.6509 6.22364 20.0733 6.1177 20.3578C6.10914 20.3794 6.10165 20.4009 6.09309 20.4203L6.07169 20.4785C6.05671 20.5152 6.04387 20.5486 6.0321 20.5787C6.02033 20.6089 6.00856 20.6359 6 20.6596C6.16051 20.7512 6.33706 20.8622 6.52003 20.9829C6.82392 21.1844 7.14387 21.4139 7.43063 21.6295L7.52908 21.7006L7.62324 21.7706L7.80194 21.9053L7.88433 21.9689C8.04483 22.0929 8.17538 22.1974 8.26098 22.2664L8.36799 22.358L10.355 18.7165L9.07956 22.9539C9.24934 23.1048 9.42126 23.2636 9.59531 23.4302C9.76937 23.5969 9.94236 23.7715 10.1143 23.954C10.4739 24.3335 10.8133 24.7321 11.1308 25.148V25.148L11.1415 25.162C11.4069 25.5112 11.6637 25.883 11.9055 26.2763C11.9858 26.4078 12.065 26.5414 12.142 26.6772C12.2907 26.9208 12.447 27.188 12.6064 27.4725C12.687 27.6162 12.7676 27.7631 12.8482 27.9133C12.8878 27.9898 12.9285 28.0663 12.9681 28.1439C13.0077 28.2215 13.0483 28.2991 13.089 28.3788V19.6466V15.8219L9.55144 14.4124L8.61837 11.0953L14.693 14.4113V19.8125L16.0048 20.9699L17.3199 19.8125V14.4134L19.598 13.1687L19.735 13.0944L18.1877 9.66742L20.3427 12.7614L20.6124 12.6137L23.3945 11.0932L22.4614 14.4102L21.4438 14.8154L21.4277 14.8219L23.2607 20.3179L20.7055 15.1139L20.6798 15.1236L18.9228 15.8252L18.91 27.9445L18.9164 28.3885L19.659 27.0695L19.7039 26.9941C19.8002 26.8216 19.8933 26.6481 19.9875 26.4757C20.1929 26.1276 20.4101 25.7957 20.6348 25.481C20.7108 25.3733 20.7868 25.273 20.8638 25.1717L20.8703 25.162C21.1174 24.8387 21.3721 24.5327 21.6311 24.246C21.8244 24.0305 22.0191 23.8257 22.2153 23.6318L22.41 23.441L21.5026 20.3158L22.8766 23.0153L23.8396 22.2028L23.9841 22.0885L24.0675 22.0239L24.1563 21.9549L24.3543 21.8051C24.4228 21.7534 24.4955 21.6973 24.5683 21.6467C24.8551 21.4312 25.175 21.2016 25.48 21.0001C25.6009 20.9182 25.7207 20.8417 25.8341 20.7727C25.8909 20.7382 25.9465 20.7059 26 20.6757L25.9454 20.541" fill="white"/>
</svg>
