<svg width="13" height="16" viewBox="0 0 13 16" fill="none" xmlns="http://www.w3.org/2000/svg">
<path d="M12.9939 0.907178C12.9939 0.876806 12.9939 0.848122 12.987 0.822812C12.9818 0.7704 12.9722 0.718485 12.9584 0.667579V0.656611C12.9584 0.646487 12.9524 0.633833 12.9498 0.624553C12.9441 0.606513 12.9374 0.588772 12.9298 0.571402C12.9171 0.544636 12.9027 0.518709 12.8865 0.493785C12.8865 0.48788 12.8778 0.482817 12.8744 0.476068C12.8709 0.469319 12.8674 0.465101 12.8631 0.459195C12.8588 0.453289 12.8441 0.43473 12.8345 0.422918L12.8224 0.407732C12.6946 0.270209 12.5321 0.167554 12.3511 0.10992C12.2691 0.0789131 12.184 0.0562935 12.0972 0.0424271L12.0522 0.0348345C12.0141 0.0289289 11.9742 0.0238675 11.93 0.0196492C11.8858 0.0154309 11.8434 0.0112122 11.7897 0.00868125C11.703 0.00277563 11.6294 0.000244141 11.5627 0.000244141C11.4197 0.000244141 11.3253 0.0103689 11.3253 0.0103689C11.1867 0.0171182 10.9865 0.0280857 10.7422 0.0432716L3.73409 0.530062L3.52962 0.545249L2.97428 0.585744L3.50277 1.70022L1.07691 14.4234L0 16.0002L0.968611 15.5894C0.968611 15.5894 1.20427 15.4991 1.6002 15.3506L1.72323 15.3042L2.00133 15.2021L2.30803 15.0882L2.64419 14.9642C3.34335 14.7111 4.1976 14.399 5.07438 14.0944L5.73542 13.8675C5.96241 13.7977 6.18392 13.7308 6.39993 13.6667C6.72309 13.5705 7.03239 13.4811 7.32523 13.3976C8.20547 13.1445 8.94535 12.9437 9.49897 12.7699L9.67657 12.7133C9.73376 12.6939 9.78834 12.6762 9.84032 12.6577L9.93562 12.6248L9.95295 12.618C9.9954 12.6028 10.0396 12.5876 10.0768 12.5716L10.0898 12.5666L10.1288 12.5505C10.1522 12.5412 10.1756 12.532 10.1973 12.5218C10.2605 12.4948 10.3194 12.4662 10.3775 12.4375C10.4355 12.4088 10.4823 12.3826 10.5308 12.3531C10.5401 12.3488 10.549 12.344 10.5577 12.3388C10.6498 12.2859 10.7389 12.2282 10.8245 12.1658C10.8644 12.1363 10.9034 12.1068 10.9398 12.0772C11.0401 11.9954 11.1337 11.906 11.2196 11.8098C11.2456 11.7803 11.2698 11.7507 11.2924 11.7254C11.3149 11.7001 11.3366 11.6681 11.3565 11.6411C11.3719 11.6165 11.3861 11.5911 11.3989 11.5651C11.4401 11.4854 11.4757 11.4031 11.5055 11.3188C11.5185 11.2842 11.5306 11.2471 11.5436 11.2083C11.5696 11.1298 11.5947 11.0395 11.6199 10.94C11.645 10.8404 11.6701 10.7265 11.6935 10.6025C11.7065 10.5342 11.7186 10.4616 11.7308 10.3857C11.7429 10.3098 11.755 10.2288 11.7654 10.1444L12.0972 8.03948C12.261 7.00093 11.8009 6.62466 11.4752 6.48798C11.4284 6.47195 11.3807 6.45593 11.3322 6.44412L11.3019 6.43652C11.243 6.42387 11.1849 6.4129 11.1286 6.40278C10.9893 6.37882 10.8481 6.36696 10.7067 6.36734C10.5578 6.36692 10.4092 6.37849 10.2622 6.40193H10.2544H10.2622C10.6463 6.33944 11.0158 6.21028 11.353 6.0206C11.4608 5.96011 11.5641 5.89245 11.6623 5.81812C11.7082 5.78269 11.749 5.74725 11.7923 5.71098C11.9712 5.55475 12.1226 5.3709 12.2402 5.16681C12.2773 5.10263 12.3105 5.03644 12.3398 4.96856C12.3537 4.93734 12.3658 4.90781 12.3762 4.87913C12.4155 4.77866 12.4445 4.67467 12.4628 4.56866C12.4628 4.55769 12.4672 4.54757 12.4689 4.53913L12.4741 4.50454V4.50032L12.5278 4.14177L12.7167 2.90159L12.9203 1.6361C12.9203 1.6361 12.9853 1.22777 13 1.00673C13 0.973826 13 0.940081 13 0.909709L12.9939 0.907178ZM8.53036 8.94303C8.53077 8.94696 8.53077 8.95092 8.53036 8.95485L8.4931 9.19107L8.46278 9.38089L8.28517 10.3697C8.25208 10.5336 8.19365 10.6918 8.1119 10.8387C8.09197 10.8759 8.07118 10.913 8.04865 10.9484C7.94133 11.1236 7.80823 11.2825 7.65358 11.42C7.56054 11.5029 7.46088 11.5785 7.35555 11.6461C7.23739 11.7217 7.11309 11.7877 6.98387 11.8435C6.96655 11.8511 6.94922 11.857 6.93189 11.8629L5.52576 12.2983C5.47668 12.3132 5.42557 12.3209 5.37414 12.321C5.30118 12.321 5.22911 12.3054 5.16299 12.2754C5.09687 12.2453 5.03831 12.2016 4.99141 12.1471C4.94451 12.0927 4.91042 12.0289 4.89153 11.9603C4.87263 11.8917 4.86939 11.8199 4.88204 11.7499L5.51623 8.2352C5.53318 8.1404 5.5786 8.05262 5.64676 7.98295C5.71492 7.91328 5.80275 7.86483 5.89917 7.84375L6.95615 7.61427H6.96481L6.99687 7.60836L7.06531 7.5974L7.16581 7.58474L7.29057 7.57462C7.32783 7.57462 7.36508 7.57462 7.4006 7.57462C7.76448 7.57462 8.04952 7.66995 8.24792 7.85724L8.27218 7.88171C8.30111 7.91162 8.32748 7.94379 8.35102 7.97789C8.36661 7.99898 8.37701 8.0167 8.38394 8.02766L8.3926 8.04201C8.41306 8.07675 8.43101 8.11283 8.44632 8.14999C8.47271 8.21233 8.49273 8.27704 8.5061 8.34319C8.51733 8.39893 8.52514 8.45528 8.52949 8.51193C8.52949 8.51699 8.52949 8.52205 8.52949 8.52627C8.53495 8.66434 8.52857 8.80262 8.51043 8.93966L8.53036 8.94303ZM9.40367 3.14034C9.40367 3.18253 9.40367 3.22471 9.39587 3.27449C9.39587 3.28461 9.39587 3.29558 9.39587 3.3057V3.31329C9.39587 3.36391 9.38547 3.41622 9.37941 3.46853C9.37941 3.50059 9.37074 3.53349 9.36555 3.56639C9.36035 3.59929 9.35515 3.6381 9.34908 3.67354L9.34389 3.70391L9.33696 3.74525L9.33176 3.77984L9.32656 3.80852L9.31356 3.88783V3.90892L9.30577 3.95785L9.2971 4.00847L9.29104 4.04728L9.28584 4.07765L9.27891 4.12405C9.27848 4.12826 9.27848 4.1325 9.27891 4.13671C9.2018 4.57457 9.15242 4.82007 9.14202 4.87153C9.11882 4.99298 9.08102 5.11135 9.02939 5.22418C9.0138 5.25793 8.99734 5.29168 8.98001 5.32458C8.86754 5.53922 8.7113 5.72926 8.52083 5.88308C8.32157 6.04354 8.092 6.16449 7.84505 6.23911H7.83985L7.77228 6.25851C7.71769 6.27285 7.65185 6.29057 7.57734 6.30491L7.53922 6.31166L7.03759 6.40784L6.95875 6.42302L6.88597 6.43652L6.68324 6.47533L6.62259 6.4863L6.57581 6.49558H6.56541L6.51603 6.50486C6.4894 6.5092 6.46245 6.51145 6.43546 6.51161C6.36263 6.51141 6.29072 6.49574 6.22475 6.4657C6.15877 6.43566 6.10032 6.39197 6.05347 6.33767C6.00662 6.28337 5.9725 6.21978 5.95348 6.15132C5.93446 6.08286 5.931 6.01119 5.94335 5.94129L6.57581 2.41986C6.59459 2.31459 6.64848 2.21828 6.72914 2.14584C6.8098 2.0734 6.91272 2.02886 7.02199 2.01912L7.76794 1.95163H7.79654C7.91167 1.93998 8.02734 1.93407 8.14309 1.93391C8.29982 1.93188 8.45626 1.94773 8.6092 1.98116H8.62219C8.63259 1.98116 8.64818 1.98706 8.66724 1.99297L8.6967 2.00225H8.7019C8.75502 2.01986 8.80683 2.04101 8.85698 2.06552C8.96487 2.1178 9.06275 2.18771 9.14635 2.27222L9.15675 2.28319C9.18409 2.31257 9.20956 2.34356 9.23299 2.37599C9.23992 2.38443 9.25292 2.40214 9.26764 2.42408C9.28237 2.44601 9.30143 2.48145 9.3101 2.49916V2.50422L9.31443 2.51182C9.33758 2.55703 9.35727 2.60384 9.37334 2.65187C9.37297 2.65608 9.37297 2.66031 9.37334 2.66452C9.37854 2.68055 9.38374 2.69911 9.38807 2.71767C9.3924 2.73623 9.39414 2.74636 9.3976 2.76323C9.40107 2.7801 9.40453 2.80626 9.40713 2.83241C9.41365 2.89238 9.41683 2.95265 9.41666 3.01295C9.41666 3.04923 9.41666 3.08804 9.41666 3.12769" fill="white"/>
</svg>
