<svg width="44" height="44" viewBox="0 0 44 44" fill="none" xmlns="http://www.w3.org/2000/svg">
<path d="M37.8546 4.90271L24.1133 15.1086L26.6544 9.08727L37.8546 4.90271Z" fill="#E2761B" stroke="#E2761B" stroke-linecap="round" stroke-linejoin="round"/>
<path d="M6.13184 4.90271L19.7627 15.2053L17.3459 9.08727L6.13184 4.90271Z" fill="#E4761B" stroke="#E4761B" stroke-linecap="round" stroke-linejoin="round"/>
<path d="M32.9098 28.5599L29.25 34.167L37.0805 36.3214L39.3316 28.6842L32.9098 28.5599Z" fill="#E4761B" stroke="#E4761B" stroke-linecap="round" stroke-linejoin="round"/>
<path d="M4.68164 28.6842L6.91893 36.3214L14.7494 34.167L11.0897 28.5599L4.68164 28.6842Z" fill="#E4761B" stroke="#E4761B" stroke-linecap="round" stroke-linejoin="round"/>
<path d="M14.307 19.0861L12.125 22.3868L19.9003 22.732L19.6241 14.3767L14.307 19.0861Z" fill="#E4761B" stroke="#E4761B" stroke-linecap="round" stroke-linejoin="round"/>
<path d="M29.6789 19.0861L24.2928 14.28L24.1133 22.732L31.8747 22.3867L29.6789 19.0861Z" fill="#E4761B" stroke="#E4761B" stroke-linecap="round" stroke-linejoin="round"/>
<path d="M14.749 34.167L19.4169 31.8883L15.3843 28.7395L14.749 34.167Z" fill="#E4761B" stroke="#E4761B" stroke-linecap="round" stroke-linejoin="round"/>
<path d="M24.5684 31.8883L29.2501 34.167L28.601 28.7395L24.5684 31.8883Z" fill="#E4761B" stroke="#E4761B" stroke-linecap="round" stroke-linejoin="round"/>
<path d="M29.2511 34.167L24.5693 31.8883L24.9422 34.9404L24.9008 36.2248L29.2511 34.167Z" fill="#D7C1B3" stroke="#D7C1B3" stroke-linecap="round" stroke-linejoin="round"/>
<path d="M14.75 34.167L19.1003 36.2248L19.0727 34.9404L19.4179 31.8883L14.75 34.167Z" fill="#D7C1B3" stroke="#D7C1B3" stroke-linecap="round" stroke-linejoin="round"/>
<path d="M14.7496 34.167L15.4125 28.5599L11.0898 28.6842L14.7496 34.167Z" fill="#CD6116" stroke="#CD6116" stroke-linecap="round" stroke-linejoin="round"/>
<path d="M28.5879 28.5599L29.2508 34.167L32.9106 28.6842L28.5879 28.5599Z" fill="#CD6116" stroke="#CD6116" stroke-linecap="round" stroke-linejoin="round"/>
<path d="M31.8747 22.3867L24.1133 22.732L24.8314 26.7232L25.9777 24.3202L28.7398 25.5769L31.8747 22.3867Z" fill="#CD6116" stroke="#CD6116" stroke-linecap="round" stroke-linejoin="round"/>
<path d="M15.2748 25.5769L18.0368 24.3202L19.1693 26.7232L19.9012 22.732L12.126 22.3867L15.2748 25.5769Z" fill="#CD6116" stroke="#CD6116" stroke-linecap="round" stroke-linejoin="round"/>
<path d="M12.126 22.3867L15.3852 28.7395L15.2748 25.5769L12.126 22.3867Z" fill="#E4751F" stroke="#E4751F" stroke-linecap="round" stroke-linejoin="round"/>
<path d="M28.7397 25.5769L28.6016 28.7395L31.8746 22.3867L28.7397 25.5769Z" fill="#E4751F" stroke="#E4751F" stroke-linecap="round" stroke-linejoin="round"/>
<path d="M19.9009 22.7319L19.1689 26.7231L20.0804 31.4325L20.2876 25.2316L19.9009 22.7319Z" fill="#E4751F" stroke="#E4751F" stroke-linecap="round" stroke-linejoin="round"/>
<path d="M24.1131 22.7319L23.7402 25.2178L23.906 31.4325L24.8313 26.7231L24.1131 22.7319Z" fill="#E4751F" stroke="#E4751F" stroke-linecap="round" stroke-linejoin="round"/>
<path d="M24.8315 26.7232L23.9062 31.4325L24.5691 31.8883L28.6018 28.7395L28.7399 25.5769L24.8315 26.7232Z" fill="#F6851B" stroke="#F6851B" stroke-linecap="round" stroke-linejoin="round"/>
<path d="M15.2744 25.5769L15.3849 28.7395L19.4175 31.8883L20.0804 31.4325L19.169 26.7232L15.2744 25.5769Z" fill="#F6851B" stroke="#F6851B" stroke-linecap="round" stroke-linejoin="round"/>
<path d="M24.9007 36.2247L24.9421 34.9404L24.5968 34.6365H19.3903L19.0727 34.9404L19.1003 36.2247L14.75 34.167L16.2691 35.4099L19.3489 37.5505H24.6383L27.7318 35.4099L29.2509 34.167L24.9007 36.2247Z" fill="#C0AD9E" stroke="#C0AD9E" stroke-linecap="round" stroke-linejoin="round"/>
<path d="M24.5688 31.8882L23.9059 31.4325H20.0804L19.4175 31.8882L19.0723 34.9403L19.3899 34.6365H24.5964L24.9417 34.9403L24.5688 31.8882Z" fill="#161616" stroke="#161616" stroke-linecap="round" stroke-linejoin="round"/>
<path d="M38.434 15.7715L39.6079 10.1369L37.854 4.90271L24.5684 14.7634L29.6782 19.086L36.9011 21.199L38.5031 19.3346L37.8126 18.8374L38.9174 17.8293L38.0611 17.1664L39.166 16.3239L38.434 15.7715Z" fill="#763D16" stroke="#763D16" stroke-linecap="round" stroke-linejoin="round"/>
<path d="M4.3916 10.1369L5.56549 15.7715L4.81972 16.3239L5.92456 17.1664L5.08212 17.8293L6.18696 18.8374L5.49644 19.3346L7.08463 21.199L14.3075 19.086L19.4173 14.7634L6.13171 4.90271L4.3916 10.1369Z" fill="#763D16" stroke="#763D16" stroke-linecap="round" stroke-linejoin="round"/>
<path d="M36.9016 21.1991L29.6788 19.0861L31.8746 22.3868L28.6016 28.7395L32.9104 28.6843H39.3323L36.9016 21.1991Z" fill="#F6851B" stroke="#F6851B" stroke-linecap="round" stroke-linejoin="round"/>
<path d="M14.3075 19.0861L7.08465 21.1991L4.68164 28.6843H11.0897L15.3847 28.7395L12.1255 22.3868L14.3075 19.0861Z" fill="#F6851B" stroke="#F6851B" stroke-linecap="round" stroke-linejoin="round"/>
<path d="M24.1128 22.732L24.5686 14.7634L26.6677 9.08728H17.3457L19.4173 14.7634L19.9006 22.732L20.0664 25.2455L20.0802 31.4325H23.9057L23.9333 25.2455L24.1128 22.732Z" fill="#F6851B" stroke="#F6851B" stroke-linecap="round" stroke-linejoin="round"/>
<path d="M19.169 26.7231L15.2744 25.5768L18.0227 24.3201L19.169 26.7231Z" fill="#233447"/>
<path fill-rule="evenodd" clip-rule="evenodd" d="M17.8148 23.8655C18.063 23.7519 18.3565 23.8585 18.474 24.1049L19.6202 26.5079C19.7052 26.686 19.6775 26.8974 19.5494 27.0476C19.4214 27.1977 19.2171 27.2586 19.0278 27.2028L15.1332 26.0566C14.9331 25.9977 14.7906 25.8207 14.7757 25.6126C14.7608 25.4044 14.8767 25.209 15.0665 25.1222L17.8148 23.8655ZM16.6994 25.4751L18.2353 25.9272L17.7832 24.9795L16.6994 25.4751Z" fill="#233447"/>
<path d="M24.8174 26.7231L25.9636 24.3201L28.7257 25.5768L24.8174 26.7231Z" fill="#233447"/>
<path fill-rule="evenodd" clip-rule="evenodd" d="M25.5124 24.1049C25.6297 23.8589 25.9226 23.7522 26.1707 23.8651L28.9328 25.1218C29.123 25.2083 29.2393 25.4039 29.2245 25.6123C29.2097 25.8207 29.0669 25.9979 28.8665 26.0567L24.9581 27.203C24.7688 27.2585 24.5646 27.1976 24.4367 27.0474C24.3089 26.8972 24.2812 26.6859 24.3661 26.5079L25.5124 24.1049ZM26.2035 24.9786L25.7504 25.9285L27.2953 25.4754L26.2035 24.9786Z" fill="#233447"/>
</svg>
