<?xml version="1.0" standalone="no"?>
<!DOCTYPE svg PUBLIC "-//W3C//DTD SVG 20010904//EN"
 "http://www.w3.org/TR/2001/REC-SVG-20010904/DTD/svg10.dtd">
<svg version="1.0" xmlns="http://www.w3.org/2000/svg"
 width="700.000000pt" height="700.000000pt" viewBox="0 0 700.000000 700.000000"
 preserveAspectRatio="xMidYMid meet">
<metadata>
Created by potrace 1.14, written by Peter Selinger 2001-2017
</metadata>
<g transform="translate(0.000000,700.000000) scale(0.100000,-0.100000)"
fill="#000000" stroke="none">
<path d="M3280 6994 c-19 -2 -84 -9 -145 -14 -578 -56 -1180 -283 -1660 -625
-237 -169 -531 -446 -709 -670 -416 -521 -673 -1147 -748 -1820 -17 -155 -17
-575 0 -730 52 -469 198 -931 418 -1327 290 -523 731 -983 1239 -1294 439
-269 920 -432 1460 -496 145 -17 576 -17 730 0 822 91 1556 447 2131 1034 203
206 348 390 487 618 274 449 433 916 499 1465 16 136 16 592 0 730 -86 725
-352 1347 -803 1885 -122 145 -351 370 -494 484 -510 407 -1117 661 -1775 742
-117 15 -553 27 -630 18z m480 -884 c498 -61 932 -283 1171 -600 103 -137 170
-309 184 -477 l7 -80 146 -31 c79 -17 146 -33 147 -34 1 -2 -1 -37 -6 -78 -76
-702 5 -1507 215 -2145 31 -93 56 -174 56 -180 0 -6 -39 -36 -87 -67 -128 -83
-313 -221 -456 -342 -70 -58 -129 -106 -131 -106 -3 0 -67 122 -142 271 -75
148 -138 268 -141 266 -2 -3 37 -145 87 -317 l91 -311 -110 -120 c-240 -261
-324 -380 -550 -784 l-101 -180 0 1371 0 1372 191 76 c104 42 193 74 198 72 4
-3 126 -247 271 -544 146 -297 266 -539 268 -537 2 2 -82 258 -187 570 -105
312 -191 571 -191 575 0 4 50 28 112 53 l111 44 102 362 c56 198 101 361 99
361 -1 0 -150 -81 -330 -179 -181 -99 -331 -178 -335 -175 -4 2 -105 145 -224
317 -120 171 -222 317 -227 322 -11 12 -7 3 176 -404 76 -166 135 -308 133
-315 -3 -6 -120 -73 -261 -150 l-256 -138 0 -592 0 -591 -140 -122 c-77 -68
-144 -123 -149 -123 -5 0 -72 56 -150 125 l-141 126 -2 591 -3 591 -655 357
c-360 197 -656 356 -658 355 -6 -6 191 -700 202 -712 6 -6 180 -79 386 -161
l375 -150 3 -1368 2 -1368 -98 174 c-235 417 -367 596 -630 859 l-144 144 135
451 c75 248 135 452 134 452 -1 1 -93 -165 -205 -369 -111 -205 -207 -380
-213 -389 -8 -15 -22 -8 -107 59 -114 89 -283 210 -363 260 l-57 34 29 75
c102 264 202 702 243 1069 40 351 45 829 12 1135 -8 69 -13 126 -11 128 2 2
127 30 236 52 l56 11 7 78 c19 236 120 435 316 625 243 236 594 394 1000 451
116 16 444 19 560 5z m-1096 -2116 l278 -149 -78 -7 c-86 -7 -244 4 -321 23
-107 27 -193 78 -243 146 -31 43 -60 129 -60 181 l0 34 73 -39 c39 -22 197
-106 351 -189z m2093 165 c-13 -144 -108 -244 -277 -293 -74 -21 -259 -36
-345 -28 l-70 7 165 89 c91 50 246 134 345 187 99 54 182 98 184 99 2 0 1 -27
-2 -61z"/>
</g>
</svg>
