<?xml version="1.0" standalone="no"?>
<!DOCTYPE svg PUBLIC "-//W3C//DTD SVG 20010904//EN"
 "http://www.w3.org/TR/2001/REC-SVG-20010904/DTD/svg10.dtd">
<svg version="1.0" xmlns="http://www.w3.org/2000/svg"
 width="800.000000pt" height="800.000000pt" viewBox="0 0 800.000000 800.000000"
 preserveAspectRatio="xMidYMid meet">
<metadata>
Created by potrace 1.14, written by Peter Selinger 2001-2017
</metadata>
<g transform="translate(0.000000,800.000000) scale(0.100000,-0.100000)"
fill="#000000" stroke="none">
<path d="M6307 7994 c-2 -2 -48 -6 -103 -9 -54 -3 -130 -7 -169 -10 -84 -6
-183 -13 -285 -20 -41 -3 -102 -7 -135 -10 -33 -3 -96 -7 -140 -10 -44 -3
-114 -8 -155 -11 -41 -3 -102 -7 -135 -9 -33 -3 -91 -7 -130 -10 -167 -12
-244 -17 -300 -21 -33 -2 -89 -6 -125 -8 -36 -3 -101 -8 -145 -11 -44 -3 -107
-7 -140 -10 -33 -3 -100 -7 -150 -10 -86 -4 -152 -9 -275 -20 -30 -3 -97 -8
-150 -11 -52 -3 -117 -7 -145 -9 -27 -2 -95 -7 -150 -10 -55 -3 -113 -8 -130
-10 -31 -4 -246 -18 -302 -19 -18 -1 -33 -3 -33 -6 0 -3 -30 -6 -68 -6 -37 -1
-105 -4 -152 -8 -47 -3 -121 -9 -165 -12 -44 -2 -102 -7 -130 -9 -27 -3 -88
-7 -135 -10 -46 -4 -87 -8 -89 -11 -3 -2 4 -21 14 -42 10 -20 19 -39 20 -42 0
-3 17 -39 37 -80 20 -41 47 -100 61 -130 14 -30 46 -100 72 -155 51 -109 51
-112 18 -270 -3 -16 -7 -39 -9 -50 -1 -11 -8 -45 -14 -75 -6 -30 -13 -64 -14
-75 -2 -11 -9 -49 -16 -85 -7 -36 -14 -74 -16 -85 -2 -17 -9 -51 -29 -155 -3
-14 -9 -50 -15 -80 -6 -30 -12 -66 -15 -80 -3 -14 -7 -36 -10 -50 -3 -14 -7
-35 -9 -46 -2 -12 -7 -37 -10 -55 -3 -19 -17 -95 -31 -169 -14 -74 -28 -148
-31 -165 -2 -16 -7 -37 -9 -45 -2 -8 -6 -31 -9 -50 -3 -19 -8 -46 -11 -60 -4
-14 -8 -34 -9 -45 -7 -41 -17 -92 -32 -168 -8 -43 -17 -90 -19 -105 -2 -15 -4
-27 -5 -27 -1 0 -3 -9 -4 -20 -2 -11 -10 -58 -19 -105 -9 -47 -19 -98 -22
-115 -2 -16 -7 -41 -10 -55 -3 -14 -8 -41 -11 -60 -3 -19 -7 -43 -10 -52 -3
-9 -6 -25 -8 -35 -8 -41 -16 -89 -20 -109 -2 -12 -7 -37 -10 -55 -3 -19 -8
-45 -11 -59 -3 -14 -9 -50 -15 -80 -11 -60 -17 -92 -25 -130 -2 -14 -7 -38
-10 -55 -3 -16 -7 -41 -10 -55 -3 -14 -8 -38 -10 -55 -3 -16 -8 -37 -10 -45
-2 -8 -7 -35 -10 -60 -3 -25 -8 -52 -10 -60 -2 -8 -7 -31 -10 -50 -3 -19 -10
-54 -16 -78 -5 -23 -12 -59 -15 -80 -3 -20 -7 -44 -9 -52 -2 -8 -7 -28 -10
-45 -2 -16 -7 -41 -10 -55 -3 -14 -8 -45 -11 -70 -3 -25 -8 -48 -10 -51 -2 -3
-6 -21 -9 -40 -7 -41 -23 -126 -29 -155 -2 -12 -7 -37 -10 -55 -3 -19 -13 -70
-21 -114 -9 -44 -18 -96 -22 -115 -7 -45 -11 -65 -13 -65 -1 0 -3 -9 -4 -20
-2 -11 -7 -40 -11 -65 -8 -44 -12 -64 -19 -105 -1 -11 -6 -31 -9 -45 -4 -14
-9 -42 -12 -62 -2 -21 -9 -57 -14 -80 -6 -24 -12 -59 -16 -78 -3 -19 -7 -46
-10 -60 -12 -63 -18 -97 -20 -115 -2 -11 -4 -20 -5 -20 -2 0 -6 -21 -14 -70
-4 -22 -8 -47 -11 -55 -2 -8 -6 -31 -9 -50 -3 -19 -8 -46 -11 -60 -5 -26 -11
-58 -21 -112 -3 -18 -11 -64 -19 -103 -8 -38 -17 -87 -21 -109 -8 -54 -11 -72
-30 -156 -3 -14 -7 -36 -9 -50 -8 -50 -26 -147 -38 -205 -5 -24 -17 -90 -23
-125 -3 -14 -11 -59 -19 -100 -8 -41 -17 -87 -19 -102 -3 -15 -12 -63 -20
-105 -18 -88 -24 -123 -32 -173 -3 -19 -8 -44 -11 -55 -5 -16 -229 -362 -243
-375 -3 -3 -41 -59 -85 -125 -43 -66 -81 -122 -85 -125 -3 -3 -24 -33 -45 -67
-21 -35 -44 -68 -51 -74 -8 -6 -14 -18 -14 -25 0 -12 4 -12 23 0 12 8 27 16
32 17 6 1 35 13 65 26 30 14 60 26 65 27 6 1 41 17 79 34 38 18 71 32 73 32 2
0 25 10 51 21 26 12 48 21 49 21 2 -1 24 8 50 19 72 32 176 71 191 72 6 0 12
4 12 9 0 4 6 8 13 8 6 0 95 32 197 71 102 39 190 72 195 73 14 4 47 16 70 27
11 5 45 18 75 28 30 11 87 32 125 46 39 15 75 28 80 29 6 2 17 6 25 9 19 8
191 71 285 104 39 13 84 30 100 38 17 7 59 23 95 35 36 12 94 34 130 47 36 14
70 26 75 27 6 2 17 6 25 9 19 8 212 77 225 81 6 2 17 5 25 8 8 3 44 16 80 28
36 12 74 26 85 32 12 5 27 10 35 12 8 2 22 6 30 9 43 18 513 166 625 197 17 5
71 20 120 35 50 14 95 27 100 29 6 1 35 10 65 19 77 25 360 106 390 113 14 3
46 12 71 20 25 9 52 17 60 18 8 2 21 5 29 8 41 14 157 47 185 54 6 1 51 14
100 30 50 15 96 29 103 30 21 4 275 85 297 95 11 4 43 16 70 25 151 49 359
162 485 263 71 57 180 171 215 226 36 58 75 139 75 158 0 8 3 17 7 21 4 3 8
12 9 19 1 7 9 33 17 59 9 26 19 57 21 70 10 47 15 70 20 86 3 9 8 31 11 47 3
17 7 44 10 60 19 105 26 147 30 181 2 22 6 50 9 64 5 26 14 84 22 135 2 17 7
48 10 70 3 22 7 49 9 60 9 63 16 104 20 125 3 14 8 45 11 70 3 25 7 52 9 60 2
8 7 35 10 60 3 25 11 74 16 110 6 36 12 76 14 90 2 14 6 39 9 55 2 17 7 50 11
75 11 74 15 98 21 133 14 78 18 220 9 312 -8 82 -39 179 -77 247 -34 59 -111
148 -128 148 -6 0 -10 5 -10 10 0 6 -5 10 -11 10 -6 0 -23 9 -38 19 -64 46
-257 84 -429 85 -50 1 -81 5 -79 11 2 5 8 10 13 11 37 2 170 49 269 95 52 24
216 118 225 128 3 3 23 19 45 36 204 150 368 428 399 675 3 25 8 56 11 70 3
14 8 43 10 65 11 82 17 123 30 205 3 19 8 51 10 70 3 19 6 44 9 55 2 11 7 45
11 75 4 30 9 64 11 75 2 11 6 40 9 65 3 25 8 54 10 66 3 12 7 39 10 60 6 45
13 90 19 119 2 11 7 40 10 65 3 25 8 56 11 70 3 14 7 43 10 65 3 22 7 51 10
65 8 40 41 257 51 330 3 19 7 49 10 65 10 65 12 213 3 266 -17 109 -56 169
-158 246 -58 45 -175 94 -253 107 -18 3 -44 8 -58 12 -27 6 -407 14 -413 8z
m-1372 -967 c151 -16 259 -63 350 -152 105 -102 144 -195 147 -348 2 -88 -7
-239 -17 -288 -3 -13 -7 -37 -10 -54 -9 -65 -16 -111 -20 -135 -3 -14 -8 -45
-11 -70 -10 -69 -12 -85 -14 -85 -1 0 -3 -11 -4 -25 -2 -14 -8 -52 -14 -85 -6
-33 -13 -73 -16 -90 -9 -45 -24 -127 -30 -154 -3 -13 -13 -47 -23 -75 -9 -28
-18 -53 -18 -56 -4 -19 -75 -144 -108 -189 -134 -183 -350 -318 -582 -366 -18
-4 -34 -7 -105 -21 -91 -18 -188 -36 -205 -39 -11 -2 -29 -6 -40 -8 -32 -7
-98 -19 -120 -23 -11 -1 -42 -7 -69 -12 -27 -6 -60 -8 -73 -6 -13 2 -34 6 -47
8 -35 6 -78 30 -110 62 -62 63 -84 149 -64 251 12 61 16 81 22 118 3 17 10 57
16 90 10 57 17 95 24 140 2 11 6 36 10 55 3 19 8 47 10 63 3 15 10 54 16 87 6
33 13 72 16 87 3 16 11 64 19 108 8 44 16 94 19 110 3 17 7 39 9 50 3 11 8 40
12 65 4 25 8 52 10 60 4 27 15 84 20 110 6 28 11 59 19 110 3 19 8 45 10 56 2
12 7 37 10 55 3 19 10 59 16 89 6 30 13 71 16 90 5 32 18 107 30 170 17 89 68
155 144 189 25 11 74 22 110 25 140 12 196 17 225 21 17 2 77 7 135 11 58 3
106 7 107 8 3 3 130 -2 178 -7z m1040 -2207 c4 -6 -6 -10 -22 -9 -25 0 -26 1
-8 9 11 5 21 9 22 9 1 1 5 -3 8 -9z m-1450 -614 c200 -13 357 -110 421 -261
12 -28 28 -63 35 -80 15 -36 21 -322 8 -405 -5 -30 -12 -75 -15 -100 -3 -25
-7 -52 -9 -60 -3 -8 -7 -32 -11 -54 -6 -40 -10 -64 -19 -106 -3 -14 -7 -41
-10 -60 -2 -19 -11 -71 -20 -115 -8 -44 -18 -98 -21 -120 -23 -174 -143 -390
-297 -535 -70 -67 -155 -131 -217 -164 -19 -10 -54 -29 -77 -42 -35 -19 -261
-98 -316 -109 -9 -2 -21 -6 -25 -9 -5 -3 -19 -7 -33 -10 -13 -3 -60 -17 -104
-32 -44 -14 -129 -42 -190 -61 -140 -46 -213 -51 -281 -19 -64 31 -91 58 -120
119 -27 60 -27 124 5 292 11 61 23 126 26 145 3 19 8 49 12 65 3 17 7 39 8 50
2 11 9 45 15 75 6 30 13 71 16 90 8 55 11 70 28 160 8 47 18 99 21 115 3 17 8
46 11 65 3 19 7 42 9 50 3 8 7 33 10 55 4 22 9 51 11 65 3 14 7 36 9 50 4 30
32 185 40 220 3 14 7 39 10 55 2 17 15 93 30 170 14 77 28 155 31 174 7 48 30
93 67 131 29 30 86 63 112 65 8 1 70 15 185 42 43 10 54 13 80 17 14 2 32 6
40 9 18 6 69 19 90 22 49 7 90 16 111 23 13 5 34 8 47 7 12 -1 22 2 22 7 0 5
3 7 8 5 4 -3 36 -2 72 2 36 4 72 6 80 4 8 -1 51 -4 95 -7z"/>
</g>
</svg>
